Palanquin SemiBold.ufo
<glyph name="numbersign" format="1">
  <advance width="544"/>
  <unicode hex="0023"/>
  <outline>
    <contour>
      <point x="491" y="513" type="line"/>
      <point x="394" y="515" type="line"/>
      <point x="367" y="399" type="line"/>
      <point x="243" y="399" type="line"/>
      <point x="270" y="513" type="line"/>
      <point x="174" y="515" type="line"/>
      <point x="147" y="399" type="line"/>
      <point x="21" y="399" type="line"/>
      <point x="31" y="314" type="line"/>
      <point x="127" y="314" type="line"/>
      <point x="100" y="197" type="line"/>
      <point x="21" y="197" type="line"/>
      <point x="31" y="112" type="line"/>
      <point x="81" y="112" type="line"/>
      <point x="54" y="-6" type="line"/>
      <point x="149" y="-11" type="line"/>
      <point x="177" y="112" type="line"/>
      <point x="302" y="112" type="line"/>
      <point x="275" y="-6" type="line"/>
      <point x="370" y="-11" type="line"/>
      <point x="398" y="112" type="line"/>
      <point x="523" y="112" type="line"/>
      <point x="514" y="197" type="line"/>
      <point x="418" y="197" type="line"/>
      <point x="445" y="314" type="line"/>
      <point x="523" y="314" type="line"/>
      <point x="514" y="399" type="line"/>
      <point x="465" y="399" type="line"/>
    </contour>
    <contour>
      <point x="224" y="314" type="line"/>
      <point x="348" y="314" type="line"/>
      <point x="320" y="197" type="line"/>
      <point x="198" y="197" type="line"/>
    </contour>
  </outline>
</glyph>
<glyph name="dollar" format="1">
  <advance width="547"/>
  <unicode hex="0024"/>
  <outline>
    <contour>
      <point x="375" y="806" type="line"/>
      <point x="297" y="806" type="line"/>
      <point x="297" y="694" type="line"/>
      <point x="289" y="695"/>
      <point x="282" y="696"/>
      <point x="273" y="696" type="curve" smooth="yes"/>
      <point x="262" y="696"/>
      <point x="249" y="694"/>
      <point x="237" y="693" type="curve"/>
      <point x="237" y="802" type="line"/>
      <point x="160" y="806" type="line"/>
      <point x="160" y="675" type="line"/>
      <point x="87" y="646"/>
      <point x="44" y="587"/>
      <point x="44" y="516" type="curve" smooth="yes"/>
      <point x="44" y="309"/>
      <point x="386" y="294"/>
      <point x="386" y="172" type="curve" smooth="yes"/>
      <point x="386" y="118"/>
      <point x="341" y="86"/>
      <point x="251" y="86" type="curve" smooth="yes"/>
      <point x="191" y="86"/>
      <point x="121" y="111"/>
      <point x="82" y="131" type="curve"/>
      <point x="56" y="41" type="line"/>
      <point x="73" y="27"/>
      <point x="115" y="11"/>
      <point x="160" y="0" type="curve"/>
      <point x="160" y="-123" type="line"/>
      <point x="237" y="-123" type="line"/>
      <point x="237" y="-13" type="line"/>
      <point x="252" y="-13" type="line" smooth="yes"/>
      <point x="268" y="-13"/>
      <point x="283" y="-12"/>
      <point x="297" y="-10" type="curve"/>
      <point x="297" y="-116" type="line"/>
      <point x="375" y="-123" type="line"/>
      <point x="375" y="6" type="line"/>
      <point x="456" y="36"/>
      <point x="502" y="98"/>
      <point x="502" y="173" type="curve" smooth="yes"/>
      <point x="502" y="373"/>
      <point x="159" y="391"/>
      <point x="159" y="518" type="curve" smooth="yes"/>
      <point x="159" y="570"/>
      <point x="207" y="598"/>
      <point x="275" y="598" type="curve" smooth="yes"/>
      <point x="337" y="598"/>
      <point x="382" y="577"/>
      <point x="421" y="558" type="curve"/>
      <point x="433" y="588"/>
      <point x="447" y="617"/>
      <point x="459" y="648" type="curve"/>
      <point x="434" y="659"/>
      <point x="406" y="671"/>
      <point x="375" y="678" type="curve"/>
    </contour>
  </outline>
</glyph>
<glyph name="ampersand" format="1">
  <advance width="684"/>
  <unicode hex="0026"/>
  <outline>
    <contour>
      <point x="383" y="598"/>
      <point x="420" y="577"/>
      <point x="460" y="558" type="curve"/>
      <point x="499" y="648" type="line"/>
      <point x="448" y="672"/>
      <point x="388" y="696"/>
      <point x="322" y="696" type="curve" smooth="yes"/>
      <point x="196" y="696"/>
      <point x="118" y="610"/>
      <point x="118" y="509" type="curve" smooth="yes"/>
      <point x="118" y="471"/>
      <point x="128" y="439"/>
      <point x="147" y="413" type="curve"/>
      <point x="89" y="366"/>
      <point x="47" y="294"/>
      <point x="47" y="217" type="curve" smooth="yes"/>
      <point x="47" y="66"/>
      <point x="164" y="-10"/>
      <point x="310" y="-12" type="curve"/>
      <point x="400" y="-12"/>
      <point x="467" y="15"/>
      <point x="516" y="60" type="curve"/>
      <point x="594" y="-11" type="line"/>
      <point x="660" y="72" type="line"/>
      <point x="580" y="143" type="line"/>
      <point x="607" y="198"/>
      <point x="623" y="262"/>
      <point x="627" y="334" type="curve"/>
      <point x="528" y="374" type="line"/>
      <point x="524" y="314"/>
      <point x="513" y="262"/>
      <point x="494" y="220" type="curve"/>
      <point x="322" y="378" type="line" smooth="yes"/>
      <point x="262" y="432"/>
      <point x="233" y="467"/>
      <point x="233" y="514" type="curve" smooth="yes"/>
      <point x="233" y="559"/>
      <point x="266" y="598"/>
      <point x="322" y="598" type="curve" smooth="yes"/>
    </contour>
    <contour>
      <point x="235" y="89"/>
      <point x="165" y="127"/>
      <point x="165" y="218" type="curve"/>
      <point x="166" y="264"/>
      <point x="184" y="305"/>
      <point x="217" y="334" type="curve"/>
      <point x="250" y="304" type="line"/>
      <point x="436" y="134" type="line"/>
      <point x="404" y="105"/>
      <point x="361" y="89"/>
      <point x="310" y="89" type="curve" smooth="yes"/>
    </contour>
  </outline>
</glyph>
<glyph name="hyphen" format="1">
  <advance width="300"/>
  <unicode hex="002D"/>
  <outline>
    <contour>
      <point x="284" y="229" type="line"/>
      <point x="274" y="318" type="line"/>
      <point x="16" y="318" type="line"/>
      <point x="26" y="229" type="line"/>
    </contour>
  </outline>
</glyph>
<glyph name="zero" format="1">
  <advance width="617"/>
  <unicode hex="0030"/>
  <outline>
    <contour>
      <point x="161" y="579"/>
      <point x="54" y="469"/>
      <point x="54" y="286" type="curve"/>
      <point x="54" y="97"/>
      <point x="161" y="-13"/>
      <point x="308" y="-13" type="curve"/>
      <point x="452" y="-13"/>
      <point x="561" y="103"/>
      <point x="561" y="287" type="curve"/>
      <point x="561" y="475"/>
      <point x="457" y="579"/>
      <point x="309" y="579" type="curve"/>
    </contour>
    <contour>
      <point x="225" y="84"/>
      <point x="160" y="156"/>
      <point x="160" y="289" type="curve"/>
      <point x="160" y="414"/>
      <point x="226" y="483"/>
      <point x="308" y="483" type="curve"/>
      <point x="392" y="483"/>
      <point x="457" y="415"/>
      <point x="457" y="284" type="curve"/>
      <point x="457" y="157"/>
      <point x="389" y="84"/>
      <point x="309" y="84" type="curve"/>
    </contour>
  </outline>
</glyph>
<glyph name="one" format="1">
  <advance width="429"/>
  <unicode hex="0031"/>
  <outline>
    <contour>
      <point x="376" y="0" type="line"/>
      <point x="373" y="26"/>
      <point x="370" y="53"/>
      <point x="366" y="80" type="curve"/>
      <point x="286" y="80" type="line"/>
      <point x="286" y="566" type="line"/>
      <point x="211" y="566" type="line"/>
      <point x="62" y="476" type="line"/>
      <point x="80" y="451"/>
      <point x="98" y="425"/>
      <point x="115" y="399" type="curve"/>
      <point x="173" y="435" type="line"/>
      <point x="173" y="80" type="line"/>
      <point x="65" y="80" type="line"/>
      <point x="74" y="0" type="line"/>
    </contour>
  </outline>
</glyph>
<glyph name="two" format="1">
  <advance width="503"/>
  <unicode hex="0032"/>
  <outline>
    <contour>
      <point x="432" y="488"/>
      <point x="382" y="579"/>
      <point x="230" y="579" type="curve"/>
      <point x="137" y="579"/>
      <point x="73" y="534"/>
      <point x="44" y="512" type="curve"/>
      <point x="93" y="434" type="line"/>
      <point x="97" y="436"/>
      <point x="175" y="487"/>
      <point x="228" y="487" type="curve"/>
      <point x="293" y="487"/>
      <point x="329" y="450"/>
      <point x="329" y="401" type="curve"/>
      <point x="328" y="357"/>
      <point x="307" y="322"/>
      <point x="229" y="254" type="curve"/>
      <point x="31" y="78" type="line"/>
      <point x="31" y="0" type="line"/>
      <point x="458" y="0" type="line"/>
      <point x="444" y="87" type="line"/>
      <point x="178" y="87" type="line"/>
      <point x="290" y="182" type="line" smooth="yes"/>
      <point x="388" y="264"/>
      <point x="432" y="323"/>
      <point x="432" y="401" type="curve"/>
    </contour>
  </outline>
</glyph>
<glyph name="four" format="1">
  <advance width="581"/>
  <unicode hex="0034"/>
  <outline>
    <contour>
      <point x="537" y="63" type="line"/>
      <point x="549" y="156" type="line"/>
      <point x="444" y="156" type="line"/>
      <point x="444" y="571" type="line"/>
      <point x="361" y="571" type="line"/>
      <point x="31" y="156" type="line"/>
      <point x="46" y="63" type="line"/>
      <point x="330" y="63" type="line"/>
      <point x="330" y="-69" type="line"/>
      <point x="444" y="-69" type="line"/>
      <point x="444" y="63" type="line"/>
    </contour>
    <contour>
      <point x="153" y="156" type="line"/>
      <point x="330" y="386" type="line"/>
      <point x="330" y="156" type="line"/>
    </contour>
  </outline>
</glyph>
<glyph name="seven" format="1">
  <advance width="501"/>
  <unicode hex="0037"/>
  <outline>
    <contour>
      <point x="52" y="-38" type="line"/>
      <point x="158" y="-69" type="line"/>
      <point x="477" y="520" type="line"/>
      <point x="443" y="566" type="line"/>
      <point x="44" y="566" type="line"/>
      <point x="58" y="474" type="line"/>
      <point x="336" y="474" type="line"/>
    </contour>
  </outline>
</glyph>
<glyph name="colon" format="1">
  <advance width="157"/>
  <unicode hex="003A"/>
  <outline>
    <contour>
      <point x="145" y="114"/>
      <point x="116" y="142"/>
      <point x="79" y="142" type="curve"/>
      <point x="41" y="142"/>
      <point x="11" y="114"/>
      <point x="11" y="76" type="curve"/>
      <point x="11" y="37"/>
      <point x="41" y="9"/>
      <point x="79" y="9" type="curve"/>
      <point x="116" y="9"/>
      <point x="145" y="37"/>
      <point x="145" y="76" type="curve"/>
    </contour>
    <contour>
      <point x="145" y="438"/>
      <point x="116" y="468"/>
      <point x="79" y="468" type="curve"/>
      <point x="41" y="468"/>
      <point x="11" y="438"/>
      <point x="11" y="401" type="curve"/>
      <point x="11" y="364"/>
      <point x="41" y="334"/>
      <point x="79" y="334" type="curve"/>
      <point x="116" y="334"/>
      <point x="145" y="364"/>
      <point x="145" y="401" type="curve"/>
    </contour>
  </outline>
</glyph>
<glyph name="semicolon" format="1">
  <advance width="177"/>
  <unicode hex="003B"/>
  <outline>
    <contour>
      <point x="161" y="438"/>
      <point x="131" y="468"/>
      <point x="94" y="468" type="curve"/>
      <point x="56" y="468"/>
      <point x="26" y="438"/>
      <point x="26" y="401" type="curve"/>
      <point x="26" y="364"/>
      <point x="56" y="334"/>
      <point x="94" y="334" type="curve"/>
      <point x="131" y="334"/>
      <point x="161" y="364"/>
      <point x="161" y="401" type="curve"/>
    </contour>
    <contour>
      <point x="160" y="109"/>
      <point x="129" y="142"/>
      <point x="91" y="142" type="curve"/>
      <point x="54" y="142"/>
      <point x="25" y="109"/>
      <point x="25" y="75" type="curve"/>
      <point x="25" y="42"/>
      <point x="53" y="10"/>
      <point x="77" y="9" type="curve"/>
      <point x="69" y="-32"/>
      <point x="46" y="-53"/>
      <point x="11" y="-80" type="curve"/>
      <point x="38" y="-134" type="line"/>
      <point x="108" y="-95"/>
      <point x="160" y="-9"/>
      <point x="160" y="61" type="curve"/>
    </contour>
  </outline>
</glyph>
<glyph name="equal" format="1">
  <advance width="493"/>
  <unicode hex="003D"/>
  <outline>
    <contour>
      <point x="472" y="314" type="line"/>
      <point x="464" y="399" type="line"/>
      <point x="21" y="399" type="line"/>
      <point x="31" y="314" type="line"/>
    </contour>
    <contour>
      <point x="472" y="112" type="line"/>
      <point x="464" y="197" type="line"/>
      <point x="21" y="197" type="line"/>
      <point x="31" y="112" type="line"/>
    </contour>
  </outline>
</glyph>
<glyph name="B" format="1">
  <advance width="639"/>
  <unicode hex="0042"/>
  <outline>
    <contour>
      <point x="547" y="631"/>
      <point x="453" y="680"/>
      <point x="318" y="680" type="curve"/>
      <point x="89" y="680" type="line"/>
      <point x="89" y="0" type="line"/>
      <point x="346" y="0" type="line"/>
      <point x="491" y="0"/>
      <point x="590" y="66"/>
      <point x="590" y="197" type="curve"/>
      <point x="590" y="284"/>
      <point x="543" y="337"/>
      <point x="477" y="367" type="curve"/>
      <point x="518" y="396"/>
      <point x="547" y="438"/>
      <point x="547" y="493" type="curve"/>
    </contour>
    <contour>
      <point x="349" y="305" type="line" smooth="yes"/>
      <point x="424" y="305"/>
      <point x="473" y="269"/>
      <point x="473" y="196" type="curve"/>
      <point x="473" y="125"/>
      <point x="418" y="93"/>
      <point x="339" y="93" type="curve"/>
      <point x="201" y="93" type="line"/>
      <point x="201" y="305" type="line"/>
    </contour>
    <contour>
      <point x="304" y="586" type="line" smooth="yes"/>
      <point x="381" y="586"/>
      <point x="428" y="566"/>
      <point x="428" y="491" type="curve"/>
      <point x="428" y="423"/>
      <point x="376" y="397"/>
      <point x="296" y="397" type="curve"/>
      <point x="201" y="397" type="line"/>
      <point x="201" y="586" type="line"/>
    </contour>
  </outline>
</glyph>
<glyph name="J" format="1">
  <advance width="300"/>
  <unicode hex="004A"/>
  <outline>
    <contour>
      <point x="97" y="160" type="line" smooth="yes"/>
      <point x="97" y="97"/>
      <point x="87" y="86"/>
      <point x="17" y="60" type="curve"/>
      <point x="62" y="-22" type="line"/>
      <point x="177" y="14"/>
      <point x="210" y="51"/>
      <point x="210" y="141" type="curve" smooth="yes"/>
      <point x="210" y="680" type="line"/>
      <point x="97" y="680" type="line"/>
    </contour>
  </outline>
</glyph>
<glyph name="L" format="1">
  <advance width="534"/>
  <unicode hex="004C"/>
  <outline>
    <contour>
      <point x="521" y="0" type="line"/>
      <point x="505" y="88" type="line"/>
      <point x="201" y="88" type="line"/>
      <point x="201" y="680" type="line"/>
      <point x="89" y="680" type="line"/>
      <point x="89" y="0" type="line"/>
    </contour>
  </outline>
</glyph>
<glyph name="M" format="1">
  <advance width="770"/>
  <unicode hex="004D"/>
  <outline>
    <contour>
      <point x="377" y="212" type="line"/>
      <point x="420" y="218" type="line"/>
      <point x="568" y="432" type="line"/>
      <point x="568" y="0" type="line"/>
      <point x="682" y="0" type="line"/>
      <point x="682" y="680" type="line"/>
      <point x="612" y="680" type="line"/>
      <point x="394" y="355" type="line"/>
      <point x="159" y="680" type="line"/>
      <point x="89" y="680" type="line"/>
      <point x="89" y="0" type="line"/>
      <point x="201" y="0" type="line"/>
      <point x="201" y="448" type="line"/>
    </contour>
  </outline>
</glyph>
<glyph name="T" format="1">
  <advance width="565"/>
  <unicode hex="0054"/>
  <outline>
    <contour>
      <point x="558" y="591" type="line"/>
      <point x="541" y="680" type="line"/>
      <point x="7" y="680" type="line"/>
      <point x="7" y="591" type="line"/>
      <point x="216" y="591" type="line"/>
      <point x="216" y="0" type="line"/>
      <point x="330" y="0" type="line"/>
      <point x="330" y="591" type="line"/>
    </contour>
  </outline>
</glyph>
<glyph name="Y" format="1">
  <advance width="590"/>
  <unicode hex="0059"/>
  <outline>
    <contour>
      <point x="235" y="0" type="line"/>
      <point x="349" y="0" type="line"/>
      <point x="349" y="266" type="line"/>
      <point x="585" y="680" type="line"/>
      <point x="466" y="680" type="line"/>
      <point x="291" y="381" type="line"/>
      <point x="123" y="680" type="line"/>
      <point x="6" y="664" type="line"/>
      <point x="236" y="268" type="line"/>
    </contour>
  </outline>
</glyph>
<glyph name="underscore" format="1">
  <advance width="413"/>
  <unicode hex="005F"/>
  <outline>
    <contour>
      <point x="397" y="0" type="line"/>
      <point x="388" y="88" type="line"/>
      <point x="16" y="88" type="line"/>
      <point x="26" y="0" type="line"/>
    </contour>
  </outline>
</glyph>
<glyph name="grave" format="1">
  <advance width="209"/>
  <unicode hex="0060"/>
  <outline>
    <contour>
      <point x="16" y="750" type="line"/>
      <point x="108" y="589" type="line"/>
      <point x="194" y="589" type="line"/>
      <point x="134" y="750" type="line"/>
    </contour>
  </outline>
</glyph>
<glyph name="a" format="1">
  <advance width="512"/>
  <unicode hex="0061"/>
  <outline>
    <contour>
      <point x="204" y="498"/>
      <point x="114" y="479"/>
      <point x="76" y="454" type="curve"/>
      <point x="86" y="423"/>
      <point x="96" y="393"/>
      <point x="107" y="362" type="curve"/>
      <point x="143" y="379"/>
      <point x="196" y="395"/>
      <point x="247" y="395" type="curve" smooth="yes"/>
      <point x="310" y="395"/>
      <point x="331" y="352"/>
      <point x="335" y="295" type="curve"/>
      <point x="230" y="295" type="line" smooth="yes"/>
      <point x="122" y="295"/>
      <point x="49" y="241"/>
      <point x="49" y="142" type="curve" smooth="yes"/>
      <point x="49" y="51"/>
      <point x="104" y="-12"/>
      <point x="221" y="-12" type="curve" smooth="yes"/>
      <point x="271" y="-12"/>
      <point x="325" y="14"/>
      <point x="360" y="43" type="curve"/>
      <point x="369" y="29"/>
      <point x="378" y="14"/>
      <point x="388" y="0" type="curve"/>
      <point x="449" y="0" type="line"/>
      <point x="449" y="324" type="line" smooth="yes"/>
      <point x="449" y="426"/>
      <point x="360" y="498"/>
      <point x="245" y="498" type="curve" smooth="yes"/>
    </contour>
    <contour>
      <point x="173" y="77"/>
      <point x="147" y="110"/>
      <point x="147" y="142" type="curve" smooth="yes"/>
      <point x="147" y="183"/>
      <point x="175" y="219"/>
      <point x="228" y="219" type="curve" smooth="yes"/>
      <point x="336" y="219" type="line"/>
      <point x="336" y="133" type="line"/>
      <point x="302" y="99"/>
      <point x="261" y="77"/>
      <point x="219" y="77" type="curve" smooth="yes"/>
    </contour>
  </outline>
</glyph>
<glyph name="f" format="1">
  <advance width="351"/>
  <unicode hex="0066"/>
  <outline>
    <contour>
      <point x="147" y="702"/>
      <point x="84" y="637"/>
      <point x="84" y="531" type="curve"/>
      <point x="84" y="475" type="line"/>
      <point x="10" y="475" type="line"/>
      <point x="10" y="387" type="line"/>
      <point x="84" y="387" type="line"/>
      <point x="84" y="0" type="line"/>
      <point x="197" y="0" type="line"/>
      <point x="197" y="387" type="line"/>
      <point x="324" y="387" type="line"/>
      <point x="288" y="475" type="line"/>
      <point x="197" y="475" type="line"/>
      <point x="197" y="518" type="line"/>
      <point x="197" y="568"/>
      <point x="216" y="604"/>
      <point x="263" y="604" type="curve"/>
      <point x="279" y="604"/>
      <point x="297" y="599"/>
      <point x="314" y="592" type="curve"/>
      <point x="345" y="675" type="line"/>
      <point x="326" y="689"/>
      <point x="285" y="702"/>
      <point x="255" y="702" type="curve"/>
    </contour>
  </outline>
</glyph>
<glyph name="g" format="1">
  <advance width="579"/>
  <unicode hex="0067"/>
  <outline>
    <contour>
      <point x="434" y="-209"/>
      <point x="507" y="-125"/>
      <point x="507" y="-12" type="curve" smooth="yes"/>
      <point x="507" y="485" type="line"/>
      <point x="446" y="485" type="line"/>
      <point x="419" y="443" type="line"/>
      <point x="377" y="479"/>
      <point x="313" y="502"/>
      <point x="266" y="502" type="curve" smooth="yes"/>
      <point x="124" y="502"/>
      <point x="44" y="393"/>
      <point x="44" y="244" type="curve" smooth="yes"/>
      <point x="44" y="97"/>
      <point x="119" y="-12"/>
      <point x="261" y="-12" type="curve" smooth="yes"/>
      <point x="302" y="-12"/>
      <point x="353" y="4"/>
      <point x="393" y="30" type="curve"/>
      <point x="393" y="-11" type="line" smooth="yes"/>
      <point x="393" y="-79"/>
      <point x="348" y="-118"/>
      <point x="269" y="-118" type="curve" smooth="yes"/>
      <point x="215" y="-118"/>
      <point x="180" y="-102"/>
      <point x="126" y="-77" type="curve"/>
      <point x="115" y="-104"/>
      <point x="104" y="-131"/>
      <point x="92" y="-158" type="curve"/>
      <point x="141" y="-191"/>
      <point x="231" y="-209"/>
      <point x="272" y="-209" type="curve" smooth="yes"/>
    </contour>
    <contour>
      <point x="322" y="406"/>
      <point x="360" y="389"/>
      <point x="393" y="365" type="curve"/>
      <point x="393" y="125" type="line"/>
      <point x="360" y="101"/>
      <point x="322" y="84"/>
      <point x="289" y="84" type="curve" smooth="yes"/>
      <point x="188" y="84"/>
      <point x="160" y="157"/>
      <point x="160" y="245" type="curve" smooth="yes"/>
      <point x="160" y="325"/>
      <point x="193" y="406"/>
      <point x="289" y="406" type="curve" smooth="yes"/>
    </contour>
  </outline>
</glyph>
<glyph name="k" format="1">
  <advance width="516"/>
  <unicode hex="006B"/>
  <outline>
    <contour>
      <point x="72" y="0" type="line"/>
      <point x="185" y="0" type="line"/>
      <point x="185" y="166" type="line"/>
      <point x="203" y="184"/>
      <point x="223" y="202"/>
      <point x="242" y="219" type="curve"/>
      <point x="376" y="0" type="line"/>
      <point x="507" y="0" type="line"/>
      <point x="321" y="292" type="line"/>
      <point x="368" y="335"/>
      <point x="415" y="377"/>
      <point x="461" y="420" type="curve"/>
      <point x="397" y="498" type="line"/>
      <point x="185" y="297" type="line"/>
      <point x="185" y="706" type="line"/>
      <point x="72" y="695" type="line"/>
    </contour>
  </outline>
</glyph>
<glyph name="m" format="1">
  <advance width="880"/>
  <unicode hex="006D"/>
  <outline>
    <contour>
      <point x="587" y="502"/>
      <point x="511" y="471"/>
      <point x="470" y="425" type="curve"/>
      <point x="443" y="473"/>
      <point x="394" y="502"/>
      <point x="319" y="502" type="curve"/>
      <point x="269" y="502"/>
      <point x="201" y="477"/>
      <point x="158" y="437" type="curve"/>
      <point x="129" y="485" type="line"/>
      <point x="67" y="485" type="line"/>
      <point x="67" y="0" type="line"/>
      <point x="180" y="0" type="line"/>
      <point x="180" y="358" type="line"/>
      <point x="215" y="387"/>
      <point x="255" y="406"/>
      <point x="292" y="406" type="curve"/>
      <point x="351" y="406"/>
      <point x="381" y="368"/>
      <point x="381" y="305" type="curve"/>
      <point x="381" y="0" type="line"/>
      <point x="495" y="0" type="line"/>
      <point x="495" y="312" type="line"/>
      <point x="495" y="325"/>
      <point x="494" y="338"/>
      <point x="492" y="350" type="curve"/>
      <point x="528" y="382"/>
      <point x="575" y="406"/>
      <point x="614" y="406" type="curve"/>
      <point x="674" y="406"/>
      <point x="704" y="368"/>
      <point x="704" y="305" type="curve"/>
      <point x="704" y="0" type="line"/>
      <point x="818" y="0" type="line"/>
      <point x="818" y="312" type="line"/>
      <point x="818" y="420"/>
      <point x="768" y="502"/>
      <point x="642" y="502" type="curve"/>
    </contour>
  </outline>
</glyph>
<glyph name="q" format="1">
  <advance width="579"/>
  <unicode hex="0071"/>
  <outline>
    <contour>
      <point x="507" y="485" type="line"/>
      <point x="446" y="485" type="line"/>
      <point x="420" y="444" type="line"/>
      <point x="377" y="479"/>
      <point x="314" y="502"/>
      <point x="266" y="502" type="curve"/>
      <point x="125" y="502"/>
      <point x="44" y="393"/>
      <point x="44" y="245" type="curve"/>
      <point x="44" y="97"/>
      <point x="119" y="-12"/>
      <point x="261" y="-12" type="curve"/>
      <point x="302" y="-12"/>
      <point x="353" y="4"/>
      <point x="393" y="30" type="curve"/>
      <point x="393" y="-219" type="line"/>
      <point x="507" y="-209" type="line"/>
    </contour>
    <contour>
      <point x="161" y="325"/>
      <point x="193" y="406"/>
      <point x="289" y="406" type="curve"/>
      <point x="322" y="406"/>
      <point x="361" y="390"/>
      <point x="393" y="365" type="curve"/>
      <point x="393" y="125" type="line"/>
      <point x="361" y="101"/>
      <point x="322" y="84"/>
      <point x="289" y="84" type="curve"/>
      <point x="188" y="84"/>
      <point x="161" y="158"/>
      <point x="161" y="245" type="curve"/>
    </contour>
  </outline>
</glyph>
<glyph name="r" format="1">
  <advance width="349"/>
  <unicode hex="0072"/>
  <outline>
    <contour>
      <point x="67" y="0" type="line"/>
      <point x="180" y="0" type="line"/>
      <point x="180" y="318" type="line"/>
      <point x="232" y="366"/>
      <point x="294" y="394"/>
      <point x="342" y="394" type="curve"/>
      <point x="319" y="485" type="line"/>
      <point x="267" y="485"/>
      <point x="204" y="448"/>
      <point x="165" y="415" type="curve"/>
      <point x="153" y="438"/>
      <point x="140" y="461"/>
      <point x="128" y="485" type="curve"/>
      <point x="67" y="485" type="line"/>
    </contour>
  </outline>
</glyph>
<glyph name="v" format="1">
  <advance width="492"/>
  <unicode hex="0076"/>
  <outline>
    <contour>
      <point x="195" y="0" type="line"/>
      <point x="296" y="0" type="line"/>
      <point x="483" y="485" type="line"/>
      <point x="366" y="485" type="line"/>
      <point x="249" y="163" type="line"/>
      <point x="126" y="485" type="line"/>
      <point x="10" y="469" type="line"/>
    </contour>
  </outline>
</glyph>
<glyph name="w" format="1">
  <advance width="754"/>
  <unicode hex="0077"/>
  <outline>
    <contour>
      <point x="484" y="0" type="line"/>
      <point x="582" y="0" type="line"/>
      <point x="745" y="485" type="line"/>
      <point x="627" y="485" type="line"/>
      <point x="535" y="173" type="line"/>
      <point x="438" y="485" type="line"/>
      <point x="316" y="485" type="line"/>
      <point x="223" y="173" type="line"/>
      <point x="126" y="485" type="line"/>
      <point x="10" y="469" type="line"/>
      <point x="171" y="0" type="line"/>
      <point x="271" y="0" type="line"/>
      <point x="374" y="321" type="line"/>
    </contour>
  </outline>
</glyph>
<glyph name="z" format="1">
  <advance width="455"/>
  <unicode hex="007A"/>
  <outline>
    <contour>
      <point x="424" y="421" type="line"/>
      <point x="418" y="485" type="line"/>
      <point x="39" y="485" type="line"/>
      <point x="61" y="392" type="line"/>
      <point x="271" y="392" type="line"/>
      <point x="22" y="59" type="line"/>
      <point x="37" y="0" type="line"/>
      <point x="430" y="0" type="line"/>
      <point x="420" y="91" type="line"/>
      <point x="172" y="91" type="line"/>
    </contour>
  </outline>
</glyph>
<glyph name="braceleft" format="1">
  <advance width="285"/>
  <unicode hex="007B"/>
  <outline>
    <contour>
      <point x="219" y="453"/>
      <point x="184" y="505"/>
      <point x="184" y="538" type="curve" smooth="yes"/>
      <point x="184" y="550"/>
      <point x="194" y="572"/>
      <point x="230" y="572" type="curve" smooth="yes"/>
      <point x="266" y="572" type="line"/>
      <point x="270" y="601"/>
      <point x="274" y="630"/>
      <point x="277" y="659" type="curve"/>
      <point x="249" y="659" type="line" smooth="yes"/>
      <point x="146" y="659"/>
      <point x="92" y="625"/>
      <point x="92" y="546" type="curve" smooth="yes"/>
      <point x="92" y="515"/>
      <point x="104" y="477"/>
      <point x="112" y="441" type="curve"/>
      <point x="112" y="442" type="line"/>
      <point x="116" y="426"/>
      <point x="118" y="412"/>
      <point x="118" y="400" type="curve" smooth="yes"/>
      <point x="118" y="368"/>
      <point x="100" y="345"/>
      <point x="73" y="345" type="curve" smooth="yes"/>
      <point x="31" y="345" type="line"/>
      <point x="31" y="270" type="line"/>
      <point x="73" y="270" type="line" smooth="yes"/>
      <point x="96" y="270"/>
      <point x="124" y="248"/>
      <point x="124" y="217" type="curve" smooth="yes"/>
      <point x="124" y="182"/>
      <point x="90" y="117"/>
      <point x="90" y="79" type="curve" smooth="yes"/>
      <point x="90" y="-4"/>
      <point x="138" y="-42"/>
      <point x="249" y="-42" type="curve" smooth="yes"/>
      <point x="277" y="-42" type="line"/>
      <point x="274" y="-13"/>
      <point x="270" y="15"/>
      <point x="266" y="44" type="curve"/>
      <point x="230" y="44" type="line" smooth="yes"/>
      <point x="197" y="44"/>
      <point x="184" y="63"/>
      <point x="184" y="79" type="curve" smooth="yes"/>
      <point x="184" y="110"/>
      <point x="219" y="169"/>
      <point x="219" y="206" type="curve" smooth="yes"/>
      <point x="219" y="251"/>
      <point x="205" y="287"/>
      <point x="177" y="309" type="curve"/>
      <point x="208" y="330"/>
      <point x="219" y="362"/>
      <point x="219" y="410" type="curve" smooth="yes"/>
    </contour>
  </outline>
</glyph>
<glyph name="dv_CandrabinduInverted" format="1">
  <advance width="0"/>
  <unicode hex="0090"/>
  <outline>
    <contour>
      <point x="428" y="1009"/>
      <point x="341" y="1044"/>
      <point x="249" y="1044" type="curve" smooth="yes"/>
      <point x="156" y="1044"/>
      <point x="70" y="1009"/>
      <point x="17" y="905" type="curve"/>
      <point x="101" y="851" type="line"/>
      <point x="134" y="920"/>
      <point x="198" y="949"/>
      <point x="249" y="949" type="curve" smooth="yes"/>
      <point x="300" y="949"/>
      <point x="358" y="925"/>
      <point x="397" y="851" type="curve"/>
      <point x="425" y="869"/>
      <point x="454" y="887"/>
      <point x="481" y="905" type="curve"/>
    </contour>
    <contour>
      <point x="178" y="791"/>
      <point x="209" y="758"/>
      <point x="249" y="758" type="curve" smooth="yes"/>
      <point x="289" y="758"/>
      <point x="321" y="791"/>
      <point x="321" y="830" type="curve" smooth="yes"/>
      <point x="321" y="871"/>
      <point x="289" y="902"/>
      <point x="249" y="902" type="curve" smooth="yes"/>
      <point x="209" y="902"/>
      <point x="178" y="871"/>
      <point x="178" y="830" type="curve" smooth="yes"/>
    </contour>
  </outline>
</glyph>
<glyph name="exclamdown" format="1">
  <advance width="244"/>
  <unicode hex="00A1"/>
  <outline>
    <contour>
      <point x="61" y="0" type="line"/>
      <point x="181" y="0" type="line"/>
      <point x="166" y="464" type="line"/>
      <point x="77" y="505" type="line"/>
    </contour>
    <contour>
      <point x="54" y="597"/>
      <point x="84" y="567"/>
      <point x="121" y="567" type="curve" smooth="yes"/>
      <point x="159" y="567"/>
      <point x="188" y="597"/>
      <point x="188" y="635" type="curve" smooth="yes"/>
      <point x="188" y="671"/>
      <point x="159" y="702"/>
      <point x="121" y="702" type="curve" smooth="yes"/>
      <point x="84" y="702"/>
      <point x="54" y="671"/>
      <point x="54" y="635" type="curve" smooth="yes"/>
    </contour>
  </outline>
</glyph>
<glyph name="cent" format="1">
  <advance width="480"/>
  <unicode hex="00A2"/>
  <outline>
    <contour>
      <point x="342" y="609" type="line"/>
      <point x="233" y="609" type="line"/>
      <point x="233" y="492" type="line"/>
      <point x="112" y="472"/>
      <point x="45" y="377"/>
      <point x="44" y="243" type="curve"/>
      <point x="44" y="106"/>
      <point x="112" y="11"/>
      <point x="234" y="-8" type="curve"/>
      <point x="234" y="-106" type="line"/>
      <point x="343" y="-114" type="line"/>
      <point x="343" y="-6" type="line"/>
      <point x="379" y="1"/>
      <point x="417" y="15"/>
      <point x="443" y="35" type="curve"/>
      <point x="411" y="117" type="line"/>
      <point x="367" y="96"/>
      <point x="338" y="84"/>
      <point x="286" y="84" type="curve"/>
      <point x="203" y="84"/>
      <point x="161" y="150"/>
      <point x="161" y="243" type="curve"/>
      <point x="161" y="334"/>
      <point x="205" y="402"/>
      <point x="287" y="402" type="curve"/>
      <point x="339" y="402"/>
      <point x="368" y="388"/>
      <point x="412" y="368" type="curve"/>
      <point x="445" y="449" type="line"/>
      <point x="417" y="469"/>
      <point x="377" y="483"/>
      <point x="342" y="489" type="curve"/>
    </contour>
  </outline>
</glyph>
<glyph name="yen" format="1">
  <advance width="590"/>
  <unicode hex="00A5"/>
  <outline>
    <contour>
      <point x="235" y="0" type="line"/>
      <point x="348" y="0" type="line"/>
      <point x="348" y="69" type="line"/>
      <point x="516" y="69" type="line"/>
      <point x="506" y="153" type="line"/>
      <point x="349" y="153" type="line"/>
      <point x="349" y="228" type="line"/>
      <point x="516" y="228" type="line"/>
      <point x="506" y="312" type="line"/>
      <point x="375" y="312" type="line"/>
      <point x="585" y="680" type="line"/>
      <point x="466" y="680" type="line"/>
      <point x="291" y="381" type="line"/>
      <point x="122" y="680" type="line"/>
      <point x="83" y="674"/>
      <point x="45" y="670"/>
      <point x="6" y="664" type="curve"/>
      <point x="210" y="312" type="line"/>
      <point x="64" y="312" type="line"/>
      <point x="67" y="284"/>
      <point x="70" y="256"/>
      <point x="74" y="228" type="curve"/>
      <point x="235" y="228" type="line"/>
      <point x="235" y="153" type="line"/>
      <point x="64" y="153" type="line"/>
      <point x="67" y="125"/>
      <point x="70" y="97"/>
      <point x="74" y="69" type="curve"/>
      <point x="235" y="69" type="line"/>
    </contour>
  </outline>
</glyph>
<glyph name="brokenbar" format="1">
  <advance width="267"/>
  <unicode hex="00A6"/>
  <outline>
    <contour>
      <point x="190" y="288" type="line"/>
      <point x="78" y="296" type="line"/>
      <point x="78" y="0" type="line"/>
      <point x="190" y="-9" type="line"/>
    </contour>
    <contour>
      <point x="190" y="704" type="line"/>
      <point x="78" y="712" type="line"/>
      <point x="78" y="415" type="line"/>
      <point x="190" y="406" type="line"/>
    </contour>
  </outline>
</glyph>
<glyph name="ordfeminine" format="1">
  <advance width="341"/>
  <unicode hex="00AA"/>
  <outline>
    <contour>
      <point x="128" y="702"/>
      <point x="68" y="689"/>
      <point x="44" y="673" type="curve"/>
      <point x="51" y="649"/>
      <point x="57" y="624"/>
      <point x="64" y="601" type="curve"/>
      <point x="88" y="611"/>
      <point x="124" y="622"/>
      <point x="158" y="622" type="curve" smooth="yes"/>
      <point x="188" y="622"/>
      <point x="211" y="605"/>
      <point x="211" y="571" type="curve"/>
      <point x="148" y="571" type="line" smooth="yes"/>
      <point x="76" y="571"/>
      <point x="26" y="533"/>
      <point x="26" y="467" type="curve" smooth="yes"/>
      <point x="26" y="407"/>
      <point x="66" y="363"/>
      <point x="142" y="363" type="curve" smooth="yes"/>
      <point x="175" y="363"/>
      <point x="209" y="381"/>
      <point x="231" y="399" type="curve"/>
      <point x="252" y="371" type="line"/>
      <point x="299" y="371" type="line"/>
      <point x="299" y="582" type="line" smooth="yes"/>
      <point x="299" y="649"/>
      <point x="236" y="702"/>
      <point x="157" y="702" type="curve" smooth="yes"/>
    </contour>
    <contour>
      <point x="122" y="442"/>
      <point x="112" y="456"/>
      <point x="112" y="472" type="curve" smooth="yes"/>
      <point x="112" y="493"/>
      <point x="130" y="503"/>
      <point x="162" y="503" type="curve" smooth="yes"/>
      <point x="213" y="503" type="line"/>
      <point x="213" y="469" type="line"/>
      <point x="194" y="452"/>
      <point x="170" y="442"/>
      <point x="145" y="442" type="curve" smooth="yes"/>
    </contour>
  </outline>
</glyph>
<glyph name="guillemotleft" format="1">
  <advance width="377"/>
  <unicode hex="00AB"/>
  <outline>
    <contour>
      <point x="23" y="268" type="line"/>
      <point x="23" y="221" type="line"/>
      <point x="178" y="83" type="line"/>
      <point x="201" y="158" type="line"/>
      <point x="170" y="186"/>
      <point x="139" y="216"/>
      <point x="109" y="245" type="curve"/>
      <point x="201" y="332" type="line"/>
      <point x="178" y="407" type="line"/>
    </contour>
    <contour>
      <point x="188" y="221" type="line"/>
      <point x="240" y="175"/>
      <point x="291" y="129"/>
      <point x="344" y="83" type="curve"/>
      <point x="365" y="158" type="line"/>
      <point x="334" y="186"/>
      <point x="304" y="216"/>
      <point x="273" y="245" type="curve"/>
      <point x="304" y="273"/>
      <point x="334" y="303"/>
      <point x="365" y="332" type="curve"/>
      <point x="344" y="407" type="line"/>
      <point x="291" y="361"/>
      <point x="240" y="314"/>
      <point x="188" y="268" type="curve"/>
    </contour>
  </outline>
</glyph>
<glyph name="registered" format="1">
  <advance width="743"/>
  <unicode hex="00AE"/>
  <outline>
    <contour>
      <point x="579" y="156"/>
      <point x="707" y="301"/>
      <point x="707" y="487" type="curve" smooth="yes"/>
      <point x="707" y="674"/>
      <point x="579" y="820"/>
      <point x="371" y="820" type="curve" smooth="yes"/>
      <point x="164" y="820"/>
      <point x="36" y="674"/>
      <point x="36" y="487" type="curve" smooth="yes"/>
      <point x="36" y="301"/>
      <point x="164" y="156"/>
      <point x="371" y="156" type="curve" smooth="yes"/>
    </contour>
    <contour>
      <point x="205" y="223"/>
      <point x="108" y="335"/>
      <point x="108" y="488" type="curve" smooth="yes"/>
      <point x="108" y="643"/>
      <point x="205" y="755"/>
      <point x="371" y="755" type="curve" smooth="yes"/>
      <point x="536" y="755"/>
      <point x="635" y="643"/>
      <point x="635" y="488" type="curve" smooth="yes"/>
      <point x="635" y="335"/>
      <point x="536" y="223"/>
      <point x="371" y="221" type="curve"/>
    </contour>
    <contour>
      <point x="540" y="304" type="line"/>
      <point x="513" y="358"/>
      <point x="484" y="412"/>
      <point x="456" y="467" type="curve"/>
      <point x="492" y="485"/>
      <point x="521" y="518"/>
      <point x="521" y="567" type="curve" smooth="yes"/>
      <point x="521" y="646"/>
      <point x="458" y="680"/>
      <point x="377" y="680" type="curve" smooth="yes"/>
      <point x="240" y="680" type="line"/>
      <point x="240" y="304" type="line"/>
      <point x="321" y="304" type="line"/>
      <point x="321" y="450" type="line"/>
      <point x="352" y="450" type="line" smooth="yes"/>
      <point x="361" y="450"/>
      <point x="370" y="451"/>
      <point x="380" y="451" type="curve"/>
      <point x="403" y="401"/>
      <point x="425" y="353"/>
      <point x="449" y="304" type="curve"/>
    </contour>
    <contour>
      <point x="355" y="613" type="line" smooth="yes"/>
      <point x="405" y="613"/>
      <point x="436" y="608"/>
      <point x="436" y="564" type="curve" smooth="yes"/>
      <point x="436" y="524"/>
      <point x="402" y="516"/>
      <point x="355" y="516" type="curve" smooth="yes"/>
      <point x="321" y="516" type="line"/>
      <point x="321" y="613" type="line"/>
    </contour>
  </outline>
</glyph>
<glyph name="degree" format="1">
  <advance width="249"/>
  <unicode hex="00B0"/>
  <outline>
    <contour>
      <point x="241" y="669"/>
      <point x="187" y="718"/>
      <point x="125" y="718" type="curve"/>
      <point x="61" y="718"/>
      <point x="8" y="669"/>
      <point x="8" y="607" type="curve"/>
      <point x="8" y="543"/>
      <point x="61" y="497"/>
      <point x="125" y="497" type="curve"/>
      <point x="187" y="497"/>
      <point x="241" y="543"/>
      <point x="241" y="607" type="curve"/>
    </contour>
    <contour>
      <point x="150" y="651"/>
      <point x="170" y="630"/>
      <point x="170" y="605" type="curve"/>
      <point x="170" y="581"/>
      <point x="150" y="560"/>
      <point x="125" y="560" type="curve"/>
      <point x="100" y="560"/>
      <point x="81" y="583"/>
      <point x="81" y="607" type="curve"/>
      <point x="81" y="630"/>
      <point x="100" y="651"/>
      <point x="125" y="651" type="curve"/>
    </contour>
  </outline>
</glyph>
<glyph name="paragraph" format="1">
  <advance width="907"/>
  <unicode hex="00B6"/>
  <outline>
    <contour>
      <point x="344" y="0" type="line"/>
      <point x="458" y="0" type="line"/>
      <point x="458" y="591" type="line"/>
      <point x="666" y="591" type="line"/>
      <point x="666" y="0" type="line"/>
      <point x="780" y="0" type="line"/>
      <point x="780" y="591" type="line"/>
      <point x="875" y="591" type="line"/>
      <point x="875" y="680" type="line"/>
      <point x="306" y="680" type="line" smooth="yes"/>
      <point x="160" y="680"/>
      <point x="44" y="620"/>
      <point x="44" y="465" type="curve" smooth="yes"/>
      <point x="44" y="311"/>
      <point x="173" y="243"/>
      <point x="317" y="243" type="curve" smooth="yes"/>
      <point x="344" y="243" type="line"/>
    </contour>
  </outline>
</glyph>
<glyph name="cedilla" format="1">
  <advance width="244"/>
  <unicode hex="00B8"/>
  <outline>
    <contour>
      <point x="93" y="13" type="line"/>
      <point x="57" y="-77" type="line"/>
      <point x="109" y="-82"/>
      <point x="146" y="-102"/>
      <point x="146" y="-124" type="curve"/>
      <point x="146" y="-141"/>
      <point x="125" y="-146"/>
      <point x="106" y="-146" type="curve"/>
      <point x="88" y="-146"/>
      <point x="59" y="-136"/>
      <point x="42" y="-128" type="curve"/>
      <point x="16" y="-195" type="line"/>
      <point x="37" y="-211"/>
      <point x="80" y="-221"/>
      <point x="106" y="-221" type="curve"/>
      <point x="169" y="-221"/>
      <point x="228" y="-190"/>
      <point x="228" y="-122" type="curve"/>
      <point x="228" y="-87"/>
      <point x="197" y="-49"/>
      <point x="156" y="-35" type="curve"/>
      <point x="176" y="13" type="line"/>
    </contour>
  </outline>
</glyph>
<glyph name="onesuperior" format="1">
  <advance width="372"/>
  <unicode hex="00B9"/>
  <outline>
    <contour>
      <point x="320" y="336" type="line"/>
      <point x="311" y="414" type="line"/>
      <point x="248" y="414" type="line"/>
      <point x="248" y="763" type="line"/>
      <point x="181" y="763" type="line"/>
      <point x="142" y="740"/>
      <point x="102" y="718"/>
      <point x="62" y="695" type="curve"/>
      <point x="102" y="624" type="line"/>
      <point x="146" y="649" type="line"/>
      <point x="146" y="414" type="line"/>
      <point x="64" y="414" type="line"/>
      <point x="72" y="336" type="line"/>
    </contour>
  </outline>
</glyph>
<glyph name="guillemotright" format="1">
  <advance width="377"/>
  <unicode hex="00BB"/>
  <outline>
    <contour>
      <point x="198" y="407" type="line"/>
      <point x="175" y="332" type="line"/>
      <point x="268" y="245" type="line"/>
      <point x="175" y="158" type="line"/>
      <point x="198" y="83" type="line"/>
      <point x="353" y="221" type="line"/>
      <point x="353" y="268" type="line"/>
    </contour>
    <contour>
      <point x="33" y="407" type="line"/>
      <point x="10" y="332" type="line"/>
      <point x="102" y="245" type="line"/>
      <point x="10" y="158" type="line"/>
      <point x="33" y="83" type="line"/>
      <point x="187" y="221" type="line"/>
      <point x="187" y="268" type="line"/>
    </contour>
  </outline>
</glyph>
<glyph name="onequarter" format="1">
  <advance width="880"/>
  <unicode hex="00BC"/>
  <outline>
    <contour>
      <point x="839" y="-79" type="line"/>
      <point x="848" y="3" type="line"/>
      <point x="761" y="3" type="line"/>
      <point x="761" y="321" type="line"/>
      <point x="690" y="321" type="line"/>
      <point x="616" y="223"/>
      <point x="537" y="127"/>
      <point x="462" y="29" type="curve" smooth="yes"/>
      <point x="442" y="3" type="line"/>
      <point x="443" y="-12"/>
      <point x="446" y="-29"/>
      <point x="448" y="-45" type="curve" smooth="yes"/>
      <point x="452" y="-79" type="line"/>
      <point x="659" y="-79" type="line"/>
      <point x="659" y="-164" type="line"/>
      <point x="761" y="-164" type="line"/>
      <point x="761" y="-79" type="line"/>
    </contour>
    <contour>
      <point x="320" y="336" type="line"/>
      <point x="311" y="414" type="line"/>
      <point x="248" y="414" type="line"/>
      <point x="248" y="763" type="line"/>
      <point x="181" y="763" type="line"/>
      <point x="142" y="740"/>
      <point x="102" y="718"/>
      <point x="62" y="695" type="curve"/>
      <point x="102" y="624" type="line"/>
      <point x="146" y="649" type="line"/>
      <point x="146" y="414" type="line"/>
      <point x="64" y="414" type="line"/>
      <point x="72" y="336" type="line"/>
    </contour>
    <contour>
      <point x="614" y="498" type="line"/>
      <point x="494" y="501" type="line"/>
      <point x="208" y="0" type="line"/>
      <point x="327" y="-4" type="line"/>
    </contour>
    <contour>
      <point x="547" y="3" type="line"/>
      <point x="659" y="146" type="line"/>
      <point x="659" y="3" type="line"/>
    </contour>
  </outline>
</glyph>
<glyph name="onehalf" format="1">
  <advance width="921"/>
  <unicode hex="00BD"/>
  <outline>
    <contour>
      <point x="862" y="254"/>
      <point x="815" y="324"/>
      <point x="702" y="324" type="curve" smooth="yes"/>
      <point x="632" y="324"/>
      <point x="586" y="291"/>
      <point x="565" y="276" type="curve"/>
      <point x="603" y="202" type="line"/>
      <point x="605" y="204"/>
      <point x="656" y="242"/>
      <point x="697" y="242" type="curve" smooth="yes"/>
      <point x="738" y="242"/>
      <point x="759" y="215"/>
      <point x="759" y="192" type="curve" smooth="yes"/>
      <point x="759" y="150"/>
      <point x="739" y="118"/>
      <point x="695" y="81" type="curve" smooth="yes"/>
      <point x="553" y="-37" type="line"/>
      <point x="553" y="-110" type="line"/>
      <point x="875" y="-110" type="line"/>
      <point x="863" y="-31" type="line"/>
      <point x="688" y="-31" type="line"/>
      <point x="809" y="69"/>
      <point x="862" y="114"/>
      <point x="862" y="192" type="curve" smooth="yes"/>
    </contour>
    <contour>
      <point x="492" y="501" type="line"/>
      <point x="205" y="0" type="line"/>
      <point x="324" y="-4" type="line"/>
      <point x="420" y="163"/>
      <point x="515" y="331"/>
      <point x="612" y="498" type="curve"/>
    </contour>
    <contour>
      <point x="320" y="336" type="line"/>
      <point x="311" y="414" type="line"/>
      <point x="248" y="414" type="line"/>
      <point x="248" y="763" type="line"/>
      <point x="181" y="763" type="line"/>
      <point x="142" y="740"/>
      <point x="102" y="718"/>
      <point x="62" y="695" type="curve"/>
      <point x="102" y="624" type="line"/>
      <point x="146" y="649" type="line"/>
      <point x="146" y="414" type="line"/>
      <point x="64" y="414" type="line"/>
      <point x="72" y="336" type="line"/>
    </contour>
  </outline>
</glyph>
<glyph name="threequarters" format="1">
  <advance width="900"/>
  <unicode hex="00BE"/>
  <outline>
    <contour>
      <point x="860" y="-79" type="line"/>
      <point x="869" y="3" type="line"/>
      <point x="782" y="3" type="line"/>
      <point x="782" y="321" type="line"/>
      <point x="711" y="321" type="line"/>
      <point x="483" y="29" type="line"/>
      <point x="461" y="3" type="line"/>
      <point x="462" y="-5"/>
      <point x="464" y="-12"/>
      <point x="464" y="-21" type="curve"/>
      <point x="473" y="-79" type="line"/>
      <point x="679" y="-79" type="line"/>
      <point x="679" y="-164" type="line"/>
      <point x="782" y="-164" type="line"/>
      <point x="782" y="-79" type="line"/>
    </contour>
    <contour>
      <point x="349" y="711"/>
      <point x="298" y="771"/>
      <point x="192" y="771" type="curve" smooth="yes"/>
      <point x="131" y="771"/>
      <point x="83" y="749"/>
      <point x="37" y="719" type="curve"/>
      <point x="77" y="649" type="line"/>
      <point x="102" y="668"/>
      <point x="132" y="687"/>
      <point x="179" y="687" type="curve" smooth="yes"/>
      <point x="229" y="687"/>
      <point x="245" y="659"/>
      <point x="245" y="641" type="curve" smooth="yes"/>
      <point x="245" y="613"/>
      <point x="232" y="577"/>
      <point x="161" y="577" type="curve" smooth="yes"/>
      <point x="118" y="577" type="line"/>
      <point x="121" y="551"/>
      <point x="126" y="525"/>
      <point x="129" y="498" type="curve"/>
      <point x="156" y="498" type="line" smooth="yes"/>
      <point x="223" y="498"/>
      <point x="253" y="472"/>
      <point x="253" y="423" type="curve" smooth="yes"/>
      <point x="253" y="385"/>
      <point x="220" y="361"/>
      <point x="172" y="361" type="curve" smooth="yes"/>
      <point x="130" y="361"/>
      <point x="105" y="372"/>
      <point x="67" y="395" type="curve"/>
      <point x="23" y="324" type="line"/>
      <point x="66" y="302"/>
      <point x="126" y="278"/>
      <point x="182" y="278" type="curve" smooth="yes"/>
      <point x="289" y="278"/>
      <point x="357" y="342"/>
      <point x="357" y="424" type="curve" smooth="yes"/>
      <point x="357" y="486"/>
      <point x="317" y="531"/>
      <point x="281" y="539" type="curve"/>
      <point x="315" y="552"/>
      <point x="349" y="593"/>
      <point x="349" y="642" type="curve" smooth="yes"/>
    </contour>
    <contour>
      <point x="635" y="498" type="line"/>
      <point x="515" y="501" type="line"/>
      <point x="227" y="0" type="line"/>
      <point x="348" y="-4" type="line"/>
    </contour>
    <contour>
      <point x="566" y="3" type="line"/>
      <point x="604" y="51"/>
      <point x="642" y="98"/>
      <point x="679" y="146" type="curve"/>
      <point x="679" y="3" type="line"/>
    </contour>
  </outline>
</glyph>
<glyph name="questiondown" format="1">
  <advance width="446"/>
  <unicode hex="00BF"/>
  <outline>
    <contour>
      <point x="39" y="24"/>
      <point x="102" y="-48"/>
      <point x="235" y="-48" type="curve"/>
      <point x="311" y="-48"/>
      <point x="367" y="-29"/>
      <point x="426" y="9" type="curve"/>
      <point x="411" y="111" type="line"/>
      <point x="348" y="65"/>
      <point x="289" y="47"/>
      <point x="239" y="47" type="curve"/>
      <point x="182" y="47"/>
      <point x="144" y="75"/>
      <point x="144" y="128" type="curve"/>
      <point x="144" y="189"/>
      <point x="213" y="244"/>
      <point x="311" y="276" type="curve"/>
      <point x="303" y="451" type="line"/>
      <point x="222" y="484" type="line"/>
      <point x="208" y="334" type="line"/>
      <point x="110" y="284"/>
      <point x="39" y="202"/>
      <point x="39" y="127" type="curve"/>
    </contour>
    <contour>
      <point x="201" y="549"/>
      <point x="231" y="519"/>
      <point x="268" y="519" type="curve"/>
      <point x="306" y="519"/>
      <point x="335" y="549"/>
      <point x="335" y="587" type="curve"/>
      <point x="335" y="623"/>
      <point x="306" y="653"/>
      <point x="268" y="653" type="curve"/>
      <point x="231" y="653"/>
      <point x="201" y="623"/>
      <point x="201" y="587" type="curve"/>
    </contour>
  </outline>
</glyph>
<glyph name="Acircumflex" format="1">
  <advance width="634"/>
  <unicode hex="00C2"/>
  <outline>
    <contour>
      <point x="365" y="680" type="line"/>
      <point x="266" y="680" type="line"/>
      <point x="6" y="0" type="line"/>
      <point x="118" y="0" type="line"/>
      <point x="182" y="171" type="line"/>
      <point x="450" y="171" type="line"/>
      <point x="515" y="0" type="line"/>
      <point x="628" y="16" type="line"/>
    </contour>
    <contour>
      <point x="314" y="526" type="line"/>
      <point x="415" y="262" type="line"/>
      <point x="215" y="262" type="line"/>
    </contour>
    <contour>
      <point x="244" y="739" type="line"/>
      <point x="313" y="815" type="line"/>
      <point x="381" y="739" type="line"/>
      <point x="486" y="739" type="line"/>
      <point x="345" y="900" type="line"/>
      <point x="277" y="900" type="line"/>
      <point x="137" y="739" type="line"/>
    </contour>
  </outline>
</glyph>
<glyph name="Atilde" format="1">
  <advance width="634"/>
  <unicode hex="00C3"/>
  <outline>
    <contour>
      <point x="365" y="680" type="line"/>
      <point x="266" y="680" type="line"/>
      <point x="180" y="453"/>
      <point x="92" y="227"/>
      <point x="6" y="0" type="curve"/>
      <point x="118" y="0" type="line"/>
      <point x="139" y="56"/>
      <point x="160" y="114"/>
      <point x="182" y="171" type="curve"/>
      <point x="449" y="171" type="line"/>
      <point x="515" y="0" type="line"/>
      <point x="552" y="5"/>
      <point x="591" y="10"/>
      <point x="628" y="16" type="curve"/>
    </contour>
    <contour>
      <point x="415" y="262" type="line"/>
      <point x="214" y="262" type="line"/>
      <point x="248" y="350"/>
      <point x="280" y="438"/>
      <point x="313" y="526" type="curve"/>
    </contour>
    <contour>
      <point x="394" y="861" type="line"/>
      <point x="394" y="843"/>
      <point x="381" y="827"/>
      <point x="365" y="827" type="curve" smooth="yes"/>
      <point x="328" y="827"/>
      <point x="303" y="865"/>
      <point x="252" y="865" type="curve" smooth="yes"/>
      <point x="200" y="865"/>
      <point x="151" y="838"/>
      <point x="151" y="753" type="curve"/>
      <point x="227" y="753" type="line"/>
      <point x="228" y="769"/>
      <point x="242" y="787"/>
      <point x="258" y="787" type="curve" smooth="yes"/>
      <point x="293" y="787"/>
      <point x="317" y="748"/>
      <point x="365" y="748" type="curve" smooth="yes"/>
      <point x="418" y="748"/>
      <point x="467" y="776"/>
      <point x="467" y="861" type="curve"/>
    </contour>
  </outline>
</glyph>
<glyph name="Egrave" format="1">
  <advance width="566"/>
  <unicode hex="00C8"/>
  <outline>
    <contour>
      <point x="89" y="0" type="line"/>
      <point x="543" y="0" type="line"/>
      <point x="537" y="29"/>
      <point x="531" y="58"/>
      <point x="526" y="88" type="curve"/>
      <point x="201" y="88" type="line"/>
      <point x="201" y="300" type="line"/>
      <point x="405" y="300" type="line"/>
      <point x="399" y="329"/>
      <point x="393" y="359"/>
      <point x="388" y="389" type="curve"/>
      <point x="201" y="389" type="line"/>
      <point x="201" y="592" type="line"/>
      <point x="500" y="592" type="line"/>
      <point x="483" y="680" type="line"/>
      <point x="89" y="680" type="line"/>
    </contour>
    <contour>
      <point x="188" y="900" type="line"/>
      <point x="281" y="739" type="line"/>
      <point x="367" y="739" type="line"/>
      <point x="307" y="900" type="line"/>
    </contour>
  </outline>
</glyph>
<glyph name="Ecircumflex" format="1">
  <advance width="566"/>
  <unicode hex="00CA"/>
  <outline>
    <contour>
      <point x="89" y="0" type="line"/>
      <point x="543" y="0" type="line"/>
      <point x="537" y="29"/>
      <point x="531" y="58"/>
      <point x="526" y="88" type="curve"/>
      <point x="201" y="88" type="line"/>
      <point x="201" y="300" type="line"/>
      <point x="405" y="300" type="line"/>
      <point x="399" y="329"/>
      <point x="393" y="359"/>
      <point x="388" y="389" type="curve"/>
      <point x="201" y="389" type="line"/>
      <point x="201" y="592" type="line"/>
      <point x="500" y="592" type="line"/>
      <point x="483" y="680" type="line"/>
      <point x="89" y="680" type="line"/>
    </contour>
    <contour>
      <point x="221" y="739" type="line"/>
      <point x="290" y="815" type="line"/>
      <point x="358" y="739" type="line"/>
      <point x="463" y="739" type="line"/>
      <point x="322" y="900" type="line"/>
      <point x="254" y="900" type="line"/>
      <point x="114" y="739" type="line"/>
    </contour>
  </outline>
</glyph>
<glyph name="Iacute" format="1">
  <advance width="291"/>
  <unicode hex="00CD"/>
  <outline>
    <contour>
      <point x="89" y="0" type="line"/>
      <point x="201" y="0" type="line"/>
      <point x="201" y="680" type="line"/>
      <point x="89" y="680" type="line"/>
    </contour>
    <contour>
      <point x="134" y="900" type="line"/>
      <point x="74" y="739" type="line"/>
      <point x="159" y="739" type="line"/>
      <point x="191" y="793"/>
      <point x="221" y="846"/>
      <point x="252" y="900" type="curve"/>
    </contour>
  </outline>
</glyph>
<glyph name="Ntilde" format="1">
  <advance width="732"/>
  <unicode hex="00D1"/>
  <outline>
    <contour>
      <point x="89" y="0" type="line"/>
      <point x="201" y="0" type="line"/>
      <point x="201" y="481" type="line"/>
      <point x="252" y="405" type="line"/>
      <point x="535" y="0" type="line"/>
      <point x="643" y="0" type="line"/>
      <point x="643" y="680" type="line"/>
      <point x="530" y="680" type="line"/>
      <point x="530" y="201" type="line"/>
      <point x="511" y="229"/>
      <point x="493" y="257"/>
      <point x="474" y="284" type="curve" smooth="yes"/>
      <point x="196" y="680" type="line"/>
      <point x="89" y="680" type="line"/>
    </contour>
    <contour>
      <point x="457" y="861" type="line"/>
      <point x="456" y="843"/>
      <point x="443" y="827"/>
      <point x="427" y="827" type="curve" smooth="yes"/>
      <point x="391" y="827"/>
      <point x="366" y="865"/>
      <point x="315" y="865" type="curve" smooth="yes"/>
      <point x="262" y="865"/>
      <point x="214" y="838"/>
      <point x="214" y="753" type="curve"/>
      <point x="290" y="753" type="line"/>
      <point x="290" y="769"/>
      <point x="304" y="787"/>
      <point x="320" y="787" type="curve" smooth="yes"/>
      <point x="356" y="787"/>
      <point x="380" y="748"/>
      <point x="428" y="748" type="curve" smooth="yes"/>
      <point x="481" y="748"/>
      <point x="529" y="776"/>
      <point x="529" y="861" type="curve"/>
    </contour>
  </outline>
</glyph>
<glyph name="Ocircumflex" format="1">
  <advance width="740"/>
  <unicode hex="00D4"/>
  <outline>
    <contour>
      <point x="172" y="692"/>
      <point x="61" y="545"/>
      <point x="61" y="337" type="curve"/>
      <point x="61" y="144"/>
      <point x="157" y="-14"/>
      <point x="369" y="-14" type="curve"/>
      <point x="568" y="-10"/>
      <point x="679" y="138"/>
      <point x="679" y="344" type="curve"/>
      <point x="679" y="538"/>
      <point x="583" y="696"/>
      <point x="370" y="696" type="curve"/>
    </contour>
    <contour>
      <point x="237" y="81"/>
      <point x="179" y="190"/>
      <point x="179" y="338" type="curve"/>
      <point x="179" y="497"/>
      <point x="256" y="599"/>
      <point x="372" y="599" type="curve"/>
      <point x="503" y="599"/>
      <point x="561" y="491"/>
      <point x="561" y="344" type="curve"/>
      <point x="561" y="172"/>
      <point x="486" y="81"/>
      <point x="367" y="81" type="curve"/>
    </contour>
    <contour>
      <point x="301" y="739" type="line"/>
      <point x="370" y="815" type="line"/>
      <point x="438" y="739" type="line"/>
      <point x="543" y="739" type="line"/>
      <point x="402" y="900" type="line"/>
      <point x="334" y="900" type="line"/>
      <point x="194" y="739" type="line"/>
    </contour>
  </outline>
</glyph>
<glyph name="Otilde" format="1">
  <advance width="740"/>
  <unicode hex="00D5"/>
  <outline>
    <contour>
      <point x="679" y="537"/>
      <point x="583" y="696"/>
      <point x="370" y="696" type="curve"/>
      <point x="171" y="692"/>
      <point x="61" y="545"/>
      <point x="61" y="337" type="curve" smooth="yes"/>
      <point x="61" y="143"/>
      <point x="156" y="-14"/>
      <point x="368" y="-14" type="curve"/>
      <point x="568" y="-10"/>
      <point x="679" y="138"/>
      <point x="679" y="344" type="curve" smooth="yes"/>
    </contour>
    <contour>
      <point x="237" y="81"/>
      <point x="178" y="190"/>
      <point x="178" y="338" type="curve" smooth="yes"/>
      <point x="178" y="496"/>
      <point x="256" y="599"/>
      <point x="372" y="599" type="curve" smooth="yes"/>
      <point x="502" y="599"/>
      <point x="560" y="491"/>
      <point x="560" y="344" type="curve" smooth="yes"/>
      <point x="560" y="172"/>
      <point x="486" y="81"/>
      <point x="367" y="81" type="curve" smooth="yes"/>
    </contour>
    <contour>
      <point x="452" y="861" type="line"/>
      <point x="451" y="843"/>
      <point x="438" y="827"/>
      <point x="422" y="827" type="curve" smooth="yes"/>
      <point x="385" y="827"/>
      <point x="360" y="865"/>
      <point x="310" y="865" type="curve" smooth="yes"/>
      <point x="257" y="865"/>
      <point x="209" y="838"/>
      <point x="209" y="753" type="curve"/>
      <point x="284" y="753" type="line"/>
      <point x="285" y="769"/>
      <point x="299" y="787"/>
      <point x="315" y="787" type="curve" smooth="yes"/>
      <point x="351" y="787"/>
      <point x="374" y="748"/>
      <point x="423" y="748" type="curve" smooth="yes"/>
      <point x="475" y="748"/>
      <point x="524" y="776"/>
      <point x="524" y="861" type="curve"/>
    </contour>
  </outline>
</glyph>
<glyph name="multiply" format="1">
  <advance width="530"/>
  <unicode hex="00D7"/>
  <outline>
    <contour>
      <point x="21" y="44" type="line"/>
      <point x="124" y="26" type="line"/>
      <point x="167" y="77"/>
      <point x="210" y="129"/>
      <point x="253" y="182" type="curve"/>
      <point x="294" y="132"/>
      <point x="337" y="80"/>
      <point x="378" y="29" type="curve"/>
      <point x="493" y="29" type="line"/>
      <point x="388" y="160" type="line" smooth="yes"/>
      <point x="364" y="189"/>
      <point x="341" y="219"/>
      <point x="319" y="248" type="curve"/>
      <point x="509" y="479" type="line"/>
      <point x="393" y="479" type="line"/>
      <point x="350" y="426"/>
      <point x="305" y="374"/>
      <point x="262" y="321" type="curve"/>
      <point x="134" y="480" type="line"/>
      <point x="28" y="464" type="line"/>
      <point x="195" y="256" type="line"/>
    </contour>
  </outline>
</glyph>
<glyph name="Oslash" format="1">
  <advance width="740"/>
  <unicode hex="00D8"/>
  <outline>
    <contour>
      <point x="172" y="692"/>
      <point x="61" y="545"/>
      <point x="61" y="337" type="curve"/>
      <point x="61" y="144"/>
      <point x="157" y="-14"/>
      <point x="369" y="-14" type="curve"/>
      <point x="568" y="-10"/>
      <point x="679" y="138"/>
      <point x="679" y="344" type="curve"/>
      <point x="679" y="538"/>
      <point x="583" y="696"/>
      <point x="370" y="696" type="curve"/>
    </contour>
    <contour>
      <point x="179" y="497"/>
      <point x="256" y="599"/>
      <point x="372" y="599" type="curve"/>
      <point x="389" y="599"/>
      <point x="404" y="597"/>
      <point x="419" y="593" type="curve"/>
      <point x="231" y="147" type="line"/>
      <point x="196" y="192"/>
      <point x="179" y="260"/>
      <point x="179" y="338" type="curve"/>
    </contour>
    <contour>
      <point x="351" y="81"/>
      <point x="336" y="84"/>
      <point x="323" y="88" type="curve"/>
      <point x="511" y="529" type="line"/>
      <point x="544" y="484"/>
      <point x="561" y="419"/>
      <point x="561" y="344" type="curve"/>
      <point x="561" y="172"/>
      <point x="486" y="81"/>
      <point x="367" y="81" type="curve"/>
    </contour>
  </outline>
</glyph>
<glyph name="Uacute" format="1">
  <advance width="706"/>
  <unicode hex="00DA"/>
  <outline>
    <contour>
      <point x="258" y="81"/>
      <point x="195" y="140"/>
      <point x="195" y="254" type="curve" smooth="yes"/>
      <point x="195" y="680" type="line"/>
      <point x="82" y="680" type="line"/>
      <point x="82" y="245" type="line" smooth="yes"/>
      <point x="82" y="97"/>
      <point x="185" y="-11"/>
      <point x="352" y="-11" type="curve" smooth="yes"/>
      <point x="519" y="-11"/>
      <point x="623" y="98"/>
      <point x="623" y="245" type="curve" smooth="yes"/>
      <point x="623" y="680" type="line"/>
      <point x="509" y="680" type="line"/>
      <point x="509" y="254" type="line" smooth="yes"/>
      <point x="509" y="143"/>
      <point x="449" y="81"/>
      <point x="352" y="81" type="curve" smooth="yes"/>
    </contour>
    <contour>
      <point x="327" y="900" type="line"/>
      <point x="267" y="739" type="line"/>
      <point x="353" y="739" type="line"/>
      <point x="445" y="900" type="line"/>
    </contour>
  </outline>
</glyph>
<glyph name="Ucircumflex" format="1">
  <advance width="706"/>
  <unicode hex="00DB"/>
  <outline>
    <contour>
      <point x="258" y="81"/>
      <point x="195" y="140"/>
      <point x="195" y="254" type="curve" smooth="yes"/>
      <point x="195" y="680" type="line"/>
      <point x="82" y="680" type="line"/>
      <point x="82" y="245" type="line" smooth="yes"/>
      <point x="82" y="97"/>
      <point x="185" y="-11"/>
      <point x="352" y="-11" type="curve" smooth="yes"/>
      <point x="519" y="-11"/>
      <point x="623" y="98"/>
      <point x="623" y="245" type="curve" smooth="yes"/>
      <point x="623" y="680" type="line"/>
      <point x="509" y="680" type="line"/>
      <point x="509" y="254" type="line" smooth="yes"/>
      <point x="509" y="143"/>
      <point x="449" y="81"/>
      <point x="352" y="81" type="curve" smooth="yes"/>
    </contour>
    <contour>
      <point x="285" y="739" type="line"/>
      <point x="308" y="764"/>
      <point x="332" y="789"/>
      <point x="354" y="815" type="curve"/>
      <point x="422" y="739" type="line"/>
      <point x="527" y="739" type="line"/>
      <point x="387" y="900" type="line"/>
      <point x="318" y="900" type="line"/>
      <point x="178" y="739" type="line"/>
    </contour>
  </outline>
</glyph>
<glyph name="Udieresis" format="1">
  <advance width="706"/>
  <unicode hex="00DC"/>
  <outline>
    <contour>
      <point x="258" y="81"/>
      <point x="195" y="140"/>
      <point x="195" y="254" type="curve" smooth="yes"/>
      <point x="195" y="680" type="line"/>
      <point x="82" y="680" type="line"/>
      <point x="82" y="245" type="line" smooth="yes"/>
      <point x="82" y="97"/>
      <point x="185" y="-11"/>
      <point x="352" y="-11" type="curve" smooth="yes"/>
      <point x="519" y="-11"/>
      <point x="623" y="98"/>
      <point x="623" y="245" type="curve" smooth="yes"/>
      <point x="623" y="680" type="line"/>
      <point x="509" y="680" type="line"/>
      <point x="509" y="254" type="line" smooth="yes"/>
      <point x="509" y="143"/>
      <point x="449" y="81"/>
      <point x="352" y="81" type="curve" smooth="yes"/>
    </contour>
    <contour>
      <point x="320" y="848"/>
      <point x="295" y="875"/>
      <point x="262" y="875" type="curve" smooth="yes"/>
      <point x="229" y="875"/>
      <point x="202" y="848"/>
      <point x="202" y="815" type="curve" smooth="yes"/>
      <point x="202" y="782"/>
      <point x="229" y="756"/>
      <point x="262" y="756" type="curve" smooth="yes"/>
      <point x="295" y="756"/>
      <point x="320" y="782"/>
      <point x="320" y="815" type="curve" smooth="yes"/>
    </contour>
    <contour>
      <point x="503" y="848"/>
      <point x="478" y="875"/>
      <point x="444" y="875" type="curve" smooth="yes"/>
      <point x="412" y="875"/>
      <point x="384" y="848"/>
      <point x="384" y="815" type="curve" smooth="yes"/>
      <point x="384" y="782"/>
      <point x="412" y="756"/>
      <point x="444" y="756" type="curve" smooth="yes"/>
      <point x="478" y="756"/>
      <point x="503" y="782"/>
      <point x="503" y="815" type="curve" smooth="yes"/>
    </contour>
  </outline>
</glyph>
<glyph name="Yacute" format="1">
  <advance width="590"/>
  <unicode hex="00DD"/>
  <outline>
    <contour>
      <point x="235" y="0" type="line"/>
      <point x="349" y="0" type="line"/>
      <point x="349" y="266" type="line"/>
      <point x="585" y="680" type="line"/>
      <point x="466" y="680" type="line"/>
      <point x="291" y="381" type="line"/>
      <point x="123" y="680" type="line"/>
      <point x="6" y="664" type="line"/>
      <point x="236" y="268" type="line"/>
    </contour>
    <contour>
      <point x="269" y="900" type="line"/>
      <point x="209" y="739" type="line"/>
      <point x="295" y="739" type="line"/>
      <point x="388" y="900" type="line"/>
    </contour>
  </outline>
</glyph>
<glyph name="germandbls" format="1">
  <advance width="624"/>
  <unicode hex="00DF"/>
  <outline>
    <contour>
      <point x="158" y="696"/>
      <point x="73" y="610"/>
      <point x="73" y="473" type="curve"/>
      <point x="73" y="0" type="line"/>
      <point x="185" y="0" type="line"/>
      <point x="185" y="471" type="line" smooth="yes"/>
      <point x="185" y="550"/>
      <point x="233" y="599"/>
      <point x="306" y="599" type="curve"/>
      <point x="367" y="599"/>
      <point x="418" y="564"/>
      <point x="418" y="500" type="curve"/>
      <point x="418" y="439"/>
      <point x="374" y="397"/>
      <point x="290" y="397" type="curve"/>
      <point x="257" y="397" type="line"/>
      <point x="257" y="306" type="line"/>
      <point x="339" y="306" type="line" smooth="yes"/>
      <point x="408" y="306"/>
      <point x="463" y="265"/>
      <point x="463" y="196" type="curve"/>
      <point x="463" y="129"/>
      <point x="403" y="93"/>
      <point x="330" y="93" type="curve"/>
      <point x="249" y="93" type="line"/>
      <point x="249" y="0" type="line"/>
      <point x="336" y="0" type="line" smooth="yes"/>
      <point x="481" y="0"/>
      <point x="581" y="67"/>
      <point x="581" y="193" type="curve"/>
      <point x="581" y="282"/>
      <point x="519" y="349"/>
      <point x="454" y="368" type="curve"/>
      <point x="502" y="391"/>
      <point x="536" y="448"/>
      <point x="536" y="507" type="curve"/>
      <point x="536" y="633"/>
      <point x="433" y="696"/>
      <point x="302" y="696" type="curve"/>
    </contour>
  </outline>
</glyph>
<glyph name="atilde" format="1">
  <advance width="512"/>
  <unicode hex="00E3"/>
  <outline>
    <contour>
      <point x="204" y="498"/>
      <point x="114" y="479"/>
      <point x="76" y="454" type="curve"/>
      <point x="86" y="423"/>
      <point x="96" y="393"/>
      <point x="107" y="362" type="curve"/>
      <point x="143" y="379"/>
      <point x="196" y="395"/>
      <point x="247" y="395" type="curve" smooth="yes"/>
      <point x="310" y="395"/>
      <point x="331" y="352"/>
      <point x="335" y="295" type="curve"/>
      <point x="230" y="295" type="line" smooth="yes"/>
      <point x="122" y="295"/>
      <point x="49" y="241"/>
      <point x="49" y="142" type="curve" smooth="yes"/>
      <point x="49" y="51"/>
      <point x="104" y="-12"/>
      <point x="221" y="-12" type="curve" smooth="yes"/>
      <point x="271" y="-12"/>
      <point x="325" y="14"/>
      <point x="360" y="43" type="curve"/>
      <point x="369" y="29"/>
      <point x="378" y="14"/>
      <point x="388" y="0" type="curve"/>
      <point x="449" y="0" type="line"/>
      <point x="449" y="324" type="line" smooth="yes"/>
      <point x="449" y="426"/>
      <point x="360" y="498"/>
      <point x="245" y="498" type="curve" smooth="yes"/>
    </contour>
    <contour>
      <point x="173" y="77"/>
      <point x="147" y="110"/>
      <point x="147" y="142" type="curve" smooth="yes"/>
      <point x="147" y="183"/>
      <point x="175" y="219"/>
      <point x="228" y="219" type="curve" smooth="yes"/>
      <point x="336" y="219" type="line"/>
      <point x="336" y="133" type="line"/>
      <point x="302" y="99"/>
      <point x="261" y="77"/>
      <point x="219" y="77" type="curve" smooth="yes"/>
    </contour>
    <contour>
      <point x="335" y="711" type="line"/>
      <point x="334" y="693"/>
      <point x="319" y="677"/>
      <point x="304" y="677" type="curve" smooth="yes"/>
      <point x="268" y="677"/>
      <point x="244" y="715"/>
      <point x="193" y="715" type="curve" smooth="yes"/>
      <point x="139" y="715"/>
      <point x="90" y="688"/>
      <point x="90" y="603" type="curve"/>
      <point x="167" y="603" type="line"/>
      <point x="167" y="619"/>
      <point x="181" y="637"/>
      <point x="197" y="637" type="curve" smooth="yes"/>
      <point x="234" y="637"/>
      <point x="256" y="598"/>
      <point x="305" y="598" type="curve" smooth="yes"/>
      <point x="359" y="598"/>
      <point x="407" y="626"/>
      <point x="407" y="711" type="curve"/>
    </contour>
  </outline>
</glyph>
<glyph name="ae" format="1">
  <advance width="828"/>
  <unicode hex="00E6"/>
  <outline>
    <contour>
      <point x="788" y="212" type="line"/>
      <point x="788" y="365"/>
      <point x="740" y="498"/>
      <point x="570" y="498" type="curve" smooth="yes"/>
      <point x="500" y="498"/>
      <point x="442" y="473"/>
      <point x="402" y="431" type="curve"/>
      <point x="366" y="472"/>
      <point x="311" y="498"/>
      <point x="245" y="498" type="curve" smooth="yes"/>
      <point x="204" y="498"/>
      <point x="114" y="479"/>
      <point x="76" y="454" type="curve"/>
      <point x="86" y="423"/>
      <point x="96" y="393"/>
      <point x="107" y="362" type="curve"/>
      <point x="143" y="379"/>
      <point x="196" y="395"/>
      <point x="247" y="395" type="curve" smooth="yes"/>
      <point x="305" y="395"/>
      <point x="336" y="358"/>
      <point x="336" y="302" type="curve" smooth="yes"/>
      <point x="336" y="288" type="line"/>
      <point x="230" y="288" type="line" smooth="yes"/>
      <point x="122" y="288"/>
      <point x="49" y="238"/>
      <point x="49" y="139" type="curve" smooth="yes"/>
      <point x="49" y="48"/>
      <point x="103" y="-12"/>
      <point x="222" y="-12" type="curve" smooth="yes"/>
      <point x="288" y="-12"/>
      <point x="357" y="30"/>
      <point x="390" y="72" type="curve"/>
      <point x="434" y="18"/>
      <point x="503" y="-12"/>
      <point x="595" y="-12" type="curve" smooth="yes"/>
      <point x="637" y="-12"/>
      <point x="714" y="2"/>
      <point x="758" y="34" type="curve"/>
      <point x="746" y="61"/>
      <point x="735" y="89"/>
      <point x="724" y="116" type="curve"/>
      <point x="680" y="96"/>
      <point x="649" y="83"/>
      <point x="597" y="83" type="curve" smooth="yes"/>
      <point x="508" y="83"/>
      <point x="462" y="135"/>
      <point x="452" y="212" type="curve"/>
    </contour>
    <contour>
      <point x="173" y="77"/>
      <point x="147" y="107"/>
      <point x="147" y="139" type="curve" smooth="yes"/>
      <point x="147" y="180"/>
      <point x="175" y="212"/>
      <point x="228" y="212" type="curve" smooth="yes"/>
      <point x="334" y="212" type="line"/>
      <point x="337" y="188"/>
      <point x="341" y="166"/>
      <point x="347" y="146" type="curve"/>
      <point x="313" y="103"/>
      <point x="266" y="77"/>
      <point x="219" y="77" type="curve" smooth="yes"/>
    </contour>
    <contour>
      <point x="630" y="401"/>
      <point x="668" y="361"/>
      <point x="679" y="288" type="curve"/>
      <point x="453" y="288" type="line"/>
      <point x="465" y="359"/>
      <point x="505" y="401"/>
      <point x="568" y="401" type="curve" smooth="yes"/>
    </contour>
  </outline>
</glyph>
<glyph name="ccedilla" format="1">
  <advance width="480"/>
  <unicode hex="00E7"/>
  <outline>
    <contour>
      <point x="161" y="334"/>
      <point x="205" y="402"/>
      <point x="287" y="402" type="curve"/>
      <point x="339" y="402"/>
      <point x="368" y="388"/>
      <point x="412" y="368" type="curve"/>
      <point x="445" y="449" type="line"/>
      <point x="399" y="481"/>
      <point x="327" y="498"/>
      <point x="287" y="498" type="curve"/>
      <point x="133" y="498"/>
      <point x="45" y="396"/>
      <point x="44" y="243" type="curve"/>
      <point x="44" y="103"/>
      <point x="114" y="7"/>
      <point x="242" y="-9" type="curve"/>
      <point x="216" y="-77" type="line"/>
      <point x="268" y="-82"/>
      <point x="303" y="-102"/>
      <point x="303" y="-124" type="curve"/>
      <point x="303" y="-141"/>
      <point x="283" y="-146"/>
      <point x="265" y="-146" type="curve"/>
      <point x="247" y="-146"/>
      <point x="217" y="-136"/>
      <point x="201" y="-128" type="curve"/>
      <point x="174" y="-195" type="line"/>
      <point x="194" y="-211"/>
      <point x="238" y="-221"/>
      <point x="265" y="-221" type="curve"/>
      <point x="328" y="-221"/>
      <point x="386" y="-190"/>
      <point x="386" y="-122" type="curve"/>
      <point x="386" y="-87"/>
      <point x="355" y="-49"/>
      <point x="315" y="-35" type="curve"/>
      <point x="325" y="-9" type="line"/>
      <point x="364" y="-2"/>
      <point x="411" y="12"/>
      <point x="443" y="35" type="curve"/>
      <point x="411" y="117" type="line"/>
      <point x="367" y="96"/>
      <point x="338" y="84"/>
      <point x="286" y="84" type="curve"/>
      <point x="203" y="84"/>
      <point x="161" y="150"/>
      <point x="161" y="243" type="curve"/>
    </contour>
  </outline>
</glyph>
<glyph name="icircumflex" format="1">
  <advance width="250"/>
  <unicode hex="00EE"/>
  <outline>
    <contour>
      <point x="67" y="0" type="line"/>
      <point x="181" y="0" type="line"/>
      <point x="181" y="485" type="line"/>
      <point x="67" y="485" type="line"/>
    </contour>
    <contour>
      <point x="58" y="589" type="line"/>
      <point x="127" y="665" type="line"/>
      <point x="195" y="589" type="line"/>
      <point x="300" y="589" type="line"/>
      <point x="158" y="750" type="line"/>
      <point x="91" y="750" type="line"/>
      <point x="-49" y="589" type="line"/>
    </contour>
  </outline>
</glyph>
<glyph name="idieresis" format="1">
  <advance width="250"/>
  <unicode hex="00EF"/>
  <outline>
    <contour>
      <point x="67" y="0" type="line"/>
      <point x="181" y="0" type="line"/>
      <point x="181" y="485" type="line"/>
      <point x="67" y="485" type="line"/>
    </contour>
    <contour>
      <point x="93" y="698"/>
      <point x="67" y="725"/>
      <point x="34" y="725" type="curve" smooth="yes"/>
      <point x="0" y="725"/>
      <point x="-25" y="698"/>
      <point x="-25" y="665" type="curve" smooth="yes"/>
      <point x="-25" y="632"/>
      <point x="0" y="606"/>
      <point x="34" y="606" type="curve" smooth="yes"/>
      <point x="67" y="606"/>
      <point x="93" y="632"/>
      <point x="93" y="665" type="curve" smooth="yes"/>
    </contour>
    <contour>
      <point x="275" y="698"/>
      <point x="249" y="725"/>
      <point x="216" y="725" type="curve" smooth="yes"/>
      <point x="183" y="725"/>
      <point x="156" y="698"/>
      <point x="156" y="665" type="curve" smooth="yes"/>
      <point x="156" y="632"/>
      <point x="183" y="606"/>
      <point x="216" y="606" type="curve" smooth="yes"/>
      <point x="249" y="606"/>
      <point x="275" y="632"/>
      <point x="275" y="665" type="curve" smooth="yes"/>
    </contour>
  </outline>
</glyph>
<glyph name="ntilde" format="1">
  <advance width="573"/>
  <unicode hex="00F1"/>
  <outline>
    <contour>
      <point x="67" y="0" type="line"/>
      <point x="180" y="0" type="line"/>
      <point x="180" y="347" type="line"/>
      <point x="216" y="381"/>
      <point x="268" y="406"/>
      <point x="307" y="406" type="curve" smooth="yes"/>
      <point x="366" y="406"/>
      <point x="397" y="367"/>
      <point x="397" y="304" type="curve" smooth="yes"/>
      <point x="397" y="0" type="line"/>
      <point x="510" y="0" type="line"/>
      <point x="510" y="312" type="line" smooth="yes"/>
      <point x="510" y="420"/>
      <point x="459" y="502"/>
      <point x="334" y="502" type="curve" smooth="yes"/>
      <point x="280" y="502"/>
      <point x="206" y="472"/>
      <point x="163" y="427" type="curve"/>
      <point x="128" y="485" type="line"/>
      <point x="67" y="485" type="line"/>
    </contour>
    <contour>
      <point x="390" y="711" type="line"/>
      <point x="389" y="693"/>
      <point x="374" y="677"/>
      <point x="359" y="677" type="curve" smooth="yes"/>
      <point x="322" y="677"/>
      <point x="297" y="715"/>
      <point x="247" y="715" type="curve" smooth="yes"/>
      <point x="194" y="715"/>
      <point x="144" y="688"/>
      <point x="144" y="603" type="curve"/>
      <point x="222" y="603" type="line"/>
      <point x="222" y="619"/>
      <point x="235" y="637"/>
      <point x="252" y="637" type="curve" smooth="yes"/>
      <point x="289" y="637"/>
      <point x="311" y="598"/>
      <point x="359" y="598" type="curve" smooth="yes"/>
      <point x="414" y="598"/>
      <point x="461" y="626"/>
      <point x="461" y="711" type="curve"/>
    </contour>
  </outline>
</glyph>
<glyph name="divide" format="1">
  <advance width="481"/>
  <unicode hex="00F7"/>
  <outline>
    <contour>
      <point x="167" y="393"/>
      <point x="198" y="360"/>
      <point x="239" y="360" type="curve"/>
      <point x="279" y="360"/>
      <point x="311" y="393"/>
      <point x="311" y="431" type="curve"/>
      <point x="311" y="472"/>
      <point x="279" y="503"/>
      <point x="239" y="503" type="curve"/>
      <point x="198" y="503"/>
      <point x="167" y="472"/>
      <point x="167" y="431" type="curve"/>
    </contour>
    <contour>
      <point x="168" y="65"/>
      <point x="199" y="32"/>
      <point x="239" y="32" type="curve"/>
      <point x="279" y="32"/>
      <point x="312" y="65"/>
      <point x="312" y="104" type="curve"/>
      <point x="312" y="145"/>
      <point x="279" y="177"/>
      <point x="239" y="177" type="curve"/>
      <point x="199" y="177"/>
      <point x="168" y="145"/>
      <point x="168" y="104" type="curve"/>
    </contour>
    <contour>
      <point x="463" y="229" type="line"/>
      <point x="453" y="318" type="line"/>
      <point x="17" y="318" type="line"/>
      <point x="26" y="229" type="line"/>
    </contour>
  </outline>
</glyph>
<glyph name="Abreve" format="1">
  <advance width="634"/>
  <unicode hex="0102"/>
  <outline>
    <contour>
      <point x="365" y="680" type="line"/>
      <point x="266" y="680" type="line"/>
      <point x="6" y="0" type="line"/>
      <point x="118" y="0" type="line"/>
      <point x="182" y="171" type="line"/>
      <point x="450" y="171" type="line"/>
      <point x="515" y="0" type="line"/>
      <point x="628" y="16" type="line"/>
    </contour>
    <contour>
      <point x="314" y="526" type="line"/>
      <point x="415" y="262" type="line"/>
      <point x="215" y="262" type="line"/>
    </contour>
    <contour>
      <point x="413" y="744"/>
      <point x="456" y="817"/>
      <point x="456" y="897" type="curve"/>
      <point x="379" y="897" type="line"/>
      <point x="379" y="862"/>
      <point x="359" y="824"/>
      <point x="314" y="824" type="curve"/>
      <point x="267" y="824"/>
      <point x="249" y="862"/>
      <point x="249" y="897" type="curve"/>
      <point x="171" y="897" type="line"/>
      <point x="171" y="817"/>
      <point x="215" y="744"/>
      <point x="314" y="742" type="curve"/>
    </contour>
  </outline>
</glyph>
<glyph name="aogonek" format="1">
  <advance width="512"/>
  <unicode hex="0105"/>
  <outline>
    <contour>
      <point x="204" y="498"/>
      <point x="114" y="479"/>
      <point x="76" y="454" type="curve"/>
      <point x="86" y="423"/>
      <point x="96" y="393"/>
      <point x="107" y="362" type="curve"/>
      <point x="143" y="379"/>
      <point x="196" y="395"/>
      <point x="247" y="395" type="curve" smooth="yes"/>
      <point x="310" y="395"/>
      <point x="331" y="352"/>
      <point x="335" y="295" type="curve"/>
      <point x="230" y="295" type="line" smooth="yes"/>
      <point x="122" y="295"/>
      <point x="49" y="241"/>
      <point x="49" y="142" type="curve" smooth="yes"/>
      <point x="49" y="51"/>
      <point x="104" y="-12"/>
      <point x="221" y="-12" type="curve" smooth="yes"/>
      <point x="271" y="-12"/>
      <point x="325" y="14"/>
      <point x="360" y="43" type="curve"/>
      <point x="368" y="27" type="line"/>
      <point x="337" y="0"/>
      <point x="306" y="-46"/>
      <point x="306" y="-98" type="curve" smooth="yes"/>
      <point x="306" y="-159"/>
      <point x="353" y="-207"/>
      <point x="419" y="-207" type="curve" smooth="yes"/>
      <point x="456" y="-207"/>
      <point x="489" y="-197"/>
      <point x="517" y="-174" type="curve"/>
      <point x="483" y="-105" type="line"/>
      <point x="468" y="-117"/>
      <point x="450" y="-123"/>
      <point x="439" y="-123" type="curve" smooth="yes"/>
      <point x="415" y="-123"/>
      <point x="403" y="-110"/>
      <point x="403" y="-89" type="curve" smooth="yes"/>
      <point x="403" y="-57"/>
      <point x="427" y="-20"/>
      <point x="449" y="0" type="curve"/>
      <point x="449" y="324" type="line" smooth="yes"/>
      <point x="449" y="426"/>
      <point x="360" y="498"/>
      <point x="245" y="498" type="curve" smooth="yes"/>
    </contour>
    <contour>
      <point x="173" y="77"/>
      <point x="147" y="110"/>
      <point x="147" y="142" type="curve" smooth="yes"/>
      <point x="147" y="183"/>
      <point x="175" y="219"/>
      <point x="228" y="219" type="curve" smooth="yes"/>
      <point x="336" y="219" type="line"/>
      <point x="336" y="133" type="line"/>
      <point x="302" y="99"/>
      <point x="261" y="77"/>
      <point x="219" y="77" type="curve" smooth="yes"/>
    </contour>
  </outline>
</glyph>
<glyph name="ccaron" format="1">
  <advance width="480"/>
  <unicode hex="010D"/>
  <outline>
    <contour>
      <point x="161" y="334"/>
      <point x="205" y="402"/>
      <point x="287" y="402" type="curve"/>
      <point x="339" y="402"/>
      <point x="368" y="388"/>
      <point x="412" y="368" type="curve"/>
      <point x="445" y="449" type="line"/>
      <point x="399" y="481"/>
      <point x="327" y="498"/>
      <point x="287" y="498" type="curve"/>
      <point x="133" y="498"/>
      <point x="45" y="396"/>
      <point x="44" y="243" type="curve"/>
      <point x="44" y="89"/>
      <point x="131" y="-12"/>
      <point x="285" y="-12" type="curve"/>
      <point x="326" y="-12"/>
      <point x="400" y="3"/>
      <point x="443" y="35" type="curve"/>
      <point x="411" y="117" type="line"/>
      <point x="367" y="96"/>
      <point x="338" y="84"/>
      <point x="286" y="84" type="curve"/>
      <point x="203" y="84"/>
      <point x="161" y="150"/>
      <point x="161" y="243" type="curve"/>
    </contour>
    <contour>
      <point x="109" y="750" type="line"/>
      <point x="250" y="589" type="line"/>
      <point x="317" y="589" type="line"/>
      <point x="458" y="750" type="line"/>
      <point x="354" y="750" type="line"/>
      <point x="285" y="674" type="line"/>
      <point x="216" y="750" type="line"/>
    </contour>
  </outline>
</glyph>
<glyph name="Dcaron" format="1">
  <advance width="700"/>
  <unicode hex="010E"/>
  <outline>
    <contour>
      <point x="89" y="0" type="line"/>
      <point x="328" y="0" type="line"/>
      <point x="528" y="2"/>
      <point x="638" y="137"/>
      <point x="638" y="344" type="curve" smooth="yes"/>
      <point x="638" y="538"/>
      <point x="543" y="680"/>
      <point x="330" y="680" type="curve" smooth="yes"/>
      <point x="89" y="680" type="line"/>
    </contour>
    <contour>
      <point x="335" y="584" type="line" smooth="yes"/>
      <point x="465" y="584"/>
      <point x="523" y="490"/>
      <point x="523" y="343" type="curve" smooth="yes"/>
      <point x="523" y="172"/>
      <point x="445" y="94"/>
      <point x="327" y="94" type="curve" smooth="yes"/>
      <point x="201" y="94" type="line"/>
      <point x="201" y="584" type="line"/>
    </contour>
    <contour>
      <point x="140" y="900" type="line"/>
      <point x="280" y="738" type="line"/>
      <point x="348" y="738" type="line"/>
      <point x="489" y="900" type="line"/>
      <point x="384" y="900" type="line"/>
      <point x="316" y="824" type="line"/>
      <point x="247" y="900" type="line"/>
    </contour>
  </outline>
</glyph>
<glyph name="Gbreve" format="1">
  <advance width="656"/>
  <unicode hex="011E"/>
  <outline>
    <contour>
      <point x="346" y="364" type="line"/>
      <point x="337" y="278" type="line"/>
      <point x="482" y="278" type="line"/>
      <point x="482" y="95" type="line"/>
      <point x="456" y="88"/>
      <point x="422" y="81"/>
      <point x="377" y="81" type="curve" smooth="yes"/>
      <point x="249" y="81"/>
      <point x="178" y="179"/>
      <point x="178" y="337" type="curve" smooth="yes"/>
      <point x="178" y="510"/>
      <point x="269" y="598"/>
      <point x="395" y="598" type="curve" smooth="yes"/>
      <point x="457" y="598"/>
      <point x="484" y="588"/>
      <point x="539" y="570" type="curve"/>
      <point x="574" y="651" type="line"/>
      <point x="520" y="682"/>
      <point x="434" y="694"/>
      <point x="393" y="694" type="curve" smooth="yes"/>
      <point x="189" y="694"/>
      <point x="61" y="546"/>
      <point x="61" y="336" type="curve" smooth="yes"/>
      <point x="61" y="139"/>
      <point x="168" y="-14"/>
      <point x="380" y="-14" type="curve" smooth="yes"/>
      <point x="458" y="-14"/>
      <point x="536" y="7"/>
      <point x="585" y="34" type="curve"/>
      <point x="584" y="35" type="line"/>
      <point x="584" y="51"/>
      <point x="585" y="68"/>
      <point x="585" y="85" type="curve" smooth="yes"/>
      <point x="585" y="364" type="line"/>
    </contour>
    <contour>
      <point x="493" y="744"/>
      <point x="537" y="817"/>
      <point x="537" y="897" type="curve"/>
      <point x="460" y="897" type="line"/>
      <point x="460" y="862"/>
      <point x="440" y="823"/>
      <point x="394" y="823" type="curve" smooth="yes"/>
      <point x="347" y="823"/>
      <point x="330" y="862"/>
      <point x="330" y="897" type="curve"/>
      <point x="251" y="897" type="line"/>
      <point x="251" y="817"/>
      <point x="295" y="744"/>
      <point x="394" y="742" type="curve"/>
    </contour>
  </outline>
</glyph>
<glyph name="gcedilla" format="1">
  <advance width="579"/>
  <unicode hex="0123"/>
  <outline>
    <contour>
      <point x="434" y="-209"/>
      <point x="507" y="-125"/>
      <point x="507" y="-12" type="curve" smooth="yes"/>
      <point x="507" y="485" type="line"/>
      <point x="446" y="485" type="line"/>
      <point x="419" y="443" type="line"/>
      <point x="377" y="479"/>
      <point x="313" y="502"/>
      <point x="266" y="502" type="curve" smooth="yes"/>
      <point x="124" y="502"/>
      <point x="44" y="393"/>
      <point x="44" y="244" type="curve" smooth="yes"/>
      <point x="44" y="97"/>
      <point x="119" y="-12"/>
      <point x="261" y="-12" type="curve" smooth="yes"/>
      <point x="302" y="-12"/>
      <point x="353" y="4"/>
      <point x="393" y="30" type="curve"/>
      <point x="393" y="-11" type="line" smooth="yes"/>
      <point x="393" y="-79"/>
      <point x="348" y="-118"/>
      <point x="269" y="-118" type="curve" smooth="yes"/>
      <point x="215" y="-118"/>
      <point x="180" y="-102"/>
      <point x="126" y="-77" type="curve"/>
      <point x="115" y="-104"/>
      <point x="104" y="-131"/>
      <point x="92" y="-158" type="curve"/>
      <point x="141" y="-191"/>
      <point x="231" y="-209"/>
      <point x="272" y="-209" type="curve" smooth="yes"/>
    </contour>
    <contour>
      <point x="322" y="406"/>
      <point x="360" y="389"/>
      <point x="393" y="365" type="curve"/>
      <point x="393" y="125" type="line"/>
      <point x="360" y="101"/>
      <point x="322" y="84"/>
      <point x="289" y="84" type="curve" smooth="yes"/>
      <point x="188" y="84"/>
      <point x="160" y="157"/>
      <point x="160" y="245" type="curve" smooth="yes"/>
      <point x="160" y="325"/>
      <point x="193" y="406"/>
      <point x="289" y="406" type="curve" smooth="yes"/>
    </contour>
    <contour>
      <point x="199" y="579"/>
      <point x="230" y="546"/>
      <point x="267" y="546" type="curve" smooth="yes"/>
      <point x="305" y="546"/>
      <point x="335" y="583"/>
      <point x="335" y="615" type="curve" smooth="yes"/>
      <point x="335" y="647"/>
      <point x="305" y="680"/>
      <point x="282" y="680" type="curve"/>
      <point x="289" y="710"/>
      <point x="314" y="731"/>
      <point x="335" y="741" type="curve"/>
      <point x="326" y="760"/>
      <point x="317" y="777"/>
      <point x="309" y="795" type="curve"/>
      <point x="249" y="764"/>
      <point x="199" y="698"/>
      <point x="199" y="628" type="curve" smooth="yes"/>
    </contour>
  </outline>
</glyph>
<glyph name="imacron" format="1">
  <advance width="250"/>
  <unicode hex="012B"/>
  <outline>
    <contour>
      <point x="67" y="0" type="line"/>
      <point x="181" y="0" type="line"/>
      <point x="181" y="485" type="line"/>
      <point x="67" y="485" type="line"/>
    </contour>
    <contour>
      <point x="-4" y="709" type="line"/>
      <point x="-4" y="619" type="line"/>
      <point x="252" y="619" type="line"/>
      <point x="252" y="709" type="line"/>
    </contour>
  </outline>
</glyph>
<glyph name="Iogonek" format="1">
  <advance width="291"/>
  <unicode hex="012E"/>
  <outline>
    <contour>
      <point x="89" y="1" type="line"/>
      <point x="69" y="-22"/>
      <point x="54" y="-63"/>
      <point x="54" y="-98" type="curve" smooth="yes"/>
      <point x="54" y="-159"/>
      <point x="99" y="-207"/>
      <point x="167" y="-207" type="curve" smooth="yes"/>
      <point x="204" y="-207"/>
      <point x="235" y="-197"/>
      <point x="263" y="-174" type="curve"/>
      <point x="230" y="-105" type="line"/>
      <point x="215" y="-117"/>
      <point x="197" y="-123"/>
      <point x="185" y="-123" type="curve" smooth="yes"/>
      <point x="162" y="-123"/>
      <point x="149" y="-110"/>
      <point x="149" y="-89" type="curve" smooth="yes"/>
      <point x="149" y="-50"/>
      <point x="178" y="-26"/>
      <point x="201" y="0" type="curve"/>
      <point x="201" y="680" type="line"/>
      <point x="89" y="680" type="line"/>
    </contour>
  </outline>
</glyph>
<glyph name="iogonek" format="1">
  <advance width="250"/>
  <unicode hex="012F"/>
  <outline>
    <contour>
      <point x="181" y="485" type="line"/>
      <point x="67" y="485" type="line"/>
      <point x="67" y="1" type="line"/>
      <point x="63" y="-4"/>
      <point x="58" y="-14"/>
      <point x="58" y="-22" type="curve" smooth="yes"/>
      <point x="58" y="-24"/>
      <point x="59" y="-26"/>
      <point x="59" y="-27" type="curve" smooth="yes"/>
      <point x="46" y="-44"/>
      <point x="34" y="-78"/>
      <point x="34" y="-98" type="curve" smooth="yes"/>
      <point x="34" y="-159"/>
      <point x="81" y="-207"/>
      <point x="147" y="-207" type="curve" smooth="yes"/>
      <point x="184" y="-207"/>
      <point x="216" y="-197"/>
      <point x="245" y="-174" type="curve"/>
      <point x="233" y="-151"/>
      <point x="222" y="-128"/>
      <point x="211" y="-105" type="curve"/>
      <point x="195" y="-117"/>
      <point x="178" y="-123"/>
      <point x="167" y="-123" type="curve" smooth="yes"/>
      <point x="142" y="-123"/>
      <point x="131" y="-110"/>
      <point x="131" y="-89" type="curve" smooth="yes"/>
      <point x="131" y="-60"/>
      <point x="156" y="-20"/>
      <point x="177" y="0" type="curve"/>
      <point x="181" y="0" type="line"/>
    </contour>
    <contour>
      <point x="58" y="591"/>
      <point x="87" y="563"/>
      <point x="124" y="563" type="curve" smooth="yes"/>
      <point x="162" y="563"/>
      <point x="191" y="591"/>
      <point x="191" y="629" type="curve" smooth="yes"/>
      <point x="191" y="667"/>
      <point x="162" y="696"/>
      <point x="124" y="696" type="curve" smooth="yes"/>
      <point x="87" y="696"/>
      <point x="58" y="667"/>
      <point x="58" y="629" type="curve" smooth="yes"/>
    </contour>
  </outline>
</glyph>
<glyph name="Idotaccent" format="1">
  <advance width="291"/>
  <unicode hex="0130"/>
  <outline>
    <contour>
      <point x="89" y="0" type="line"/>
      <point x="201" y="0" type="line"/>
      <point x="201" y="680" type="line"/>
      <point x="89" y="680" type="line"/>
    </contour>
    <contour>
      <point x="210" y="854"/>
      <point x="183" y="884"/>
      <point x="145" y="884" type="curve" smooth="yes"/>
      <point x="107" y="884"/>
      <point x="77" y="854"/>
      <point x="77" y="816" type="curve" smooth="yes"/>
      <point x="77" y="778"/>
      <point x="107" y="750"/>
      <point x="145" y="750" type="curve" smooth="yes"/>
      <point x="183" y="750"/>
      <point x="210" y="778"/>
      <point x="210" y="816" type="curve" smooth="yes"/>
    </contour>
  </outline>
</glyph>
<glyph name="kcedilla" format="1">
  <advance width="516"/>
  <unicode hex="0137"/>
  <outline>
    <contour>
      <point x="72" y="0" type="line"/>
      <point x="185" y="0" type="line"/>
      <point x="185" y="166" type="line"/>
      <point x="203" y="184"/>
      <point x="223" y="202"/>
      <point x="242" y="219" type="curve"/>
      <point x="376" y="0" type="line"/>
      <point x="507" y="0" type="line"/>
      <point x="321" y="292" type="line"/>
      <point x="368" y="335"/>
      <point x="415" y="377"/>
      <point x="461" y="420" type="curve"/>
      <point x="397" y="498" type="line"/>
      <point x="185" y="297" type="line"/>
      <point x="185" y="706" type="line"/>
      <point x="72" y="695" type="line"/>
    </contour>
    <contour>
      <point x="337" y="-53"/>
      <point x="306" y="-21"/>
      <point x="267" y="-21" type="curve" smooth="yes"/>
      <point x="230" y="-21"/>
      <point x="201" y="-55"/>
      <point x="201" y="-88" type="curve" smooth="yes"/>
      <point x="201" y="-122"/>
      <point x="230" y="-153"/>
      <point x="254" y="-154" type="curve"/>
      <point x="246" y="-184"/>
      <point x="221" y="-205"/>
      <point x="200" y="-216" type="curve"/>
      <point x="226" y="-269" type="line"/>
      <point x="285" y="-239"/>
      <point x="337" y="-173"/>
      <point x="337" y="-102" type="curve" smooth="yes"/>
    </contour>
  </outline>
</glyph>
<glyph name="Lacute" format="1">
  <advance width="534"/>
  <unicode hex="0139"/>
  <outline>
    <contour>
      <point x="521" y="0" type="line"/>
      <point x="505" y="88" type="line"/>
      <point x="201" y="88" type="line"/>
      <point x="201" y="680" type="line"/>
      <point x="89" y="680" type="line"/>
      <point x="89" y="0" type="line"/>
    </contour>
    <contour>
      <point x="168" y="900" type="line"/>
      <point x="108" y="739" type="line"/>
      <point x="193" y="739" type="line"/>
      <point x="286" y="900" type="line"/>
    </contour>
  </outline>
</glyph>
<glyph name="Lcedilla" format="1">
  <advance width="534"/>
  <unicode hex="013B"/>
  <outline>
    <contour>
      <point x="378" y="-53"/>
      <point x="347" y="-21"/>
      <point x="309" y="-21" type="curve"/>
      <point x="272" y="-21"/>
      <point x="242" y="-55"/>
      <point x="242" y="-89" type="curve"/>
      <point x="242" y="-122"/>
      <point x="270" y="-154"/>
      <point x="295" y="-154" type="curve"/>
      <point x="287" y="-184"/>
      <point x="263" y="-206"/>
      <point x="242" y="-216" type="curve"/>
      <point x="267" y="-269" type="line"/>
      <point x="327" y="-240"/>
      <point x="378" y="-173"/>
      <point x="378" y="-102" type="curve"/>
    </contour>
    <contour>
      <point x="521" y="0" type="line"/>
      <point x="505" y="88" type="line"/>
      <point x="201" y="88" type="line"/>
      <point x="201" y="680" type="line"/>
      <point x="89" y="680" type="line"/>
      <point x="89" y="0" type="line"/>
    </contour>
  </outline>
</glyph>
<glyph name="Lcaron" format="1">
  <advance width="534"/>
  <unicode hex="013D"/>
  <outline>
    <contour>
      <point x="521" y="0" type="line"/>
      <point x="505" y="88" type="line"/>
      <point x="201" y="88" type="line"/>
      <point x="201" y="680" type="line"/>
      <point x="89" y="680" type="line"/>
      <point x="89" y="0" type="line"/>
    </contour>
    <contour>
      <point x="460" y="700"/>
      <point x="429" y="732"/>
      <point x="391" y="732" type="curve"/>
      <point x="353" y="732"/>
      <point x="324" y="697"/>
      <point x="324" y="664" type="curve"/>
      <point x="324" y="631"/>
      <point x="353" y="600"/>
      <point x="376" y="599" type="curve"/>
      <point x="369" y="558"/>
      <point x="345" y="537"/>
      <point x="312" y="510" type="curve"/>
      <point x="338" y="457" type="line"/>
      <point x="408" y="495"/>
      <point x="460" y="580"/>
      <point x="460" y="651" type="curve"/>
    </contour>
  </outline>
</glyph>
<glyph name="lcaron" format="1">
  <advance width="419"/>
  <unicode hex="013E"/>
  <outline>
    <contour>
      <point x="72" y="0" type="line"/>
      <point x="185" y="0" type="line"/>
      <point x="185" y="706" type="line"/>
      <point x="72" y="695" type="line"/>
    </contour>
    <contour>
      <point x="410" y="699"/>
      <point x="379" y="732"/>
      <point x="341" y="732" type="curve" smooth="yes"/>
      <point x="305" y="732"/>
      <point x="275" y="696"/>
      <point x="275" y="664" type="curve" smooth="yes"/>
      <point x="275" y="631"/>
      <point x="303" y="600"/>
      <point x="327" y="599" type="curve"/>
      <point x="320" y="558"/>
      <point x="296" y="537"/>
      <point x="262" y="509" type="curve"/>
      <point x="271" y="492"/>
      <point x="280" y="474"/>
      <point x="288" y="456" type="curve"/>
      <point x="358" y="495"/>
      <point x="410" y="580"/>
      <point x="410" y="651" type="curve" smooth="yes"/>
    </contour>
  </outline>
</glyph>
<glyph name="Lslash" format="1">
  <advance width="544"/>
  <unicode hex="0141"/>
  <outline>
    <contour>
      <point x="531" y="0" type="line"/>
      <point x="515" y="88" type="line"/>
      <point x="212" y="88" type="line"/>
      <point x="212" y="315" type="line"/>
      <point x="354" y="426" type="line"/>
      <point x="309" y="503" type="line"/>
      <point x="212" y="427" type="line"/>
      <point x="212" y="680" type="line"/>
      <point x="99" y="680" type="line"/>
      <point x="99" y="339" type="line"/>
      <point x="11" y="271" type="line"/>
      <point x="55" y="193" type="line"/>
      <point x="99" y="227" type="line"/>
      <point x="99" y="0" type="line"/>
    </contour>
  </outline>
</glyph>
<glyph name="Nacute" format="1">
  <advance width="732"/>
  <unicode hex="0143"/>
  <outline>
    <contour>
      <point x="89" y="0" type="line"/>
      <point x="201" y="0" type="line"/>
      <point x="201" y="481" type="line"/>
      <point x="252" y="405" type="line"/>
      <point x="535" y="0" type="line"/>
      <point x="643" y="0" type="line"/>
      <point x="643" y="680" type="line"/>
      <point x="530" y="680" type="line"/>
      <point x="530" y="201" type="line"/>
      <point x="511" y="229"/>
      <point x="493" y="257"/>
      <point x="474" y="284" type="curve" smooth="yes"/>
      <point x="196" y="680" type="line"/>
      <point x="89" y="680" type="line"/>
    </contour>
    <contour>
      <point x="364" y="900" type="line"/>
      <point x="304" y="739" type="line"/>
      <point x="390" y="739" type="line"/>
      <point x="421" y="793"/>
      <point x="451" y="846"/>
      <point x="483" y="900" type="curve"/>
    </contour>
  </outline>
</glyph>
<glyph name="nacute" format="1">
  <advance width="573"/>
  <unicode hex="0144"/>
  <outline>
    <contour>
      <point x="280" y="502"/>
      <point x="206" y="472"/>
      <point x="163" y="427" type="curve"/>
      <point x="129" y="485" type="line"/>
      <point x="67" y="485" type="line"/>
      <point x="67" y="0" type="line"/>
      <point x="180" y="0" type="line"/>
      <point x="180" y="348" type="line"/>
      <point x="217" y="382"/>
      <point x="268" y="406"/>
      <point x="307" y="406" type="curve"/>
      <point x="367" y="406"/>
      <point x="397" y="368"/>
      <point x="397" y="305" type="curve"/>
      <point x="397" y="0" type="line"/>
      <point x="510" y="0" type="line"/>
      <point x="510" y="312" type="line"/>
      <point x="510" y="420"/>
      <point x="459" y="502"/>
      <point x="334" y="502" type="curve"/>
    </contour>
    <contour>
      <point x="285" y="750" type="line"/>
      <point x="225" y="589" type="line"/>
      <point x="310" y="589" type="line"/>
      <point x="403" y="750" type="line"/>
    </contour>
  </outline>
</glyph>
<glyph name="ncaron" format="1">
  <advance width="573"/>
  <unicode hex="0148"/>
  <outline>
    <contour>
      <point x="280" y="502"/>
      <point x="206" y="472"/>
      <point x="163" y="427" type="curve"/>
      <point x="129" y="485" type="line"/>
      <point x="67" y="485" type="line"/>
      <point x="67" y="0" type="line"/>
      <point x="180" y="0" type="line"/>
      <point x="180" y="348" type="line"/>
      <point x="217" y="382"/>
      <point x="268" y="406"/>
      <point x="307" y="406" type="curve"/>
      <point x="367" y="406"/>
      <point x="397" y="368"/>
      <point x="397" y="305" type="curve"/>
      <point x="397" y="0" type="line"/>
      <point x="510" y="0" type="line"/>
      <point x="510" y="312" type="line"/>
      <point x="510" y="420"/>
      <point x="459" y="502"/>
      <point x="334" y="502" type="curve"/>
    </contour>
    <contour>
      <point x="129" y="750" type="line"/>
      <point x="270" y="589" type="line"/>
      <point x="337" y="589" type="line"/>
      <point x="478" y="750" type="line"/>
      <point x="375" y="750" type="line"/>
      <point x="306" y="674" type="line"/>
      <point x="237" y="750" type="line"/>
    </contour>
  </outline>
</glyph>
<glyph name="OE" format="1">
  <advance width="993"/>
  <unicode hex="0152"/>
  <outline>
    <contour>
      <point x="969" y="0" type="line"/>
      <point x="953" y="88" type="line"/>
      <point x="628" y="88" type="line"/>
      <point x="628" y="300" type="line"/>
      <point x="832" y="300" type="line"/>
      <point x="815" y="389" type="line"/>
      <point x="628" y="389" type="line"/>
      <point x="628" y="592" type="line"/>
      <point x="927" y="592" type="line"/>
      <point x="910" y="680" type="line"/>
      <point x="516" y="680" type="line"/>
      <point x="516" y="668" type="line"/>
      <point x="467" y="686"/>
      <point x="413" y="694"/>
      <point x="381" y="694" type="curve"/>
      <point x="182" y="694"/>
      <point x="61" y="544"/>
      <point x="61" y="337" type="curve"/>
      <point x="61" y="142"/>
      <point x="163" y="-14"/>
      <point x="375" y="-14" type="curve"/>
      <point x="417" y="-14"/>
      <point x="471" y="-4"/>
      <point x="516" y="10" type="curve"/>
      <point x="516" y="0" type="line"/>
    </contour>
    <contour>
      <point x="439" y="599"/>
      <point x="462" y="588"/>
      <point x="516" y="571" type="curve"/>
      <point x="516" y="112" type="line"/>
      <point x="474" y="95"/>
      <point x="431" y="81"/>
      <point x="369" y="81" type="curve"/>
      <point x="244" y="81"/>
      <point x="179" y="198"/>
      <point x="179" y="338" type="curve"/>
      <point x="179" y="497"/>
      <point x="261" y="598"/>
      <point x="379" y="599" type="curve"/>
    </contour>
  </outline>
</glyph>
<glyph name="Rcedilla" format="1">
  <advance width="628"/>
  <unicode hex="0156"/>
  <outline>
    <contour>
      <point x="401" y="-53"/>
      <point x="371" y="-21"/>
      <point x="333" y="-21" type="curve"/>
      <point x="295" y="-21"/>
      <point x="266" y="-55"/>
      <point x="266" y="-89" type="curve"/>
      <point x="266" y="-122"/>
      <point x="294" y="-154"/>
      <point x="320" y="-154" type="curve"/>
      <point x="311" y="-184"/>
      <point x="287" y="-206"/>
      <point x="265" y="-216" type="curve"/>
      <point x="290" y="-269" type="line"/>
      <point x="351" y="-240"/>
      <point x="401" y="-173"/>
      <point x="401" y="-102" type="curve"/>
    </contour>
    <contour>
      <point x="487" y="0" type="line"/>
      <point x="608" y="0" type="line"/>
      <point x="438" y="296" type="line"/>
      <point x="508" y="328"/>
      <point x="556" y="387"/>
      <point x="556" y="475" type="curve"/>
      <point x="556" y="618"/>
      <point x="440" y="680"/>
      <point x="293" y="680" type="curve"/>
      <point x="89" y="680" type="line"/>
      <point x="89" y="0" type="line"/>
      <point x="201" y="0" type="line"/>
      <point x="201" y="265" type="line"/>
      <point x="283" y="265" type="line" smooth="yes"/>
      <point x="302" y="265"/>
      <point x="321" y="265"/>
      <point x="338" y="268" type="curve"/>
    </contour>
    <contour>
      <point x="290" y="586" type="line" smooth="yes"/>
      <point x="381" y="586"/>
      <point x="437" y="557"/>
      <point x="437" y="470" type="curve"/>
      <point x="437" y="387"/>
      <point x="373" y="357"/>
      <point x="289" y="357" type="curve"/>
      <point x="201" y="357" type="line"/>
      <point x="201" y="586" type="line"/>
    </contour>
  </outline>
</glyph>
<glyph name="scedilla" format="1">
  <advance width="437"/>
  <unicode hex="015F"/>
  <outline>
    <contour>
      <point x="269" y="402"/>
      <point x="307" y="388"/>
      <point x="349" y="368" type="curve"/>
      <point x="383" y="450" type="line"/>
      <point x="338" y="481"/>
      <point x="264" y="498"/>
      <point x="222" y="498" type="curve"/>
      <point x="107" y="498"/>
      <point x="36" y="444"/>
      <point x="36" y="353" type="curve"/>
      <point x="36" y="274"/>
      <point x="119" y="231"/>
      <point x="196" y="206" type="curve"/>
      <point x="255" y="187"/>
      <point x="287" y="163"/>
      <point x="287" y="131" type="curve"/>
      <point x="287" y="101"/>
      <point x="256" y="84"/>
      <point x="200" y="84" type="curve"/>
      <point x="160" y="84"/>
      <point x="115" y="96"/>
      <point x="71" y="117" type="curve"/>
      <point x="37" y="35" type="line"/>
      <point x="68" y="12"/>
      <point x="117" y="-2"/>
      <point x="158" y="-8" type="curve"/>
      <point x="131" y="-77" type="line"/>
      <point x="183" y="-82"/>
      <point x="219" y="-102"/>
      <point x="219" y="-124" type="curve"/>
      <point x="219" y="-141"/>
      <point x="198" y="-146"/>
      <point x="180" y="-146" type="curve"/>
      <point x="162" y="-146"/>
      <point x="133" y="-136"/>
      <point x="116" y="-128" type="curve"/>
      <point x="90" y="-195" type="line"/>
      <point x="110" y="-211"/>
      <point x="154" y="-221"/>
      <point x="180" y="-221" type="curve"/>
      <point x="243" y="-221"/>
      <point x="302" y="-190"/>
      <point x="302" y="-122" type="curve"/>
      <point x="302" y="-87"/>
      <point x="270" y="-49"/>
      <point x="230" y="-35" type="curve"/>
      <point x="240" y="-11" type="line"/>
      <point x="345" y="-1"/>
      <point x="400" y="52"/>
      <point x="400" y="136" type="curve"/>
      <point x="400" y="219"/>
      <point x="317" y="268"/>
      <point x="236" y="296" type="curve"/>
      <point x="182" y="316"/>
      <point x="153" y="332"/>
      <point x="153" y="355" type="curve"/>
      <point x="153" y="384"/>
      <point x="179" y="402"/>
      <point x="220" y="402" type="curve"/>
    </contour>
  </outline>
</glyph>
<glyph name="scaron" format="1">
  <advance width="437"/>
  <unicode hex="0161"/>
  <outline>
    <contour>
      <point x="269" y="402"/>
      <point x="307" y="388"/>
      <point x="349" y="368" type="curve"/>
      <point x="383" y="450" type="line"/>
      <point x="338" y="481"/>
      <point x="264" y="498"/>
      <point x="222" y="498" type="curve"/>
      <point x="107" y="498"/>
      <point x="36" y="444"/>
      <point x="36" y="353" type="curve"/>
      <point x="36" y="274"/>
      <point x="119" y="231"/>
      <point x="196" y="206" type="curve"/>
      <point x="255" y="187"/>
      <point x="287" y="163"/>
      <point x="287" y="131" type="curve"/>
      <point x="287" y="101"/>
      <point x="256" y="84"/>
      <point x="200" y="84" type="curve"/>
      <point x="160" y="84"/>
      <point x="115" y="96"/>
      <point x="71" y="117" type="curve"/>
      <point x="37" y="35" type="line"/>
      <point x="81" y="2"/>
      <point x="159" y="-12"/>
      <point x="201" y="-12" type="curve"/>
      <point x="332" y="-12"/>
      <point x="400" y="42"/>
      <point x="400" y="136" type="curve"/>
      <point x="400" y="219"/>
      <point x="317" y="268"/>
      <point x="236" y="296" type="curve"/>
      <point x="182" y="316"/>
      <point x="153" y="332"/>
      <point x="153" y="355" type="curve"/>
      <point x="153" y="384"/>
      <point x="179" y="402"/>
      <point x="220" y="402" type="curve"/>
    </contour>
    <contour>
      <point x="46" y="750" type="line"/>
      <point x="187" y="589" type="line"/>
      <point x="254" y="589" type="line"/>
      <point x="395" y="750" type="line"/>
      <point x="292" y="750" type="line"/>
      <point x="223" y="674" type="line"/>
      <point x="154" y="750" type="line"/>
    </contour>
  </outline>
</glyph>
<glyph name="Tcedilla" format="1">
  <advance width="565"/>
  <unicode hex="0162"/>
  <outline>
    <contour>
      <point x="558" y="591" type="line"/>
      <point x="541" y="680" type="line"/>
      <point x="7" y="680" type="line"/>
      <point x="7" y="591" type="line"/>
      <point x="216" y="591" type="line"/>
      <point x="216" y="0" type="line"/>
      <point x="234" y="0" type="line"/>
      <point x="223" y="-25"/>
      <point x="213" y="-51"/>
      <point x="203" y="-76" type="curve"/>
      <point x="255" y="-82"/>
      <point x="291" y="-101"/>
      <point x="291" y="-123" type="curve" smooth="yes"/>
      <point x="291" y="-140"/>
      <point x="270" y="-146"/>
      <point x="252" y="-146" type="curve" smooth="yes"/>
      <point x="235" y="-146"/>
      <point x="205" y="-136"/>
      <point x="188" y="-127" type="curve"/>
      <point x="179" y="-150"/>
      <point x="171" y="-173"/>
      <point x="162" y="-195" type="curve"/>
      <point x="183" y="-210"/>
      <point x="226" y="-221"/>
      <point x="252" y="-221" type="curve" smooth="yes"/>
      <point x="315" y="-221"/>
      <point x="374" y="-190"/>
      <point x="374" y="-121" type="curve" smooth="yes"/>
      <point x="374" y="-86"/>
      <point x="343" y="-48"/>
      <point x="303" y="-35" type="curve"/>
      <point x="317" y="0" type="line"/>
      <point x="330" y="0" type="line"/>
      <point x="330" y="591" type="line"/>
    </contour>
  </outline>
</glyph>
<glyph name="tcedilla" format="1">
  <advance width="356"/>
  <unicode hex="0163"/>
  <outline>
    <contour>
      <point x="309" y="90" type="line"/>
      <point x="293" y="83"/>
      <point x="276" y="78"/>
      <point x="259" y="78" type="curve"/>
      <point x="211" y="78"/>
      <point x="189" y="114"/>
      <point x="189" y="164" type="curve"/>
      <point x="189" y="395" type="line"/>
      <point x="312" y="395" type="line"/>
      <point x="277" y="482" type="line"/>
      <point x="189" y="482" type="line"/>
      <point x="189" y="622" type="line"/>
      <point x="76" y="599" type="line"/>
      <point x="76" y="482" type="line"/>
      <point x="10" y="482" type="line"/>
      <point x="10" y="395" type="line"/>
      <point x="76" y="395" type="line"/>
      <point x="76" y="145" type="line"/>
      <point x="76" y="63"/>
      <point x="116" y="9"/>
      <point x="184" y="-10" type="curve"/>
      <point x="157" y="-77" type="line"/>
      <point x="209" y="-82"/>
      <point x="245" y="-102"/>
      <point x="245" y="-124" type="curve"/>
      <point x="245" y="-141"/>
      <point x="224" y="-146"/>
      <point x="206" y="-146" type="curve"/>
      <point x="188" y="-146"/>
      <point x="158" y="-136"/>
      <point x="142" y="-128" type="curve"/>
      <point x="115" y="-195" type="line"/>
      <point x="136" y="-211"/>
      <point x="179" y="-221"/>
      <point x="206" y="-221" type="curve"/>
      <point x="269" y="-221"/>
      <point x="328" y="-190"/>
      <point x="328" y="-122" type="curve"/>
      <point x="328" y="-87"/>
      <point x="296" y="-49"/>
      <point x="256" y="-35" type="curve"/>
      <point x="263" y="-17" type="line"/>
      <point x="290" y="-15"/>
      <point x="323" y="-5"/>
      <point x="341" y="7" type="curve"/>
    </contour>
  </outline>
</glyph>
<glyph name="tcaron" format="1">
  <advance width="519"/>
  <unicode hex="0165"/>
  <outline>
    <contour>
      <point x="281" y="-18"/>
      <point x="321" y="-7"/>
      <point x="341" y="7" type="curve"/>
      <point x="309" y="90" type="line"/>
      <point x="293" y="83"/>
      <point x="276" y="78"/>
      <point x="259" y="78" type="curve"/>
      <point x="211" y="78"/>
      <point x="189" y="114"/>
      <point x="189" y="164" type="curve"/>
      <point x="189" y="395" type="line"/>
      <point x="312" y="395" type="line"/>
      <point x="277" y="482" type="line"/>
      <point x="189" y="482" type="line"/>
      <point x="189" y="622" type="line"/>
      <point x="76" y="599" type="line"/>
      <point x="76" y="482" type="line"/>
      <point x="10" y="482" type="line"/>
      <point x="10" y="395" type="line"/>
      <point x="76" y="395" type="line"/>
      <point x="76" y="145" type="line"/>
      <point x="76" y="39"/>
      <point x="143" y="-18"/>
      <point x="251" y="-18" type="curve"/>
    </contour>
    <contour>
      <point x="509" y="700"/>
      <point x="479" y="732"/>
      <point x="441" y="732" type="curve"/>
      <point x="404" y="732"/>
      <point x="374" y="697"/>
      <point x="374" y="664" type="curve"/>
      <point x="374" y="631"/>
      <point x="403" y="600"/>
      <point x="428" y="599" type="curve"/>
      <point x="419" y="558"/>
      <point x="395" y="537"/>
      <point x="362" y="510" type="curve"/>
      <point x="387" y="457" type="line"/>
      <point x="458" y="495"/>
      <point x="509" y="580"/>
      <point x="509" y="651" type="curve"/>
    </contour>
  </outline>
</glyph>
<glyph name="Uhungarumlaut" format="1">
  <advance width="706"/>
  <unicode hex="0170"/>
  <outline>
    <contour>
      <point x="258" y="81"/>
      <point x="195" y="140"/>
      <point x="195" y="254" type="curve" smooth="yes"/>
      <point x="195" y="680" type="line"/>
      <point x="82" y="680" type="line"/>
      <point x="82" y="245" type="line" smooth="yes"/>
      <point x="82" y="97"/>
      <point x="185" y="-11"/>
      <point x="352" y="-11" type="curve" smooth="yes"/>
      <point x="519" y="-11"/>
      <point x="623" y="98"/>
      <point x="623" y="245" type="curve" smooth="yes"/>
      <point x="623" y="680" type="line"/>
      <point x="509" y="680" type="line"/>
      <point x="509" y="254" type="line" smooth="yes"/>
      <point x="509" y="143"/>
      <point x="449" y="81"/>
      <point x="352" y="81" type="curve" smooth="yes"/>
    </contour>
    <contour>
      <point x="273" y="900" type="line"/>
      <point x="213" y="739" type="line"/>
      <point x="290" y="739" type="line"/>
      <point x="321" y="793"/>
      <point x="351" y="846"/>
      <point x="383" y="900" type="curve"/>
    </contour>
    <contour>
      <point x="444" y="900" type="line"/>
      <point x="384" y="739" type="line"/>
      <point x="462" y="739" type="line"/>
      <point x="555" y="900" type="line"/>
    </contour>
  </outline>
</glyph>
<glyph name="Uogonek" format="1">
  <advance width="706"/>
  <unicode hex="0172"/>
  <outline>
    <contour>
      <point x="258" y="81"/>
      <point x="195" y="140"/>
      <point x="195" y="254" type="curve" smooth="yes"/>
      <point x="195" y="680" type="line"/>
      <point x="82" y="680" type="line"/>
      <point x="82" y="245" type="line" smooth="yes"/>
      <point x="82" y="103"/>
      <point x="177" y="-2"/>
      <point x="332" y="-10" type="curve"/>
      <point x="315" y="-35"/>
      <point x="302" y="-72"/>
      <point x="302" y="-98" type="curve" smooth="yes"/>
      <point x="302" y="-159"/>
      <point x="348" y="-207"/>
      <point x="415" y="-207" type="curve" smooth="yes"/>
      <point x="452" y="-207"/>
      <point x="484" y="-197"/>
      <point x="512" y="-174" type="curve"/>
      <point x="501" y="-151"/>
      <point x="489" y="-128"/>
      <point x="479" y="-105" type="curve"/>
      <point x="463" y="-117"/>
      <point x="446" y="-123"/>
      <point x="434" y="-123" type="curve" smooth="yes"/>
      <point x="411" y="-123"/>
      <point x="398" y="-110"/>
      <point x="398" y="-89" type="curve" smooth="yes"/>
      <point x="398" y="-60"/>
      <point x="423" y="-17"/>
      <point x="446" y="2" type="curve"/>
      <point x="557" y="35"/>
      <point x="623" y="127"/>
      <point x="623" y="245" type="curve" smooth="yes"/>
      <point x="623" y="680" type="line"/>
      <point x="509" y="680" type="line"/>
      <point x="509" y="254" type="line" smooth="yes"/>
      <point x="509" y="143"/>
      <point x="449" y="81"/>
      <point x="352" y="81" type="curve" smooth="yes"/>
    </contour>
  </outline>
</glyph>
<glyph name="Ydieresis" format="1">
  <advance width="590"/>
  <unicode hex="0178"/>
  <outline>
    <contour>
      <point x="235" y="0" type="line"/>
      <point x="349" y="0" type="line"/>
      <point x="349" y="266" type="line"/>
      <point x="585" y="680" type="line"/>
      <point x="466" y="680" type="line"/>
      <point x="291" y="381" type="line"/>
      <point x="123" y="680" type="line"/>
      <point x="6" y="664" type="line"/>
      <point x="236" y="268" type="line"/>
    </contour>
    <contour>
      <point x="446" y="848"/>
      <point x="420" y="875"/>
      <point x="386" y="875" type="curve"/>
      <point x="354" y="875"/>
      <point x="327" y="848"/>
      <point x="327" y="816" type="curve"/>
      <point x="327" y="782"/>
      <point x="354" y="757"/>
      <point x="386" y="757" type="curve"/>
      <point x="420" y="757"/>
      <point x="446" y="782"/>
      <point x="446" y="816" type="curve"/>
    </contour>
    <contour>
      <point x="263" y="848"/>
      <point x="238" y="875"/>
      <point x="204" y="875" type="curve"/>
      <point x="171" y="875"/>
      <point x="144" y="848"/>
      <point x="144" y="816" type="curve"/>
      <point x="144" y="782"/>
      <point x="171" y="757"/>
      <point x="204" y="757" type="curve"/>
      <point x="238" y="757"/>
      <point x="263" y="782"/>
      <point x="263" y="816" type="curve"/>
    </contour>
  </outline>
</glyph>
<glyph name="Zacute" format="1">
  <advance width="576"/>
  <unicode hex="0179"/>
  <outline>
    <contour>
      <point x="552" y="0" type="line"/>
      <point x="547" y="29"/>
      <point x="543" y="58"/>
      <point x="539" y="88" type="curve"/>
      <point x="140" y="88" type="line"/>
      <point x="549" y="591" type="line"/>
      <point x="537" y="680" type="line"/>
      <point x="46" y="680" type="line"/>
      <point x="51" y="650"/>
      <point x="56" y="620"/>
      <point x="60" y="591" type="curve"/>
      <point x="419" y="591" type="line"/>
      <point x="286" y="423"/>
      <point x="151" y="256"/>
      <point x="18" y="88" type="curve"/>
      <point x="22" y="58"/>
      <point x="26" y="29"/>
      <point x="31" y="0" type="curve"/>
    </contour>
    <contour>
      <point x="264" y="900" type="line"/>
      <point x="204" y="739" type="line"/>
      <point x="289" y="739" type="line"/>
      <point x="321" y="793"/>
      <point x="351" y="846"/>
      <point x="382" y="900" type="curve"/>
    </contour>
  </outline>
</glyph>
<glyph name="Zcaron" format="1">
  <advance width="576"/>
  <unicode hex="017D"/>
  <outline>
    <contour>
      <point x="552" y="0" type="line"/>
      <point x="547" y="29"/>
      <point x="543" y="58"/>
      <point x="539" y="88" type="curve"/>
      <point x="140" y="88" type="line"/>
      <point x="549" y="591" type="line"/>
      <point x="537" y="680" type="line"/>
      <point x="46" y="680" type="line"/>
      <point x="51" y="650"/>
      <point x="56" y="620"/>
      <point x="60" y="591" type="curve"/>
      <point x="419" y="591" type="line"/>
      <point x="286" y="423"/>
      <point x="151" y="256"/>
      <point x="18" y="88" type="curve"/>
      <point x="22" y="58"/>
      <point x="26" y="29"/>
      <point x="31" y="0" type="curve"/>
    </contour>
    <contour>
      <point x="114" y="900" type="line"/>
      <point x="255" y="739" type="line"/>
      <point x="323" y="739" type="line"/>
      <point x="463" y="900" type="line"/>
      <point x="359" y="900" type="line"/>
      <point x="336" y="874"/>
      <point x="313" y="850"/>
      <point x="291" y="824" type="curve"/>
      <point x="268" y="850"/>
      <point x="244" y="874"/>
      <point x="222" y="900" type="curve"/>
    </contour>
  </outline>
</glyph>
<glyph name="Scommaaccent" format="1">
  <advance width="547"/>
  <unicode hex="0218"/>
  <outline>
    <contour>
      <point x="191" y="86"/>
      <point x="121" y="111"/>
      <point x="82" y="131" type="curve"/>
      <point x="56" y="41" type="line"/>
      <point x="85" y="15"/>
      <point x="194" y="-13"/>
      <point x="252" y="-13" type="curve" smooth="yes"/>
      <point x="414" y="-13"/>
      <point x="502" y="65"/>
      <point x="502" y="173" type="curve" smooth="yes"/>
      <point x="502" y="373"/>
      <point x="159" y="391"/>
      <point x="159" y="518" type="curve" smooth="yes"/>
      <point x="159" y="573"/>
      <point x="212" y="596"/>
      <point x="280" y="596" type="curve" smooth="yes"/>
      <point x="339" y="596"/>
      <point x="385" y="575"/>
      <point x="421" y="558" type="curve"/>
      <point x="433" y="588"/>
      <point x="447" y="617"/>
      <point x="459" y="648" type="curve"/>
      <point x="410" y="672"/>
      <point x="341" y="696"/>
      <point x="273" y="696" type="curve" smooth="yes"/>
      <point x="127" y="696"/>
      <point x="44" y="617"/>
      <point x="44" y="516" type="curve" smooth="yes"/>
      <point x="44" y="309"/>
      <point x="386" y="294"/>
      <point x="386" y="172" type="curve" smooth="yes"/>
      <point x="386" y="118"/>
      <point x="341" y="86"/>
      <point x="251" y="86" type="curve" smooth="yes"/>
    </contour>
    <contour>
      <point x="319" y="-53"/>
      <point x="289" y="-21"/>
      <point x="251" y="-21" type="curve" smooth="yes"/>
      <point x="214" y="-21"/>
      <point x="185" y="-55"/>
      <point x="185" y="-88" type="curve" smooth="yes"/>
      <point x="185" y="-122"/>
      <point x="213" y="-153"/>
      <point x="237" y="-154" type="curve"/>
      <point x="229" y="-184"/>
      <point x="205" y="-205"/>
      <point x="184" y="-216" type="curve"/>
      <point x="210" y="-269" type="line"/>
      <point x="270" y="-239"/>
      <point x="319" y="-173"/>
      <point x="319" y="-102" type="curve" smooth="yes"/>
    </contour>
  </outline>
</glyph>
<glyph name="uni021A" format="1">
  <advance width="565"/>
  <unicode hex="021A"/>
  <outline>
    <contour>
      <point x="558" y="591" type="line"/>
      <point x="541" y="680" type="line"/>
      <point x="7" y="680" type="line"/>
      <point x="7" y="591" type="line"/>
      <point x="216" y="591" type="line"/>
      <point x="216" y="0" type="line"/>
      <point x="330" y="0" type="line"/>
      <point x="330" y="591" type="line"/>
    </contour>
    <contour>
      <point x="343" y="-53"/>
      <point x="313" y="-21"/>
      <point x="275" y="-21" type="curve" smooth="yes"/>
      <point x="237" y="-21"/>
      <point x="207" y="-54"/>
      <point x="207" y="-88" type="curve" smooth="yes"/>
      <point x="207" y="-122"/>
      <point x="236" y="-153"/>
      <point x="261" y="-154" type="curve"/>
      <point x="253" y="-184"/>
      <point x="228" y="-205"/>
      <point x="207" y="-216" type="curve"/>
      <point x="232" y="-269" type="line"/>
      <point x="293" y="-239"/>
      <point x="343" y="-173"/>
      <point x="343" y="-102" type="curve" smooth="yes"/>
    </contour>
  </outline>
</glyph>
<glyph name="circumflex" format="1">
  <advance width="380"/>
  <unicode hex="02C6"/>
  <outline>
    <contour>
      <point x="123" y="589" type="line"/>
      <point x="192" y="665" type="line"/>
      <point x="260" y="589" type="line"/>
      <point x="365" y="589" type="line"/>
      <point x="224" y="750" type="line"/>
      <point x="156" y="750" type="line"/>
      <point x="16" y="589" type="line"/>
    </contour>
  </outline>
</glyph>
<glyph name="caron" format="1">
  <advance width="380"/>
  <unicode hex="02C7"/>
  <outline>
    <contour>
      <point x="16" y="750" type="line"/>
      <point x="156" y="589" type="line"/>
      <point x="224" y="589" type="line"/>
      <point x="365" y="750" type="line"/>
      <point x="260" y="750" type="line"/>
      <point x="192" y="674" type="line"/>
      <point x="123" y="750" type="line"/>
    </contour>
  </outline>
</glyph>
<glyph name="uni02C9" format="1">
  <advance width="288"/>
  <unicode hex="02C9"/>
  <outline>
    <contour>
      <point x="16" y="709" type="line"/>
      <point x="16" y="620" type="line"/>
      <point x="273" y="620" type="line"/>
      <point x="273" y="709" type="line"/>
    </contour>
  </outline>
</glyph>
<glyph name="dotaccent" format="1">
  <advance width="166"/>
  <unicode hex="02D9"/>
  <outline>
    <contour>
      <point x="149" y="704"/>
      <point x="121" y="734"/>
      <point x="83" y="734" type="curve"/>
      <point x="46" y="734"/>
      <point x="16" y="704"/>
      <point x="16" y="667" type="curve"/>
      <point x="16" y="628"/>
      <point x="46" y="600"/>
      <point x="83" y="600" type="curve"/>
      <point x="121" y="600"/>
      <point x="149" y="628"/>
      <point x="149" y="667" type="curve"/>
    </contour>
  </outline>
</glyph>
<glyph name="hungarumlaut" format="1">
  <advance width="373"/>
  <unicode hex="02DD"/>
  <outline>
    <contour>
      <point x="76" y="750" type="line"/>
      <point x="16" y="589" type="line"/>
      <point x="93" y="589" type="line"/>
      <point x="185" y="750" type="line"/>
    </contour>
    <contour>
      <point x="247" y="750" type="line"/>
      <point x="187" y="589" type="line"/>
      <point x="264" y="589" type="line"/>
      <point x="357" y="750" type="line"/>
    </contour>
  </outline>
</glyph>
<glyph name="dv_Candrabindu" format="1">
  <advance width="0"/>
  <unicode hex="0901"/>
  <outline>
    <contour>
      <point x="397" y="951" type="line"/>
      <point x="358" y="878"/>
      <point x="301" y="852"/>
      <point x="249" y="852" type="curve"/>
      <point x="198" y="852"/>
      <point x="134" y="883"/>
      <point x="102" y="951" type="curve"/>
      <point x="17" y="898" type="line"/>
      <point x="70" y="793"/>
      <point x="157" y="758"/>
      <point x="249" y="758" type="curve"/>
      <point x="341" y="758"/>
      <point x="428" y="793"/>
      <point x="482" y="898" type="curve"/>
    </contour>
    <contour>
      <point x="178" y="932"/>
      <point x="209" y="900"/>
      <point x="249" y="900" type="curve"/>
      <point x="289" y="900"/>
      <point x="321" y="932"/>
      <point x="321" y="972" type="curve"/>
      <point x="321" y="1012"/>
      <point x="289" y="1044"/>
      <point x="249" y="1044" type="curve"/>
      <point x="209" y="1044"/>
      <point x="178" y="1012"/>
      <point x="178" y="972" type="curve"/>
    </contour>
  </outline>
</glyph>
<glyph name="dv_Visarga" format="1">
  <advance width="194"/>
  <unicode hex="0903"/>
  <outline>
    <contour>
      <point x="25" y="423"/>
      <point x="56" y="392"/>
      <point x="97" y="392" type="curve"/>
      <point x="137" y="392"/>
      <point x="169" y="423"/>
      <point x="169" y="463" type="curve"/>
      <point x="169" y="502"/>
      <point x="137" y="534"/>
      <point x="97" y="534" type="curve"/>
      <point x="56" y="534"/>
      <point x="25" y="502"/>
      <point x="25" y="463" type="curve"/>
    </contour>
    <contour>
      <point x="25" y="77"/>
      <point x="56" y="47"/>
      <point x="97" y="47" type="curve"/>
      <point x="137" y="47"/>
      <point x="169" y="77"/>
      <point x="169" y="118" type="curve"/>
      <point x="169" y="157"/>
      <point x="137" y="190"/>
      <point x="97" y="190" type="curve"/>
      <point x="56" y="190"/>
      <point x="25" y="157"/>
      <point x="25" y="118" type="curve"/>
    </contour>
  </outline>
</glyph>
<glyph name="dv_ShortA" format="1">
  <advance width="942"/>
  <unicode hex="0904"/>
  <outline>
    <contour>
      <point x="435" y="-15"/>
      <point x="530" y="73"/>
      <point x="530" y="191" type="curve" smooth="yes"/>
      <point x="530" y="236"/>
      <point x="510" y="280"/>
      <point x="472" y="305" type="curve"/>
      <point x="714" y="305" type="line"/>
      <point x="714" y="0" type="line"/>
      <point x="836" y="-16" type="line"/>
      <point x="836" y="583" type="line"/>
      <point x="953" y="583" type="line"/>
      <point x="937" y="680" type="line"/>
      <point x="835" y="680" type="line"/>
      <point x="835" y="713" type="line" smooth="yes"/>
      <point x="835" y="792"/>
      <point x="751" y="855"/>
      <point x="649" y="855" type="curve" smooth="yes"/>
      <point x="590" y="855" type="line" smooth="yes"/>
      <point x="545" y="855"/>
      <point x="514" y="872"/>
      <point x="514" y="915" type="curve"/>
      <point x="405" y="932" type="line"/>
      <point x="405" y="896" type="line" smooth="yes"/>
      <point x="405" y="814"/>
      <point x="479" y="756"/>
      <point x="590" y="756" type="curve" smooth="yes"/>
      <point x="645" y="756" type="line" smooth="yes"/>
      <point x="695" y="756"/>
      <point x="719" y="729"/>
      <point x="719" y="685" type="curve" smooth="yes"/>
      <point x="719" y="680" type="line"/>
      <point x="598" y="680" type="line"/>
      <point x="615" y="583" type="line"/>
      <point x="714" y="583" type="line"/>
      <point x="714" y="396" type="line"/>
      <point x="458" y="396" type="line"/>
      <point x="492" y="423"/>
      <point x="516" y="466"/>
      <point x="516" y="507" type="curve" smooth="yes"/>
      <point x="516" y="607"/>
      <point x="446" y="697"/>
      <point x="294" y="697" type="curve" smooth="yes"/>
      <point x="210" y="697"/>
      <point x="136" y="673"/>
      <point x="75" y="632" type="curve"/>
      <point x="81" y="598"/>
      <point x="87" y="564"/>
      <point x="92" y="530" type="curve"/>
      <point x="159" y="577"/>
      <point x="217" y="597"/>
      <point x="283" y="597" type="curve" smooth="yes"/>
      <point x="353" y="597"/>
      <point x="391" y="554"/>
      <point x="391" y="505" type="curve" smooth="yes"/>
      <point x="391" y="444"/>
      <point x="346" y="395"/>
      <point x="249" y="395" type="curve" smooth="yes"/>
      <point x="139" y="395" type="line"/>
      <point x="155" y="307" type="line"/>
      <point x="242" y="307" type="line" smooth="yes"/>
      <point x="367" y="307"/>
      <point x="406" y="261"/>
      <point x="406" y="189" type="curve" smooth="yes"/>
      <point x="406" y="121"/>
      <point x="341" y="85"/>
      <point x="273" y="85" type="curve" smooth="yes"/>
      <point x="206" y="85"/>
      <point x="147" y="103"/>
      <point x="85" y="141" type="curve"/>
      <point x="63" y="41" type="line"/>
      <point x="119" y="9"/>
      <point x="199" y="-15"/>
      <point x="279" y="-15" type="curve" smooth="yes"/>
    </contour>
  </outline>
</glyph>
<glyph name="dv_I" format="1">
  <advance width="556"/>
  <unicode hex="0907"/>
  <outline>
    <contour>
      <point x="258" y="84"/>
      <point x="239" y="86"/>
      <point x="221" y="89" type="curve"/>
      <point x="205" y="132"/>
      <point x="161" y="168"/>
      <point x="110" y="168" type="curve" smooth="yes"/>
      <point x="75" y="168"/>
      <point x="49" y="145"/>
      <point x="49" y="111" type="curve" smooth="yes"/>
      <point x="49" y="56"/>
      <point x="99" y="17"/>
      <point x="139" y="-2" type="curve"/>
      <point x="265" y="-169" type="line"/>
      <point x="292" y="-149"/>
      <point x="319" y="-130"/>
      <point x="346" y="-111" type="curve"/>
      <point x="333" y="-95"/>
      <point x="312" y="-70"/>
      <point x="282" y="-32" type="curve" smooth="yes"/>
      <point x="269" y="-14" type="line"/>
      <point x="421" y="-14"/>
      <point x="511" y="59"/>
      <point x="511" y="157" type="curve" smooth="yes"/>
      <point x="511" y="273"/>
      <point x="425" y="324"/>
      <point x="304" y="324" type="curve" smooth="yes"/>
      <point x="223" y="324" type="line" smooth="yes"/>
      <point x="190" y="324"/>
      <point x="166" y="346"/>
      <point x="166" y="372" type="curve" smooth="yes"/>
      <point x="166" y="395"/>
      <point x="188" y="419"/>
      <point x="221" y="419" type="curve" smooth="yes"/>
      <point x="452" y="419" type="line"/>
      <point x="452" y="583" type="line"/>
      <point x="567" y="583" type="line"/>
      <point x="562" y="615"/>
      <point x="559" y="647"/>
      <point x="555" y="680" type="curve"/>
      <point x="-11" y="680" type="line"/>
      <point x="-6" y="647"/>
      <point x="-3" y="615"/>
      <point x="0" y="583" type="curve"/>
      <point x="331" y="583" type="line"/>
      <point x="331" y="521" type="line"/>
      <point x="218" y="521" type="line" smooth="yes"/>
      <point x="123" y="521"/>
      <point x="50" y="468"/>
      <point x="50" y="372" type="curve" smooth="yes"/>
      <point x="50" y="281"/>
      <point x="135" y="223"/>
      <point x="219" y="223" type="curve" smooth="yes"/>
      <point x="312" y="223" type="line" smooth="yes"/>
      <point x="362" y="223"/>
      <point x="386" y="194"/>
      <point x="386" y="157" type="curve" smooth="yes"/>
      <point x="386" y="119"/>
      <point x="354" y="84"/>
      <point x="279" y="84" type="curve" smooth="yes"/>
    </contour>
  </outline>
</glyph>
<glyph name="dv_VocalicL" format="1">
  <advance width="861"/>
  <unicode hex="090C"/>
  <outline>
    <contour>
      <point x="646" y="-58"/>
      <point x="621" y="-33"/>
      <point x="621" y="0" type="curve"/>
      <point x="621" y="33"/>
      <point x="646" y="58"/>
      <point x="686" y="58" type="curve"/>
      <point x="755" y="58" type="line"/>
      <point x="755" y="583" type="line"/>
      <point x="872" y="583" type="line"/>
      <point x="855" y="680" type="line"/>
      <point x="-11" y="680" type="line"/>
      <point x="5" y="583" type="line"/>
      <point x="632" y="583" type="line"/>
      <point x="632" y="475" type="line"/>
      <point x="610" y="489"/>
      <point x="578" y="497"/>
      <point x="550" y="497" type="curve"/>
      <point x="494" y="497"/>
      <point x="442" y="477"/>
      <point x="408" y="438" type="curve"/>
      <point x="373" y="476"/>
      <point x="319" y="496"/>
      <point x="260" y="497" type="curve"/>
      <point x="152" y="496"/>
      <point x="61" y="412"/>
      <point x="61" y="317" type="curve"/>
      <point x="61" y="212"/>
      <point x="106" y="125"/>
      <point x="183" y="-23" type="curve"/>
      <point x="281" y="11" type="line"/>
      <point x="202" y="171"/>
      <point x="171" y="237"/>
      <point x="171" y="310" type="curve"/>
      <point x="171" y="354"/>
      <point x="208" y="393"/>
      <point x="260" y="393" type="curve"/>
      <point x="328" y="393"/>
      <point x="354" y="347"/>
      <point x="354" y="278" type="curve"/>
      <point x="355" y="153" type="line"/>
      <point x="466" y="138" type="line"/>
      <point x="466" y="278" type="line" smooth="yes"/>
      <point x="466" y="347"/>
      <point x="498" y="396"/>
      <point x="549" y="396" type="curve"/>
      <point x="596" y="396"/>
      <point x="626" y="359"/>
      <point x="632" y="302" type="curve"/>
      <point x="632" y="147" type="line"/>
      <point x="570" y="130"/>
      <point x="517" y="78"/>
      <point x="517" y="0" type="curve"/>
      <point x="517" y="-97"/>
      <point x="594" y="-153"/>
      <point x="676" y="-153" type="curve"/>
      <point x="706" y="-153"/>
      <point x="740" y="-151"/>
      <point x="777" y="-141" type="curve"/>
      <point x="757" y="-45" type="line"/>
      <point x="724" y="-55"/>
      <point x="702" y="-58"/>
      <point x="686" y="-58" type="curve"/>
    </contour>
  </outline>
</glyph>
<glyph name="dv_CandraE" format="1">
  <advance width="721"/>
  <unicode hex="090D"/>
  <outline>
    <contour>
      <point x="515" y="952" type="line"/>
      <point x="475" y="880"/>
      <point x="418" y="854"/>
      <point x="366" y="854" type="curve"/>
      <point x="315" y="854"/>
      <point x="251" y="883"/>
      <point x="219" y="952" type="curve"/>
      <point x="134" y="900" type="line"/>
      <point x="188" y="794"/>
      <point x="274" y="760"/>
      <point x="366" y="760" type="curve"/>
      <point x="458" y="760"/>
      <point x="546" y="793"/>
      <point x="599" y="900" type="curve"/>
    </contour>
    <contour>
      <point x="495" y="274" type="line"/>
      <point x="496" y="207"/>
      <point x="464" y="184"/>
      <point x="387" y="157" type="curve"/>
      <point x="439" y="65" type="line"/>
      <point x="562" y="105"/>
      <point x="618" y="156"/>
      <point x="618" y="253" type="curve"/>
      <point x="618" y="583" type="line"/>
      <point x="733" y="583" type="line"/>
      <point x="717" y="680" type="line"/>
      <point x="-11" y="680" type="line"/>
      <point x="5" y="583" type="line"/>
      <point x="105" y="583" type="line"/>
      <point x="105" y="151" type="line" smooth="yes"/>
      <point x="105" y="61"/>
      <point x="139" y="10"/>
      <point x="208" y="-29" type="curve"/>
      <point x="465" y="-181" type="line"/>
      <point x="525" y="-89" type="line"/>
      <point x="272" y="69" type="line" smooth="yes"/>
      <point x="236" y="92"/>
      <point x="228" y="127"/>
      <point x="228" y="161" type="curve"/>
      <point x="228" y="583" type="line"/>
      <point x="495" y="583" type="line"/>
    </contour>
  </outline>
</glyph>
<glyph name="dv_ShortE" format="1">
  <advance width="721"/>
  <unicode hex="090E"/>
  <outline>
    <contour>
      <point x="285" y="855" type="line" smooth="yes"/>
      <point x="239" y="855"/>
      <point x="209" y="872"/>
      <point x="209" y="915" type="curve"/>
      <point x="99" y="932" type="line"/>
      <point x="99" y="896" type="line" smooth="yes"/>
      <point x="99" y="814"/>
      <point x="173" y="756"/>
      <point x="285" y="756" type="curve" smooth="yes"/>
      <point x="419" y="756" type="line" smooth="yes"/>
      <point x="465" y="756"/>
      <point x="493" y="728"/>
      <point x="493" y="685" type="curve" smooth="yes"/>
      <point x="493" y="680" type="line"/>
      <point x="-11" y="680" type="line"/>
      <point x="-5" y="647"/>
      <point x="0" y="615"/>
      <point x="5" y="583" type="curve"/>
      <point x="105" y="583" type="line"/>
      <point x="105" y="150" type="line" smooth="yes"/>
      <point x="105" y="43"/>
      <point x="152" y="-1"/>
      <point x="247" y="-51" type="curve"/>
      <point x="320" y="-95"/>
      <point x="392" y="-137"/>
      <point x="464" y="-180" type="curve"/>
      <point x="485" y="-150"/>
      <point x="505" y="-119"/>
      <point x="525" y="-89" type="curve"/>
      <point x="272" y="69" type="line" smooth="yes"/>
      <point x="235" y="92"/>
      <point x="228" y="126"/>
      <point x="228" y="161" type="curve" smooth="yes"/>
      <point x="228" y="583" type="line"/>
      <point x="495" y="583" type="line"/>
      <point x="495" y="274" type="line" smooth="yes"/>
      <point x="495" y="207"/>
      <point x="464" y="184"/>
      <point x="387" y="157" type="curve"/>
      <point x="438" y="65" type="line"/>
      <point x="562" y="105"/>
      <point x="618" y="156"/>
      <point x="618" y="253" type="curve" smooth="yes"/>
      <point x="618" y="583" type="line"/>
      <point x="732" y="583" type="line"/>
      <point x="717" y="680" type="line"/>
      <point x="608" y="680" type="line"/>
      <point x="608" y="713" type="line" smooth="yes"/>
      <point x="608" y="792"/>
      <point x="524" y="855"/>
      <point x="423" y="855" type="curve" smooth="yes"/>
    </contour>
  </outline>
</glyph>
<glyph name="dv_ShortO" format="1">
  <advance width="1261"/>
  <unicode hex="0912"/>
  <outline>
    <contour>
      <point x="851" y="855" type="line" smooth="yes"/>
      <point x="806" y="855"/>
      <point x="777" y="872"/>
      <point x="777" y="915" type="curve"/>
      <point x="666" y="932" type="line"/>
      <point x="666" y="896" type="line" smooth="yes"/>
      <point x="666" y="814"/>
      <point x="740" y="756"/>
      <point x="852" y="756" type="curve" smooth="yes"/>
      <point x="959" y="756" type="line" smooth="yes"/>
      <point x="1009" y="756"/>
      <point x="1034" y="729"/>
      <point x="1034" y="685" type="curve" smooth="yes"/>
      <point x="1034" y="680" type="line"/>
      <point x="598" y="680" type="line"/>
      <point x="615" y="583" type="line"/>
      <point x="714" y="583" type="line"/>
      <point x="714" y="396" type="line"/>
      <point x="458" y="396" type="line"/>
      <point x="492" y="423"/>
      <point x="516" y="464"/>
      <point x="516" y="506" type="curve" smooth="yes"/>
      <point x="516" y="606"/>
      <point x="446" y="697"/>
      <point x="294" y="697" type="curve" smooth="yes"/>
      <point x="210" y="697"/>
      <point x="136" y="673"/>
      <point x="75" y="632" type="curve"/>
      <point x="81" y="598"/>
      <point x="87" y="564"/>
      <point x="92" y="530" type="curve"/>
      <point x="159" y="577"/>
      <point x="217" y="597"/>
      <point x="283" y="597" type="curve" smooth="yes"/>
      <point x="353" y="597"/>
      <point x="391" y="552"/>
      <point x="391" y="504" type="curve" smooth="yes"/>
      <point x="391" y="443"/>
      <point x="346" y="395"/>
      <point x="249" y="395" type="curve" smooth="yes"/>
      <point x="139" y="395" type="line"/>
      <point x="155" y="307" type="line"/>
      <point x="242" y="307" type="line" smooth="yes"/>
      <point x="367" y="307"/>
      <point x="406" y="260"/>
      <point x="406" y="187" type="curve" smooth="yes"/>
      <point x="406" y="118"/>
      <point x="343" y="85"/>
      <point x="273" y="85" type="curve" smooth="yes"/>
      <point x="206" y="85"/>
      <point x="147" y="103"/>
      <point x="85" y="141" type="curve"/>
      <point x="63" y="41" type="line"/>
      <point x="119" y="9"/>
      <point x="199" y="-15"/>
      <point x="279" y="-15" type="curve" smooth="yes"/>
      <point x="435" y="-15"/>
      <point x="530" y="71"/>
      <point x="530" y="189" type="curve" smooth="yes"/>
      <point x="530" y="235"/>
      <point x="510" y="280"/>
      <point x="472" y="305" type="curve"/>
      <point x="714" y="305" type="line"/>
      <point x="714" y="0" type="line"/>
      <point x="836" y="-16" type="line"/>
      <point x="836" y="583" type="line"/>
      <point x="1032" y="583" type="line"/>
      <point x="1032" y="0" type="line"/>
      <point x="1156" y="-16" type="line"/>
      <point x="1156" y="583" type="line"/>
      <point x="1272" y="583" type="line"/>
      <point x="1255" y="680" type="line"/>
      <point x="1148" y="680" type="line"/>
      <point x="1148" y="713" type="line" smooth="yes"/>
      <point x="1148" y="792"/>
      <point x="1065" y="855"/>
      <point x="964" y="855" type="curve" smooth="yes"/>
    </contour>
  </outline>
</glyph>
<glyph name="dv_Nya" format="1">
  <advance width="789"/>
  <unicode hex="091E"/>
  <outline>
    <contour>
      <point x="151" y="173"/>
      <point x="85" y="203"/>
      <point x="37" y="247" type="curve"/>
      <point x="15" y="138" type="line"/>
      <point x="67" y="103"/>
      <point x="142" y="71"/>
      <point x="224" y="71" type="curve"/>
      <point x="336" y="71"/>
      <point x="424" y="127"/>
      <point x="444" y="238" type="curve"/>
      <point x="561" y="238" type="line"/>
      <point x="561" y="0" type="line"/>
      <point x="683" y="-16" type="line"/>
      <point x="683" y="583" type="line"/>
      <point x="800" y="583" type="line"/>
      <point x="785" y="680" type="line"/>
      <point x="-11" y="680" type="line"/>
      <point x="5" y="583" type="line"/>
      <point x="561" y="583" type="line"/>
      <point x="561" y="336" type="line"/>
      <point x="445" y="336" type="line"/>
      <point x="425" y="452"/>
      <point x="337" y="510"/>
      <point x="224" y="510" type="curve"/>
      <point x="182" y="510"/>
      <point x="135" y="504"/>
      <point x="86" y="487" type="curve"/>
      <point x="113" y="392" type="line"/>
      <point x="151" y="403"/>
      <point x="191" y="408"/>
      <point x="221" y="408" type="curve"/>
      <point x="289" y="408"/>
      <point x="337" y="362"/>
      <point x="337" y="291" type="curve"/>
      <point x="337" y="218"/>
      <point x="288" y="173"/>
      <point x="220" y="173" type="curve"/>
    </contour>
  </outline>
</glyph>
<glyph name="dv_Ta" format="1">
  <advance width="687"/>
  <unicode hex="0924"/>
  <outline>
    <contour>
      <point x="460" y="0" type="line"/>
      <point x="583" y="-16" type="line"/>
      <point x="583" y="583" type="line"/>
      <point x="698" y="583" type="line"/>
      <point x="683" y="680" type="line"/>
      <point x="-11" y="680" type="line"/>
      <point x="5" y="583" type="line"/>
      <point x="460" y="583" type="line"/>
      <point x="460" y="467" type="line"/>
      <point x="241" y="467" type="line" smooth="yes"/>
      <point x="124" y="467"/>
      <point x="58" y="394"/>
      <point x="58" y="297" type="curve"/>
      <point x="58" y="201"/>
      <point x="145" y="77"/>
      <point x="213" y="-21" type="curve"/>
      <point x="323" y="12" type="line"/>
      <point x="242" y="135"/>
      <point x="179" y="231"/>
      <point x="179" y="293" type="curve"/>
      <point x="179" y="343"/>
      <point x="213" y="368"/>
      <point x="282" y="368" type="curve"/>
      <point x="460" y="368" type="line"/>
    </contour>
  </outline>
</glyph>
<glyph name="dv_Tha" format="1">
  <advance width="703"/>
  <unicode hex="0925"/>
  <outline>
    <contour>
      <point x="197" y="474"/>
      <point x="232" y="493"/>
      <point x="240" y="516" type="curve"/>
      <point x="232" y="452"/>
      <point x="189" y="410"/>
      <point x="126" y="390" type="curve"/>
      <point x="118" y="380"/>
      <point x="110" y="371"/>
      <point x="102" y="360" type="curve"/>
      <point x="102" y="253"/>
      <point x="220" y="157"/>
      <point x="343" y="157" type="curve" smooth="yes"/>
      <point x="406" y="157"/>
      <point x="443" y="172"/>
      <point x="475" y="192" type="curve"/>
      <point x="475" y="0" type="line"/>
      <point x="598" y="-16" type="line"/>
      <point x="598" y="583" type="line"/>
      <point x="714" y="583" type="line"/>
      <point x="708" y="615"/>
      <point x="704" y="647"/>
      <point x="698" y="680" type="curve"/>
      <point x="377" y="680" type="line"/>
      <point x="383" y="647"/>
      <point x="388" y="615"/>
      <point x="393" y="583" type="curve"/>
      <point x="475" y="583" type="line"/>
      <point x="475" y="405" type="line" smooth="yes"/>
      <point x="475" y="386"/>
      <point x="474" y="369"/>
      <point x="473" y="352" type="curve"/>
      <point x="462" y="295"/>
      <point x="409" y="260"/>
      <point x="347" y="260" type="curve" smooth="yes"/>
      <point x="281" y="260"/>
      <point x="241" y="296"/>
      <point x="223" y="329" type="curve"/>
      <point x="281" y="362"/>
      <point x="342" y="406"/>
      <point x="342" y="521" type="curve" smooth="yes"/>
      <point x="342" y="622"/>
      <point x="268" y="697"/>
      <point x="181" y="697" type="curve" smooth="yes"/>
      <point x="101" y="697"/>
      <point x="45" y="647"/>
      <point x="45" y="577" type="curve" smooth="yes"/>
      <point x="45" y="513"/>
      <point x="99" y="474"/>
      <point x="159" y="474" type="curve" smooth="yes"/>
    </contour>
    <contour>
      <point x="185" y="616"/>
      <point x="199" y="602"/>
      <point x="204" y="591" type="curve"/>
      <point x="202" y="568"/>
      <point x="188" y="551"/>
      <point x="163" y="551" type="curve" smooth="yes"/>
      <point x="148" y="551"/>
      <point x="133" y="564"/>
      <point x="133" y="581" type="curve" smooth="yes"/>
      <point x="133" y="603"/>
      <point x="150" y="616"/>
      <point x="170" y="616" type="curve" smooth="yes"/>
    </contour>
  </outline>
</glyph>
<glyph name="dv_Ma" format="1">
  <advance width="681"/>
  <unicode hex="092E"/>
  <outline>
    <contour>
      <point x="453" y="227" type="line"/>
      <point x="453" y="0" type="line"/>
      <point x="576" y="-16" type="line"/>
      <point x="576" y="583" type="line"/>
      <point x="692" y="583" type="line"/>
      <point x="687" y="615"/>
      <point x="682" y="647"/>
      <point x="676" y="680" type="curve"/>
      <point x="-11" y="680" type="line"/>
      <point x="-5" y="647"/>
      <point x="0" y="615"/>
      <point x="5" y="583" type="curve"/>
      <point x="114" y="583" type="line"/>
      <point x="114" y="322" type="line"/>
      <point x="68" y="322"/>
      <point x="44" y="297"/>
      <point x="44" y="269" type="curve" smooth="yes"/>
      <point x="44" y="201"/>
      <point x="115" y="149"/>
      <point x="182" y="149" type="curve" smooth="yes"/>
      <point x="225" y="149"/>
      <point x="233" y="194"/>
      <point x="233" y="227" type="curve"/>
    </contour>
    <contour>
      <point x="453" y="583" type="line"/>
      <point x="453" y="322" type="line"/>
      <point x="233" y="322" type="line"/>
      <point x="233" y="583" type="line"/>
    </contour>
  </outline>
</glyph>
<glyph name="dv_Rra" format="1">
  <advance width="458"/>
  <unicode hex="0931"/>
  <outline>
    <contour>
      <point x="15" y="-31"/>
      <point x="46" y="-63"/>
      <point x="86" y="-63" type="curve" smooth="yes"/>
      <point x="126" y="-63"/>
      <point x="158" y="-31"/>
      <point x="158" y="8" type="curve" smooth="yes"/>
      <point x="158" y="47"/>
      <point x="126" y="79"/>
      <point x="86" y="79" type="curve" smooth="yes"/>
      <point x="46" y="79"/>
      <point x="15" y="47"/>
      <point x="15" y="8" type="curve" smooth="yes"/>
    </contour>
    <contour>
      <point x="176" y="155"/>
      <point x="225" y="67"/>
      <point x="276" y="-20" type="curve"/>
      <point x="315" y="-10"/>
      <point x="353" y="0"/>
      <point x="392" y="9" type="curve"/>
      <point x="236" y="257" type="line"/>
      <point x="325" y="288"/>
      <point x="383" y="370"/>
      <point x="383" y="464" type="curve" smooth="yes"/>
      <point x="383" y="501"/>
      <point x="374" y="547"/>
      <point x="356" y="583" type="curve"/>
      <point x="469" y="583" type="line"/>
      <point x="453" y="680" type="line"/>
      <point x="-11" y="680" type="line"/>
      <point x="-5" y="647"/>
      <point x="0" y="615"/>
      <point x="5" y="583" type="curve"/>
      <point x="224" y="583" type="line"/>
      <point x="251" y="558"/>
      <point x="268" y="513"/>
      <point x="268" y="466" type="curve" smooth="yes"/>
      <point x="268" y="418"/>
      <point x="243" y="374"/>
      <point x="200" y="354" type="curve"/>
      <point x="192" y="378"/>
      <point x="172" y="414"/>
      <point x="152" y="414" type="curve" smooth="yes"/>
      <point x="93" y="414"/>
      <point x="37" y="339"/>
      <point x="37" y="282" type="curve"/>
      <point x="43" y="244"/>
      <point x="80" y="243"/>
      <point x="125" y="243" type="curve"/>
    </contour>
  </outline>
</glyph>
<glyph name="dv_Llla" format="1">
  <advance width="911"/>
  <unicode hex="0934"/>
  <outline>
    <contour>
      <point x="420" y="470"/>
      <point x="353" y="505"/>
      <point x="276" y="505" type="curve"/>
      <point x="141" y="505"/>
      <point x="45" y="400"/>
      <point x="45" y="267" type="curve"/>
      <point x="45" y="132"/>
      <point x="141" y="41"/>
      <point x="278" y="41" type="curve"/>
      <point x="355" y="41"/>
      <point x="413" y="83"/>
      <point x="452" y="137" type="curve"/>
      <point x="501" y="77"/>
      <point x="567" y="43"/>
      <point x="643" y="43" type="curve"/>
      <point x="775" y="43"/>
      <point x="875" y="148"/>
      <point x="875" y="281" type="curve"/>
      <point x="875" y="394"/>
      <point x="805" y="477"/>
      <point x="703" y="500" type="curve"/>
      <point x="703" y="583" type="line"/>
      <point x="922" y="583" type="line"/>
      <point x="907" y="680" type="line"/>
      <point x="-11" y="680" type="line"/>
      <point x="5" y="583" type="line"/>
      <point x="580" y="583" type="line"/>
      <point x="580" y="497" type="line"/>
      <point x="532" y="482"/>
      <point x="495" y="449"/>
      <point x="469" y="412" type="curve"/>
    </contour>
    <contour>
      <point x="203" y="142"/>
      <point x="153" y="198"/>
      <point x="153" y="265" type="curve"/>
      <point x="153" y="339"/>
      <point x="203" y="403"/>
      <point x="278" y="403" type="curve"/>
      <point x="338" y="402"/>
      <point x="391" y="366"/>
      <point x="421" y="313" type="curve"/>
      <point x="419" y="310"/>
      <point x="415" y="293"/>
      <point x="415" y="290" type="curve"/>
      <point x="394" y="221"/>
      <point x="348" y="142"/>
      <point x="278" y="142" type="curve"/>
    </contour>
    <contour>
      <point x="717" y="407"/>
      <point x="766" y="350"/>
      <point x="766" y="283" type="curve"/>
      <point x="766" y="207"/>
      <point x="715" y="143"/>
      <point x="641" y="143" type="curve"/>
      <point x="586" y="143"/>
      <point x="531" y="180"/>
      <point x="501" y="234" type="curve"/>
      <point x="508" y="257" type="line"/>
      <point x="529" y="328"/>
      <point x="571" y="407"/>
      <point x="641" y="407" type="curve"/>
    </contour>
    <contour>
      <point x="381" y="-108"/>
      <point x="412" y="-139"/>
      <point x="453" y="-139" type="curve"/>
      <point x="493" y="-139"/>
      <point x="524" y="-108"/>
      <point x="524" y="-68" type="curve"/>
      <point x="524" y="-29"/>
      <point x="493" y="4"/>
      <point x="453" y="4" type="curve"/>
      <point x="412" y="4"/>
      <point x="381" y="-29"/>
      <point x="381" y="-68" type="curve"/>
    </contour>
  </outline>
</glyph>
<glyph name="dv_Va" format="1">
  <advance width="622"/>
  <unicode hex="0935"/>
  <outline>
    <contour>
      <point x="44" y="160"/>
      <point x="138" y="70"/>
      <point x="274" y="70" type="curve"/>
      <point x="317" y="70"/>
      <point x="372" y="91"/>
      <point x="394" y="115" type="curve"/>
      <point x="394" y="0" type="line"/>
      <point x="517" y="-16" type="line"/>
      <point x="517" y="583" type="line"/>
      <point x="633" y="583" type="line"/>
      <point x="617" y="680" type="line"/>
      <point x="-11" y="680" type="line"/>
      <point x="5" y="583" type="line"/>
      <point x="394" y="583" type="line"/>
      <point x="394" y="455" type="line"/>
      <point x="372" y="479"/>
      <point x="317" y="500"/>
      <point x="274" y="500" type="curve"/>
      <point x="135" y="500"/>
      <point x="44" y="407"/>
      <point x="44" y="285" type="curve"/>
    </contour>
    <contour>
      <point x="218" y="171"/>
      <point x="162" y="218"/>
      <point x="162" y="284" type="curve"/>
      <point x="163" y="352"/>
      <point x="219" y="398"/>
      <point x="278" y="398" type="curve"/>
      <point x="336" y="398"/>
      <point x="373" y="365"/>
      <point x="394" y="334" type="curve"/>
      <point x="394" y="235" type="line"/>
      <point x="373" y="205"/>
      <point x="336" y="171"/>
      <point x="278" y="171" type="curve"/>
    </contour>
  </outline>
</glyph>
<glyph name="dv_Sha" format="1">
  <advance width="801"/>
  <unicode hex="0936"/>
  <outline>
    <contour>
      <point x="140" y="235" type="line"/>
      <point x="300" y="-20" type="line"/>
      <point x="339" y="-10"/>
      <point x="378" y="0"/>
      <point x="417" y="9" type="curve"/>
      <point x="361" y="89"/>
      <point x="306" y="169"/>
      <point x="251" y="249" type="curve"/>
      <point x="343" y="283"/>
      <point x="422" y="355"/>
      <point x="422" y="460" type="curve" smooth="yes"/>
      <point x="422" y="586"/>
      <point x="341" y="697"/>
      <point x="199" y="697" type="curve" smooth="yes"/>
      <point x="113" y="697"/>
      <point x="48" y="644"/>
      <point x="48" y="572" type="curve" smooth="yes"/>
      <point x="48" y="504"/>
      <point x="104" y="464"/>
      <point x="172" y="464" type="curve" smooth="yes"/>
      <point x="223" y="464"/>
      <point x="274" y="491"/>
      <point x="289" y="531" type="curve"/>
      <point x="302" y="513"/>
      <point x="307" y="481"/>
      <point x="307" y="457" type="curve" smooth="yes"/>
      <point x="307" y="404"/>
      <point x="271" y="355"/>
      <point x="217" y="341" type="curve"/>
      <point x="208" y="366"/>
      <point x="189" y="406"/>
      <point x="168" y="406" type="curve" smooth="yes"/>
      <point x="108" y="406"/>
      <point x="52" y="331"/>
      <point x="52" y="274" type="curve"/>
      <point x="56" y="250"/>
      <point x="77" y="235"/>
      <point x="104" y="235" type="curve" smooth="yes"/>
    </contour>
    <contour>
      <point x="572" y="0" type="line"/>
      <point x="695" y="-16" type="line"/>
      <point x="695" y="583" type="line"/>
      <point x="812" y="583" type="line"/>
      <point x="796" y="680" type="line"/>
      <point x="458" y="680" type="line"/>
      <point x="473" y="583" type="line"/>
      <point x="572" y="583" type="line"/>
    </contour>
    <contour>
      <point x="163" y="543"/>
      <point x="145" y="554"/>
      <point x="145" y="574" type="curve" smooth="yes"/>
      <point x="145" y="597"/>
      <point x="163" y="613"/>
      <point x="189" y="616" type="curve"/>
      <point x="210" y="616"/>
      <point x="230" y="609"/>
      <point x="243" y="596" type="curve"/>
      <point x="241" y="577"/>
      <point x="220" y="543"/>
      <point x="181" y="543" type="curve" smooth="yes"/>
    </contour>
  </outline>
</glyph>
<glyph name="dv_Ha" format="1">
  <advance width="551"/>
  <unicode hex="0939"/>
  <outline>
    <contour>
      <point x="347" y="300"/>
      <point x="386" y="272"/>
      <point x="386" y="238" type="curve"/>
      <point x="386" y="212"/>
      <point x="376" y="194"/>
      <point x="349" y="174" type="curve"/>
      <point x="435" y="115" type="line"/>
      <point x="480" y="144"/>
      <point x="499" y="195"/>
      <point x="499" y="242" type="curve"/>
      <point x="499" y="329"/>
      <point x="420" y="402"/>
      <point x="289" y="402" type="curve"/>
      <point x="263" y="402"/>
      <point x="240" y="398"/>
      <point x="219" y="392" type="curve"/>
      <point x="205" y="398"/>
      <point x="198" y="409"/>
      <point x="198" y="423" type="curve"/>
      <point x="198" y="443"/>
      <point x="212" y="455"/>
      <point x="243" y="455" type="curve"/>
      <point x="449" y="455" type="line"/>
      <point x="449" y="583" type="line"/>
      <point x="562" y="583" type="line"/>
      <point x="545" y="680" type="line"/>
      <point x="-11" y="680" type="line"/>
      <point x="4" y="583" type="line"/>
      <point x="317" y="583" type="line"/>
      <point x="317" y="548" type="line"/>
      <point x="230" y="548" type="line" smooth="yes"/>
      <point x="145" y="548"/>
      <point x="79" y="507"/>
      <point x="79" y="422" type="curve"/>
      <point x="79" y="381"/>
      <point x="92" y="351"/>
      <point x="117" y="330" type="curve"/>
      <point x="88" y="298"/>
      <point x="73" y="256"/>
      <point x="73" y="209" type="curve"/>
      <point x="73" y="71"/>
      <point x="205" y="-8"/>
      <point x="359" y="-16" type="curve"/>
      <point x="385" y="83" type="line"/>
      <point x="292" y="90"/>
      <point x="185" y="126"/>
      <point x="185" y="209" type="curve"/>
      <point x="185" y="260"/>
      <point x="226" y="300"/>
      <point x="287" y="300" type="curve"/>
    </contour>
  </outline>
</glyph>
<glyph name="dv_MatraOe" format="1">
  <advance width="0"/>
  <unicode hex="093A"/>
  <outline>
    <contour>
      <point x="-36" y="886" type="line"/>
      <point x="-154" y="902" type="line"/>
      <point x="-154" y="680" type="line"/>
      <point x="-36" y="680" type="line"/>
    </contour>
  </outline>
</glyph>
<glyph name="dv_Avagraha" format="1">
  <advance width="561"/>
  <unicode hex="093D"/>
  <outline>
    <contour>
      <point x="213" y="87"/>
      <point x="150" y="111"/>
      <point x="94" y="150" type="curve"/>
      <point x="40" y="50" type="line"/>
      <point x="110" y="3"/>
      <point x="206" y="-18"/>
      <point x="264" y="-18" type="curve"/>
      <point x="414" y="-18"/>
      <point x="494" y="65"/>
      <point x="494" y="173" type="curve"/>
      <point x="494" y="280"/>
      <point x="380" y="408"/>
      <point x="305" y="498" type="curve"/>
      <point x="232" y="584" type="line"/>
      <point x="501" y="584" type="line"/>
      <point x="481" y="680" type="line"/>
      <point x="79" y="680" type="line"/>
      <point x="79" y="597" type="line"/>
      <point x="232" y="424" type="line" smooth="yes"/>
      <point x="301" y="346"/>
      <point x="381" y="241"/>
      <point x="381" y="173" type="curve"/>
      <point x="381" y="119"/>
      <point x="336" y="87"/>
      <point x="272" y="87" type="curve"/>
    </contour>
  </outline>
</glyph>
<glyph name="dv_MatraAa" format="1">
  <advance width="332"/>
  <unicode hex="093E"/>
  <outline>
    <contour>
      <point x="103" y="0" type="line"/>
      <point x="227" y="-16" type="line"/>
      <point x="227" y="583" type="line"/>
      <point x="344" y="583" type="line"/>
      <point x="326" y="680" type="line"/>
      <point x="-11" y="680" type="line"/>
      <point x="5" y="583" type="line"/>
      <point x="103" y="583" type="line"/>
    </contour>
  </outline>
</glyph>
<glyph name="dv_MatraVocalicR" format="1">
  <advance width="0"/>
  <unicode hex="0943"/>
  <outline>
    <contour>
      <point x="-213" y="-230"/>
      <point x="-238" y="-206"/>
      <point x="-238" y="-172" type="curve" smooth="yes"/>
      <point x="-238" y="-141"/>
      <point x="-213" y="-115"/>
      <point x="-173" y="-115" type="curve" smooth="yes"/>
      <point x="-104" y="-115" type="line"/>
      <point x="-104" y="-18" type="line"/>
      <point x="-183" y="-18" type="line" smooth="yes"/>
      <point x="-260" y="-18"/>
      <point x="-341" y="-75"/>
      <point x="-341" y="-172" type="curve" smooth="yes"/>
      <point x="-341" y="-268"/>
      <point x="-265" y="-326"/>
      <point x="-183" y="-326" type="curve" smooth="yes"/>
      <point x="-154" y="-326"/>
      <point x="-119" y="-324"/>
      <point x="-82" y="-312" type="curve"/>
      <point x="-102" y="-217" type="line"/>
      <point x="-134" y="-227"/>
      <point x="-157" y="-230"/>
      <point x="-173" y="-230" type="curve" smooth="yes"/>
    </contour>
  </outline>
</glyph>
<glyph name="dv_MatraVocalicRr" format="1">
  <advance width="0"/>
  <unicode hex="0944"/>
  <outline>
    <contour>
      <point x="-270" y="-134"/>
      <point x="-258" y="-154"/>
      <point x="-243" y="-166" type="curve"/>
      <point x="-257" y="-179"/>
      <point x="-270" y="-199"/>
      <point x="-270" y="-221" type="curve"/>
      <point x="-270" y="-290"/>
      <point x="-211" y="-315"/>
      <point x="-158" y="-315" type="curve"/>
      <point x="-129" y="-315" type="line"/>
      <point x="-106" y="-240" type="line"/>
      <point x="-141" y="-240" type="line" smooth="yes"/>
      <point x="-169" y="-240"/>
      <point x="-182" y="-234"/>
      <point x="-182" y="-221" type="curve"/>
      <point x="-182" y="-208"/>
      <point x="-159" y="-202"/>
      <point x="-131" y="-202" type="curve"/>
      <point x="-109" y="-131" type="line"/>
      <point x="-141" y="-131" type="line" smooth="yes"/>
      <point x="-158" y="-131"/>
      <point x="-177" y="-125"/>
      <point x="-177" y="-114" type="curve"/>
      <point x="-177" y="-99"/>
      <point x="-158" y="-93"/>
      <point x="-141" y="-93" type="curve"/>
      <point x="-104" y="-93" type="line"/>
      <point x="-104" y="-18" type="line"/>
      <point x="-158" y="-18" type="line" smooth="yes"/>
      <point x="-211" y="-18"/>
      <point x="-270" y="-42"/>
      <point x="-270" y="-114" type="curve"/>
    </contour>
  </outline>
</glyph>
<glyph name="dv_MatraCandraO" format="1">
  <advance width="332"/>
  <unicode hex="0949"/>
  <outline>
    <contour>
      <point x="103" y="0" type="line"/>
      <point x="227" y="-16" type="line"/>
      <point x="227" y="583" type="line"/>
      <point x="344" y="583" type="line"/>
      <point x="326" y="680" type="line"/>
      <point x="-11" y="680" type="line"/>
      <point x="5" y="583" type="line"/>
      <point x="103" y="583" type="line"/>
    </contour>
    <contour>
      <point x="315" y="952" type="line"/>
      <point x="275" y="880"/>
      <point x="218" y="854"/>
      <point x="166" y="854" type="curve"/>
      <point x="115" y="854"/>
      <point x="51" y="883"/>
      <point x="18" y="952" type="curve"/>
      <point x="-66" y="900" type="line"/>
      <point x="-13" y="794"/>
      <point x="73" y="760"/>
      <point x="166" y="760" type="curve"/>
      <point x="257" y="760"/>
      <point x="344" y="793"/>
      <point x="398" y="900" type="curve"/>
    </contour>
  </outline>
</glyph>
<glyph name="dv_MatraAu" format="1">
  <advance width="332"/>
  <unicode hex="094C"/>
  <outline>
    <contour>
      <point x="217" y="680" type="line"/>
      <point x="139" y="1017" type="line"/>
      <point x="26" y="984" type="line"/>
      <point x="44" y="930"/>
      <point x="62" y="875"/>
      <point x="79" y="821" type="curve"/>
      <point x="30" y="859"/>
      <point x="-18" y="859"/>
      <point x="-75" y="859" type="curve" smooth="yes"/>
      <point x="-166" y="859" type="line"/>
      <point x="-144" y="754" type="line"/>
      <point x="-47" y="754" type="line" smooth="yes"/>
      <point x="20" y="754"/>
      <point x="40" y="740"/>
      <point x="105" y="680" type="curve"/>
      <point x="-11" y="680" type="line"/>
      <point x="-5" y="647"/>
      <point x="0" y="615"/>
      <point x="5" y="583" type="curve"/>
      <point x="103" y="583" type="line"/>
      <point x="103" y="0" type="line"/>
      <point x="227" y="-16" type="line"/>
      <point x="227" y="583" type="line"/>
      <point x="343" y="583" type="line"/>
      <point x="338" y="615"/>
      <point x="332" y="647"/>
      <point x="326" y="680" type="curve"/>
    </contour>
  </outline>
</glyph>
<glyph name="dv_Om" format="1">
  <advance width="882"/>
  <unicode hex="0950"/>
  <outline>
    <contour>
      <point x="516" y="607"/>
      <point x="446" y="697"/>
      <point x="294" y="697" type="curve" smooth="yes"/>
      <point x="210" y="697"/>
      <point x="136" y="673"/>
      <point x="75" y="632" type="curve"/>
      <point x="81" y="598"/>
      <point x="87" y="564"/>
      <point x="92" y="530" type="curve"/>
      <point x="159" y="577"/>
      <point x="217" y="597"/>
      <point x="283" y="597" type="curve" smooth="yes"/>
      <point x="353" y="597"/>
      <point x="391" y="554"/>
      <point x="391" y="505" type="curve" smooth="yes"/>
      <point x="391" y="444"/>
      <point x="346" y="395"/>
      <point x="249" y="395" type="curve" smooth="yes"/>
      <point x="139" y="395" type="line"/>
      <point x="155" y="307" type="line"/>
      <point x="242" y="307" type="line" smooth="yes"/>
      <point x="367" y="307"/>
      <point x="406" y="261"/>
      <point x="406" y="189" type="curve" smooth="yes"/>
      <point x="406" y="119"/>
      <point x="343" y="85"/>
      <point x="273" y="85" type="curve" smooth="yes"/>
      <point x="206" y="85"/>
      <point x="147" y="103"/>
      <point x="85" y="141" type="curve"/>
      <point x="63" y="41" type="line"/>
      <point x="117" y="10"/>
      <point x="198" y="-15"/>
      <point x="279" y="-15" type="curve" smooth="yes"/>
      <point x="435" y="-15"/>
      <point x="530" y="73"/>
      <point x="530" y="191" type="curve" smooth="yes"/>
      <point x="530" y="205"/>
      <point x="528" y="220"/>
      <point x="524" y="234" type="curve"/>
      <point x="546" y="261"/>
      <point x="579" y="287"/>
      <point x="633" y="287" type="curve" smooth="yes"/>
      <point x="692" y="287"/>
      <point x="733" y="245"/>
      <point x="733" y="184" type="curve" smooth="yes"/>
      <point x="733" y="122"/>
      <point x="686" y="80"/>
      <point x="605" y="80" type="curve"/>
      <point x="612" y="47"/>
      <point x="619" y="13"/>
      <point x="627" y="-20" type="curve"/>
      <point x="749" y="-20"/>
      <point x="851" y="50"/>
      <point x="851" y="184" type="curve" smooth="yes"/>
      <point x="851" y="305"/>
      <point x="774" y="388"/>
      <point x="636" y="388" type="curve" smooth="yes"/>
      <point x="562" y="388"/>
      <point x="503" y="352"/>
      <point x="468" y="320" type="curve"/>
      <point x="452" y="333"/>
      <point x="432" y="342"/>
      <point x="408" y="348" type="curve"/>
      <point x="482" y="372"/>
      <point x="516" y="447"/>
      <point x="516" y="507" type="curve" smooth="yes"/>
    </contour>
    <contour>
      <point x="790" y="857" type="line"/>
      <point x="751" y="784"/>
      <point x="694" y="758"/>
      <point x="642" y="758" type="curve"/>
      <point x="591" y="758"/>
      <point x="527" y="789"/>
      <point x="495" y="857" type="curve"/>
      <point x="410" y="804" type="line"/>
      <point x="463" y="699"/>
      <point x="550" y="664"/>
      <point x="642" y="664" type="curve"/>
      <point x="734" y="664"/>
      <point x="821" y="699"/>
      <point x="875" y="804" type="curve"/>
    </contour>
    <contour>
      <point x="571" y="838"/>
      <point x="602" y="806"/>
      <point x="642" y="806" type="curve"/>
      <point x="682" y="806"/>
      <point x="714" y="838"/>
      <point x="714" y="878" type="curve"/>
      <point x="714" y="918"/>
      <point x="682" y="950"/>
      <point x="642" y="950" type="curve"/>
      <point x="602" y="950"/>
      <point x="571" y="918"/>
      <point x="571" y="878" type="curve"/>
    </contour>
  </outline>
</glyph>
<glyph name="dv_Udatta" format="1">
  <advance width="0"/>
  <unicode hex="0951"/>
  <outline>
    <contour>
      <point x="117" y="748" type="line"/>
      <point x="131" y="949" type="line"/>
      <point x="17" y="949" type="line"/>
      <point x="30" y="748" type="line"/>
    </contour>
  </outline>
</glyph>
<glyph name="dv_Acuteaccent" format="1">
  <advance width="0"/>
  <unicode hex="0954"/>
  <outline>
    <contour>
      <point x="218" y="949" type="line"/>
      <point x="102" y="949" type="line"/>
      <point x="74" y="882"/>
      <point x="45" y="815"/>
      <point x="17" y="747" type="curve"/>
      <point x="93" y="747" type="line"/>
    </contour>
  </outline>
</glyph>
<glyph name="dv_MatraUe" format="1">
  <advance width="0"/>
  <unicode hex="0956"/>
  <outline>
    <contour>
      <point x="397" y="-49" type="line"/>
      <point x="358" y="-120"/>
      <point x="301" y="-147"/>
      <point x="249" y="-147" type="curve"/>
      <point x="198" y="-147"/>
      <point x="134" y="-117"/>
      <point x="102" y="-49" type="curve"/>
      <point x="17" y="-100" type="line"/>
      <point x="70" y="-206"/>
      <point x="157" y="-240"/>
      <point x="249" y="-240" type="curve"/>
      <point x="341" y="-240"/>
      <point x="428" y="-206"/>
      <point x="482" y="-100" type="curve"/>
    </contour>
  </outline>
</glyph>
<glyph name="dv_Khha" format="1">
  <advance width="944"/>
  <unicode hex="0959"/>
  <outline>
    <contour>
      <point x="839" y="-16" type="line"/>
      <point x="839" y="583" type="line"/>
      <point x="955" y="583" type="line"/>
      <point x="940" y="680" type="line"/>
      <point x="-11" y="680" type="line"/>
      <point x="-5" y="647"/>
      <point x="0" y="615"/>
      <point x="5" y="583" type="curve"/>
      <point x="216" y="583" type="line"/>
      <point x="243" y="558"/>
      <point x="260" y="510"/>
      <point x="260" y="464" type="curve" smooth="yes"/>
      <point x="260" y="414"/>
      <point x="231" y="372"/>
      <point x="197" y="356" type="curve"/>
      <point x="188" y="382"/>
      <point x="175" y="414"/>
      <point x="153" y="414" type="curve" smooth="yes"/>
      <point x="92" y="414"/>
      <point x="30" y="339"/>
      <point x="30" y="282" type="curve"/>
      <point x="35" y="246"/>
      <point x="70" y="243"/>
      <point x="111" y="243" type="curve"/>
      <point x="135" y="118"/>
      <point x="251" y="-17"/>
      <point x="456" y="-17" type="curve" smooth="yes"/>
      <point x="557" y="-17"/>
      <point x="650" y="18"/>
      <point x="716" y="76" type="curve"/>
      <point x="716" y="0" type="line"/>
    </contour>
    <contour>
      <point x="509" y="520"/>
      <point x="426" y="437"/>
      <point x="426" y="328" type="curve" smooth="yes"/>
      <point x="426" y="233"/>
      <point x="497" y="149"/>
      <point x="595" y="149" type="curve" smooth="yes"/>
      <point x="605" y="149"/>
      <point x="614" y="150"/>
      <point x="624" y="151" type="curve"/>
      <point x="586" y="113"/>
      <point x="525" y="84"/>
      <point x="456" y="84" type="curve" smooth="yes"/>
      <point x="320" y="84"/>
      <point x="246" y="186"/>
      <point x="228" y="257" type="curve"/>
      <point x="315" y="289"/>
      <point x="374" y="370"/>
      <point x="374" y="464" type="curve" smooth="yes"/>
      <point x="374" y="501"/>
      <point x="364" y="547"/>
      <point x="347" y="583" type="curve"/>
      <point x="716" y="583" type="line"/>
      <point x="716" y="502" type="line"/>
      <point x="692" y="514"/>
      <point x="663" y="520"/>
      <point x="633" y="520" type="curve" smooth="yes"/>
    </contour>
    <contour>
      <point x="590" y="241"/>
      <point x="551" y="272"/>
      <point x="551" y="329" type="curve" smooth="yes"/>
      <point x="551" y="384"/>
      <point x="590" y="417"/>
      <point x="633" y="417" type="curve" smooth="yes"/>
      <point x="676" y="417"/>
      <point x="715" y="384"/>
      <point x="715" y="328" type="curve" smooth="yes"/>
      <point x="715" y="273"/>
      <point x="677" y="241"/>
      <point x="633" y="241" type="curve" smooth="yes"/>
    </contour>
    <contour>
      <point x="35" y="-31"/>
      <point x="67" y="-63"/>
      <point x="107" y="-63" type="curve" smooth="yes"/>
      <point x="146" y="-63"/>
      <point x="178" y="-31"/>
      <point x="178" y="8" type="curve" smooth="yes"/>
      <point x="178" y="47"/>
      <point x="146" y="79"/>
      <point x="107" y="79" type="curve" smooth="yes"/>
      <point x="67" y="79"/>
      <point x="35" y="47"/>
      <point x="35" y="8" type="curve" smooth="yes"/>
    </contour>
  </outline>
</glyph>
<glyph name="dv_Ghha" format="1">
  <advance width="677"/>
  <unicode hex="095A"/>
  <outline>
    <contour>
      <point x="124" y="-31"/>
      <point x="155" y="-63"/>
      <point x="196" y="-63" type="curve" smooth="yes"/>
      <point x="235" y="-63"/>
      <point x="267" y="-31"/>
      <point x="267" y="8" type="curve" smooth="yes"/>
      <point x="267" y="47"/>
      <point x="235" y="79"/>
      <point x="196" y="79" type="curve" smooth="yes"/>
      <point x="155" y="79"/>
      <point x="124" y="47"/>
      <point x="124" y="8" type="curve" smooth="yes"/>
    </contour>
    <contour>
      <point x="448" y="0" type="line"/>
      <point x="571" y="-16" type="line"/>
      <point x="571" y="583" type="line"/>
      <point x="687" y="583" type="line"/>
      <point x="671" y="680" type="line"/>
      <point x="-11" y="680" type="line"/>
      <point x="-5" y="647"/>
      <point x="0" y="615"/>
      <point x="5" y="583" type="curve"/>
      <point x="126" y="583" type="line"/>
      <point x="126" y="329" type="line"/>
      <point x="92" y="329"/>
      <point x="57" y="312"/>
      <point x="57" y="282" type="curve" smooth="yes"/>
      <point x="57" y="227"/>
      <point x="128" y="149"/>
      <point x="199" y="149" type="curve" smooth="yes"/>
      <point x="232" y="149"/>
      <point x="249" y="175"/>
      <point x="249" y="216" type="curve" smooth="yes"/>
      <point x="249" y="583" type="line"/>
      <point x="448" y="583" type="line"/>
    </contour>
  </outline>
</glyph>
<glyph name="dv_Za" format="1">
  <advance width="799"/>
  <unicode hex="095B"/>
  <outline>
    <contour>
      <point x="572" y="369" type="line"/>
      <point x="572" y="0" type="line"/>
      <point x="693" y="-16" type="line"/>
      <point x="693" y="583" type="line"/>
      <point x="811" y="583" type="line"/>
      <point x="794" y="680" type="line"/>
      <point x="-11" y="680" type="line"/>
      <point x="-5" y="647"/>
      <point x="0" y="615"/>
      <point x="5" y="583" type="curve"/>
      <point x="572" y="583" type="line"/>
      <point x="572" y="466" type="line"/>
      <point x="159" y="466" type="line"/>
      <point x="175" y="369" type="line"/>
      <point x="235" y="369" type="line" smooth="yes"/>
      <point x="311" y="369"/>
      <point x="344" y="327"/>
      <point x="344" y="269" type="curve" smooth="yes"/>
      <point x="344" y="209"/>
      <point x="297" y="161"/>
      <point x="220" y="161" type="curve"/>
      <point x="161" y="163"/>
      <point x="97" y="191"/>
      <point x="37" y="236" type="curve"/>
      <point x="15" y="126" type="line"/>
      <point x="66" y="93"/>
      <point x="142" y="60"/>
      <point x="224" y="60" type="curve" smooth="yes"/>
      <point x="345" y="60"/>
      <point x="461" y="124"/>
      <point x="461" y="274" type="curve" smooth="yes"/>
      <point x="461" y="311"/>
      <point x="451" y="343"/>
      <point x="437" y="369" type="curve"/>
    </contour>
    <contour>
      <point x="154" y="-107"/>
      <point x="186" y="-138"/>
      <point x="226" y="-138" type="curve" smooth="yes"/>
      <point x="265" y="-138"/>
      <point x="298" y="-107"/>
      <point x="298" y="-67" type="curve" smooth="yes"/>
      <point x="298" y="-28"/>
      <point x="265" y="4"/>
      <point x="226" y="4" type="curve" smooth="yes"/>
      <point x="186" y="4"/>
      <point x="154" y="-28"/>
      <point x="154" y="-67" type="curve" smooth="yes"/>
    </contour>
  </outline>
</glyph>
<glyph name="dv_VocalicRr" format="1">
  <advance width="901"/>
  <unicode hex="0960"/>
  <outline>
    <contour>
      <point x="654" y="-30"/>
      <point x="641" y="-54"/>
      <point x="641" y="-87" type="curve" smooth="yes"/>
      <point x="641" y="-159"/>
      <point x="714" y="-194"/>
      <point x="762" y="-194" type="curve" smooth="yes"/>
      <point x="797" y="-194" type="line"/>
      <point x="820" y="-101" type="line"/>
      <point x="782" y="-101" type="line" smooth="yes"/>
      <point x="765" y="-101"/>
      <point x="745" y="-94"/>
      <point x="745" y="-74" type="curve" smooth="yes"/>
      <point x="745" y="-58"/>
      <point x="768" y="-48"/>
      <point x="786" y="-48" type="curve" smooth="yes"/>
      <point x="811" y="-48" type="line"/>
      <point x="832" y="44" type="line"/>
      <point x="792" y="44" type="line" smooth="yes"/>
      <point x="774" y="44"/>
      <point x="759" y="46"/>
      <point x="759" y="67" type="curve" smooth="yes"/>
      <point x="759" y="99"/>
      <point x="853" y="148"/>
      <point x="853" y="222" type="curve" smooth="yes"/>
      <point x="853" y="281"/>
      <point x="818" y="327"/>
      <point x="763" y="393" type="curve"/>
      <point x="776" y="408"/>
      <point x="782" y="423"/>
      <point x="782" y="440" type="curve" smooth="yes"/>
      <point x="782" y="493"/>
      <point x="725" y="526"/>
      <point x="677" y="526" type="curve" smooth="yes"/>
      <point x="641" y="526"/>
      <point x="611" y="507"/>
      <point x="611" y="466" type="curve" smooth="yes"/>
      <point x="611" y="439"/>
      <point x="620" y="419"/>
      <point x="631" y="404" type="curve"/>
      <point x="612" y="378"/>
      <point x="566" y="368"/>
      <point x="489" y="356" type="curve"/>
      <point x="489" y="583" type="line"/>
      <point x="911" y="583" type="line"/>
      <point x="895" y="680" type="line"/>
      <point x="-11" y="680" type="line"/>
      <point x="-5" y="647"/>
      <point x="0" y="615"/>
      <point x="5" y="583" type="curve"/>
      <point x="366" y="583" type="line"/>
      <point x="366" y="422" type="line"/>
      <point x="296" y="480"/>
      <point x="238" y="484"/>
      <point x="183" y="484" type="curve" smooth="yes"/>
      <point x="160" y="484"/>
      <point x="77" y="467"/>
      <point x="35" y="446" type="curve"/>
      <point x="82" y="343" type="line"/>
      <point x="129" y="365"/>
      <point x="176" y="378"/>
      <point x="198" y="378" type="curve" smooth="yes"/>
      <point x="237" y="378"/>
      <point x="279" y="360"/>
      <point x="336" y="305" type="curve"/>
      <point x="83" y="155" type="line"/>
      <point x="106" y="125"/>
      <point x="127" y="94"/>
      <point x="150" y="64" type="curve"/>
      <point x="366" y="193" type="line"/>
      <point x="366" y="0" type="line"/>
      <point x="489" y="-16" type="line"/>
      <point x="489" y="257" type="line"/>
      <point x="568" y="263"/>
      <point x="656" y="287"/>
      <point x="691" y="324" type="curve"/>
      <point x="728" y="282"/>
      <point x="744" y="258"/>
      <point x="744" y="222" type="curve" smooth="yes"/>
      <point x="744" y="168"/>
      <point x="649" y="112"/>
      <point x="649" y="48" type="curve" smooth="yes"/>
      <point x="649" y="21"/>
      <point x="662" y="2"/>
      <point x="681" y="-8" type="curve"/>
    </contour>
  </outline>
</glyph>
<glyph name="dv_MatraVocalicL" format="1">
  <advance width="0"/>
  <unicode hex="0962"/>
  <outline>
    <contour>
      <point x="275" y="-152" type="line" smooth="yes"/>
      <point x="275" y="-122"/>
      <point x="297" y="-105"/>
      <point x="319" y="-105" type="curve"/>
      <point x="337" y="-105"/>
      <point x="356" y="-116"/>
      <point x="356" y="-137" type="curve"/>
      <point x="356" y="-176"/>
      <point x="315" y="-211"/>
      <point x="315" y="-266" type="curve"/>
      <point x="315" y="-314"/>
      <point x="366" y="-330"/>
      <point x="398" y="-330" type="curve"/>
      <point x="426" y="-330" type="line"/>
      <point x="446" y="-252" type="line"/>
      <point x="430" y="-252" type="line" smooth="yes"/>
      <point x="414" y="-252"/>
      <point x="410" y="-237"/>
      <point x="414" y="-227" type="curve"/>
      <point x="425" y="-200"/>
      <point x="449" y="-171"/>
      <point x="449" y="-130" type="curve"/>
      <point x="449" y="-72"/>
      <point x="399" y="-19"/>
      <point x="325" y="-19" type="curve"/>
      <point x="288" y="-19"/>
      <point x="248" y="-42"/>
      <point x="233" y="-69" type="curve"/>
      <point x="218" y="-40"/>
      <point x="181" y="-19"/>
      <point x="142" y="-19" type="curve"/>
      <point x="70" y="-19"/>
      <point x="17" y="-72"/>
      <point x="17" y="-130" type="curve"/>
      <point x="17" y="-192"/>
      <point x="44" y="-244"/>
      <point x="90" y="-333" type="curve"/>
      <point x="179" y="-312" type="line"/>
      <point x="131" y="-222"/>
      <point x="108" y="-181"/>
      <point x="108" y="-136" type="curve"/>
      <point x="108" y="-122"/>
      <point x="127" y="-105"/>
      <point x="146" y="-105" type="curve"/>
      <point x="169" y="-105"/>
      <point x="191" y="-119"/>
      <point x="191" y="-152" type="curve"/>
      <point x="191" y="-220" type="line"/>
      <point x="275" y="-241" type="line"/>
    </contour>
  </outline>
</glyph>
<glyph name="dv_MatraVocalicLl" format="1">
  <advance width="0"/>
  <unicode hex="0963"/>
  <outline>
    <contour>
      <point x="313" y="-389"/>
      <point x="354" y="-412"/>
      <point x="401" y="-412" type="curve" smooth="yes"/>
      <point x="421" y="-412" type="line"/>
      <point x="442" y="-350" type="line"/>
      <point x="411" y="-350" type="line" smooth="yes"/>
      <point x="396" y="-350"/>
      <point x="380" y="-346"/>
      <point x="380" y="-333" type="curve" smooth="yes"/>
      <point x="380" y="-322"/>
      <point x="394" y="-317"/>
      <point x="408" y="-317" type="curve" smooth="yes"/>
      <point x="430" y="-317" type="line"/>
      <point x="450" y="-248" type="line"/>
      <point x="439" y="-248" type="line" smooth="yes"/>
      <point x="422" y="-248"/>
      <point x="417" y="-240"/>
      <point x="417" y="-231" type="curve" smooth="yes"/>
      <point x="417" y="-200"/>
      <point x="449" y="-175"/>
      <point x="449" y="-130" type="curve" smooth="yes"/>
      <point x="449" y="-71"/>
      <point x="398" y="-18"/>
      <point x="325" y="-18" type="curve" smooth="yes"/>
      <point x="288" y="-18"/>
      <point x="248" y="-42"/>
      <point x="233" y="-69" type="curve"/>
      <point x="218" y="-40"/>
      <point x="181" y="-18"/>
      <point x="142" y="-18" type="curve" smooth="yes"/>
      <point x="68" y="-18"/>
      <point x="17" y="-73"/>
      <point x="17" y="-130" type="curve" smooth="yes"/>
      <point x="17" y="-192"/>
      <point x="44" y="-244"/>
      <point x="90" y="-332" type="curve"/>
      <point x="179" y="-312" type="line"/>
      <point x="131" y="-221"/>
      <point x="108" y="-181"/>
      <point x="108" y="-136" type="curve" smooth="yes"/>
      <point x="108" y="-122"/>
      <point x="127" y="-105"/>
      <point x="146" y="-105" type="curve" smooth="yes"/>
      <point x="169" y="-105"/>
      <point x="191" y="-118"/>
      <point x="191" y="-151" type="curve" smooth="yes"/>
      <point x="191" y="-219" type="line"/>
      <point x="274" y="-240" type="line"/>
      <point x="274" y="-151" type="line" smooth="yes"/>
      <point x="274" y="-122"/>
      <point x="296" y="-105"/>
      <point x="318" y="-105" type="curve" smooth="yes"/>
      <point x="344" y="-105"/>
      <point x="360" y="-120"/>
      <point x="360" y="-141" type="curve" smooth="yes"/>
      <point x="360" y="-177"/>
      <point x="326" y="-201"/>
      <point x="327" y="-258" type="curve" smooth="yes"/>
      <point x="327" y="-266"/>
      <point x="330" y="-280"/>
      <point x="337" y="-287" type="curve"/>
      <point x="324" y="-296"/>
      <point x="313" y="-313"/>
      <point x="313" y="-333" type="curve" smooth="yes"/>
    </contour>
  </outline>
</glyph>
<glyph name="dv_Two" format="1">
  <advance width="520"/>
  <unicode hex="0968"/>
  <outline>
    <contour>
      <point x="179" y="244" type="line"/>
      <point x="334" y="-20" type="line"/>
      <point x="450" y="9" type="line"/>
      <point x="292" y="255" type="line"/>
      <point x="401" y="292"/>
      <point x="463" y="376"/>
      <point x="463" y="470" type="curve" smooth="yes"/>
      <point x="463" y="568"/>
      <point x="394" y="697"/>
      <point x="229" y="697" type="curve" smooth="yes"/>
      <point x="154" y="697"/>
      <point x="81" y="660"/>
      <point x="51" y="637" type="curve"/>
      <point x="65" y="607"/>
      <point x="80" y="578"/>
      <point x="94" y="549" type="curve"/>
      <point x="115" y="562"/>
      <point x="168" y="597"/>
      <point x="227" y="597" type="curve" smooth="yes"/>
      <point x="302" y="597"/>
      <point x="348" y="539"/>
      <point x="348" y="474" type="curve" smooth="yes"/>
      <point x="348" y="420"/>
      <point x="316" y="365"/>
      <point x="257" y="351" type="curve"/>
      <point x="248" y="379"/>
      <point x="227" y="415"/>
      <point x="207" y="415" type="curve" smooth="yes"/>
      <point x="147" y="415"/>
      <point x="93" y="338"/>
      <point x="93" y="284" type="curve" smooth="yes"/>
      <point x="93" y="260"/>
      <point x="116" y="244"/>
      <point x="143" y="244" type="curve" smooth="yes"/>
    </contour>
  </outline>
</glyph>
<glyph name="dv_Five" format="1">
  <advance width="562"/>
  <unicode hex="096B"/>
  <outline>
    <contour>
      <point x="353" y="85"/>
      <point x="340" y="84"/>
      <point x="296" y="99" type="curve"/>
      <point x="286" y="67"/>
      <point x="277" y="35"/>
      <point x="268" y="3" type="curve"/>
      <point x="312" y="-13"/>
      <point x="361" y="-16"/>
      <point x="382" y="-16" type="curve" smooth="yes"/>
      <point x="508" y="-16"/>
      <point x="541" y="58"/>
      <point x="541" y="136" type="curve" smooth="yes"/>
      <point x="541" y="172"/>
      <point x="522" y="249"/>
      <point x="488" y="304" type="curve"/>
      <point x="501" y="321"/>
      <point x="505" y="338"/>
      <point x="505" y="357" type="curve" smooth="yes"/>
      <point x="505" y="407"/>
      <point x="453" y="443"/>
      <point x="403" y="443" type="curve" smooth="yes"/>
      <point x="362" y="443"/>
      <point x="334" y="403"/>
      <point x="334" y="376" type="curve" smooth="yes"/>
      <point x="334" y="362"/>
      <point x="338" y="349"/>
      <point x="342" y="336" type="curve"/>
      <point x="257" y="336"/>
      <point x="203" y="367"/>
      <point x="203" y="461" type="curve" smooth="yes"/>
      <point x="203" y="680" type="line"/>
      <point x="80" y="680" type="line"/>
      <point x="80" y="461" type="line" smooth="yes"/>
      <point x="80" y="302"/>
      <point x="200" y="234"/>
      <point x="337" y="234" type="curve" smooth="yes"/>
      <point x="358" y="234"/>
      <point x="382" y="236"/>
      <point x="405" y="242" type="curve"/>
      <point x="422" y="212"/>
      <point x="435" y="176"/>
      <point x="435" y="136" type="curve" smooth="yes"/>
      <point x="435" y="109"/>
      <point x="418" y="85"/>
      <point x="373" y="85" type="curve" smooth="yes"/>
    </contour>
  </outline>
</glyph>
<glyph name="dv_Nine" format="1">
  <advance width="493"/>
  <unicode hex="096F"/>
  <outline>
    <contour>
      <point x="364" y="339"/>
      <point x="443" y="415"/>
      <point x="443" y="518" type="curve" smooth="yes"/>
      <point x="443" y="611"/>
      <point x="367" y="694"/>
      <point x="242" y="694" type="curve" smooth="yes"/>
      <point x="119" y="694"/>
      <point x="51" y="596"/>
      <point x="51" y="499" type="curve" smooth="yes"/>
      <point x="51" y="419"/>
      <point x="100" y="351"/>
      <point x="152" y="278" type="curve" smooth="yes"/>
      <point x="217" y="186"/>
      <point x="257" y="135"/>
      <point x="257" y="108" type="curve" smooth="yes"/>
      <point x="257" y="80"/>
      <point x="238" y="71"/>
      <point x="206" y="62" type="curve"/>
      <point x="224" y="-26" type="line"/>
      <point x="308" y="-10"/>
      <point x="368" y="33"/>
      <point x="368" y="99" type="curve" smooth="yes"/>
      <point x="368" y="158"/>
      <point x="352" y="180"/>
      <point x="262" y="311" type="curve" smooth="yes"/>
      <point x="257" y="318"/>
      <point x="252" y="325"/>
      <point x="248" y="332" type="curve"/>
      <point x="251" y="332"/>
      <point x="254" y="333"/>
      <point x="258" y="337" type="curve"/>
    </contour>
    <contour>
      <point x="167" y="549"/>
      <point x="200" y="585"/>
      <point x="246" y="585" type="curve" smooth="yes"/>
      <point x="296" y="585"/>
      <point x="325" y="550"/>
      <point x="325" y="508" type="curve" smooth="yes"/>
      <point x="325" y="464"/>
      <point x="293" y="426"/>
      <point x="240" y="426" type="curve" smooth="yes"/>
      <point x="212" y="426"/>
      <point x="191" y="431"/>
      <point x="177" y="439" type="curve"/>
      <point x="171" y="457"/>
      <point x="167" y="475"/>
      <point x="167" y="498" type="curve" smooth="yes"/>
    </contour>
  </outline>
</glyph>
